Tektur-CondRegular.ufo
<glyph name="exclam" format="2">
  <advance width="170"/>
  <unicode hex="0021"/>
  <outline>
    <contour>
      <point x="40" y="0" type="line"/>
      <point x="130" y="0" type="line"/>
      <point x="130" y="100" type="line"/>
      <point x="40" y="100" type="line"/>
    </contour>
    <contour>
      <point x="50" y="200" type="line"/>
      <point x="120" y="200" type="line"/>
      <point x="136" y="700" type="line"/>
      <point x="34" y="700" type="line"/>
    </contour>
  </outline>
</glyph>
<glyph name="numbersign" format="2">
  <advance width="450"/>
  <unicode hex="0023"/>
  <outline>
    <contour>
      <point x="100" y="0" type="line"/>
      <point x="182" y="0" type="line"/>
      <point x="182" y="700" type="line"/>
      <point x="100" y="700" type="line"/>
    </contour>
    <contour>
      <point x="258" y="0" type="line"/>
      <point x="340" y="0" type="line"/>
      <point x="340" y="700" type="line"/>
      <point x="258" y="700" type="line"/>
    </contour>
    <contour>
      <point x="410" y="150" type="line"/>
      <point x="410" y="226" type="line"/>
      <point x="40" y="226" type="line"/>
      <point x="40" y="150" type="line"/>
    </contour>
    <contour>
      <point x="410" y="474" type="line"/>
      <point x="410" y="550" type="line"/>
      <point x="40" y="550" type="line"/>
      <point x="40" y="474" type="line"/>
    </contour>
  </outline>
</glyph>
<glyph name="dollar" format="2">
  <advance width="340"/>
  <unicode hex="0024"/>
  <outline>
    <contour>
      <point x="40" y="50" type="line"/>
      <point x="115" y="50" type="line"/>
      <point x="115" y="-60" type="line"/>
      <point x="201" y="-60" type="line"/>
      <point x="201" y="50" type="line"/>
      <point x="223" y="50" type="line"/>
      <point x="300" y="127" type="line"/>
      <point x="300" y="395" type="line"/>
      <point x="130" y="395" type="line"/>
      <point x="130" y="570" type="line"/>
      <point x="295" y="570" type="line"/>
      <point x="295" y="650" type="line"/>
      <point x="235" y="650" type="line"/>
      <point x="235" y="760" type="line"/>
      <point x="149" y="760" type="line"/>
      <point x="149" y="650" type="line"/>
      <point x="120" y="650" type="line"/>
      <point x="40" y="570" type="line"/>
      <point x="40" y="315" type="line"/>
      <point x="210" y="315" type="line"/>
      <point x="210" y="130" type="line"/>
      <point x="40" y="130" type="line"/>
    </contour>
  </outline>
</glyph>
<glyph name="percent" format="2">
  <advance width="310"/>
  <unicode hex="0025"/>
  <outline>
    <contour>
      <point x="30" y="0" type="line"/>
      <point x="114" y="0" type="line"/>
      <point x="280" y="700" type="line"/>
      <point x="196" y="700" type="line"/>
    </contour>
    <contour>
      <point x="190" y="0" type="line"/>
      <point x="280" y="0" type="line"/>
      <point x="280" y="120" type="line"/>
      <point x="190" y="120" type="line"/>
    </contour>
    <contour>
      <point x="30" y="580" type="line"/>
      <point x="120" y="580" type="line"/>
      <point x="120" y="700" type="line"/>
      <point x="30" y="700" type="line"/>
    </contour>
  </outline>
</glyph>
<glyph name="ampersand" format="2">
  <advance width="413"/>
  <unicode hex="0026"/>
  <outline>
    <contour>
      <point x="313" y="0" type="line"/>
      <point x="400" y="0" type="line"/>
      <point x="164" y="622" type="line"/>
      <point x="330" y="622" type="line"/>
      <point x="330" y="700" type="line"/>
      <point x="145" y="700" type="line"/>
      <point x="75" y="630" type="line"/>
    </contour>
    <contour>
      <point x="195" y="360" type="line"/>
      <point x="195" y="440" type="line"/>
      <point x="105" y="440" type="line"/>
      <point x="35" y="370" type="line"/>
      <point x="35" y="80" type="line"/>
      <point x="115" y="0" type="line"/>
      <point x="219" y="0" type="line"/>
      <point x="400" y="500" type="line"/>
      <point x="321" y="500" type="line"/>
      <point x="170" y="80" type="line"/>
      <point x="125" y="80" type="line"/>
      <point x="125" y="360" type="line"/>
    </contour>
  </outline>
</glyph>
<glyph name="quotesingle" format="2">
  <advance width="180"/>
  <unicode hex="0027"/>
  <outline>
    <contour>
      <point x="60" y="460" type="line"/>
      <point x="120" y="460" type="line"/>
      <point x="140" y="700" type="line"/>
      <point x="40" y="700" type="line"/>
    </contour>
  </outline>
</glyph>
<glyph name="parenleft" format="2">
  <advance width="200"/>
  <unicode hex="0028"/>
  <outline>
    <contour>
      <point x="40" y="-60" type="line"/>
      <point x="120" y="-140" type="line"/>
      <point x="190" y="-140" type="line"/>
      <point x="190" y="-60" type="line"/>
      <point x="130" y="-60" type="line"/>
      <point x="130" y="670" type="line"/>
      <point x="190" y="670" type="line"/>
      <point x="190" y="750" type="line"/>
      <point x="120" y="750" type="line"/>
      <point x="40" y="670" type="line"/>
    </contour>
  </outline>
</glyph>
<glyph name="asterisk" format="2">
  <advance width="360"/>
  <unicode hex="002A"/>
  <outline>
    <contour>
      <point x="216" y="320" type="line"/>
      <point x="216" y="448" type="line"/>
      <point x="312" y="384" type="line"/>
      <point x="350" y="444" type="line"/>
      <point x="244" y="515" type="line"/>
      <point x="350" y="586" type="line"/>
      <point x="312" y="646" type="line"/>
      <point x="216" y="582" type="line"/>
      <point x="216" y="700" type="line"/>
      <point x="144" y="700" type="line"/>
      <point x="144" y="582" type="line"/>
      <point x="48" y="646" type="line"/>
      <point x="10" y="586" type="line"/>
      <point x="116" y="515" type="line"/>
      <point x="10" y="444" type="line"/>
      <point x="48" y="384" type="line"/>
      <point x="144" y="448" type="line"/>
      <point x="144" y="320" type="line"/>
    </contour>
  </outline>
</glyph>
<glyph name="plus" format="2">
  <advance width="600"/>
  <unicode hex="002B"/>
  <outline>
    <contour>
      <point x="40" y="280" type="line"/>
      <point x="560" y="280" type="line"/>
      <point x="560" y="360" type="line"/>
      <point x="40" y="360" type="line"/>
    </contour>
    <contour>
      <point x="343" y="60" type="line"/>
      <point x="343" y="580" type="line"/>
      <point x="257" y="580" type="line"/>
      <point x="257" y="60" type="line"/>
    </contour>
  </outline>
</glyph>
<glyph name="comma" format="2">
  <advance width="150"/>
  <unicode hex="002C"/>
  <outline>
    <contour>
      <point x="30" y="0" type="line"/>
      <point x="45" y="0" type="line"/>
      <point x="0" y="-140" type="line"/>
      <point x="75" y="-140" type="line"/>
      <point x="120" y="0" type="line"/>
      <point x="120" y="100" type="line"/>
      <point x="30" y="100" type="line"/>
    </contour>
  </outline>
</glyph>
<glyph name="hyphen" format="2">
  <advance width="260"/>
  <unicode hex="002D"/>
  <unicode hex="2010"/>
  <unicode hex="2011"/>
  <unicode hex="00AD"/>
  <outline>
    <contour>
      <point x="40" y="270" type="line"/>
      <point x="220" y="270" type="line"/>
      <point x="220" y="370" type="line"/>
      <point x="40" y="370" type="line"/>
    </contour>
  </outline>
</glyph>
<glyph name="period" format="2">
  <advance width="150"/>
  <unicode hex="002E"/>
  <outline>
    <contour>
      <point x="30" y="0" type="line"/>
      <point x="120" y="0" type="line"/>
      <point x="120" y="100" type="line"/>
      <point x="30" y="100" type="line"/>
    </contour>
  </outline>
</glyph>
<glyph name="slash" format="2">
  <advance width="250"/>
  <unicode hex="002F"/>
  <outline>
    <contour>
      <point x="10" y="0" type="line"/>
      <point x="96" y="0" type="line"/>
      <point x="240" y="700" type="line"/>
      <point x="154" y="700" type="line"/>
    </contour>
  </outline>
</glyph>
<glyph name="zero" format="2">
  <advance width="360"/>
  <unicode hex="0030"/>
  <anchor x="180" y="700" name="top"/>
  <anchor x="180" y="0" name="bottom"/>
  <outline>
    <contour>
      <point x="40" y="80" type="line"/>
      <point x="120" y="0" type="line"/>
      <point x="240" y="0" type="line"/>
      <point x="320" y="80" type="line"/>
      <point x="320" y="620" type="line"/>
      <point x="240" y="700" type="line"/>
      <point x="120" y="700" type="line"/>
      <point x="40" y="620" type="line"/>
    </contour>
    <contour>
      <point x="130" y="620" type="line"/>
      <point x="230" y="620" type="line"/>
      <point x="230" y="80" type="line"/>
      <point x="130" y="80" type="line"/>
    </contour>
  </outline>
</glyph>
<glyph name="one" format="2">
  <advance width="260"/>
  <unicode hex="0031"/>
  <outline>
    <contour>
      <point x="25" y="-4" type="line"/>
      <point x="125" y="4" type="line"/>
      <point x="235" y="-4" type="line"/>
      <point x="235" y="76" type="line"/>
      <point x="180" y="81" type="line"/>
      <point x="180" y="700" type="line"/>
      <point x="25" y="660" type="line"/>
      <point x="25" y="585" type="line"/>
      <point x="90" y="594" type="line"/>
      <point x="90" y="81" type="line"/>
      <point x="25" y="76" type="line"/>
    </contour>
  </outline>
</glyph>
<glyph name="two" format="2">
  <advance width="300"/>
  <unicode hex="0032"/>
  <outline>
    <contour>
      <point x="260" y="80" type="line"/>
      <point x="130" y="80" type="line"/>
      <point x="130" y="301" type="line"/>
      <point x="260" y="354" type="line"/>
      <point x="260" y="620" type="line"/>
      <point x="180" y="700" type="line"/>
      <point x="45" y="700" type="line"/>
      <point x="45" y="620" type="line"/>
      <point x="170" y="620" type="line"/>
      <point x="170" y="409" type="line"/>
      <point x="40" y="356" type="line"/>
      <point x="40" y="0" type="line"/>
      <point x="260" y="0" type="line"/>
    </contour>
  </outline>
</glyph>
<glyph name="three" format="2">
  <advance width="275"/>
  <unicode hex="0033"/>
  <outline>
    <contour>
      <point x="165" y="0" type="line"/>
      <point x="245" y="80" type="line"/>
      <point x="245" y="306" type="line"/>
      <point x="172" y="366" type="line"/>
      <point x="230" y="419" type="line"/>
      <point x="230" y="620" type="line"/>
      <point x="150" y="700" type="line"/>
      <point x="25" y="700" type="line"/>
      <point x="25" y="620" type="line"/>
      <point x="140" y="620" type="line"/>
      <point x="140" y="400" type="line"/>
      <point x="35" y="400" type="line"/>
      <point x="35" y="320" type="line"/>
      <point x="155" y="320" type="line"/>
      <point x="155" y="80" type="line"/>
      <point x="15" y="80" type="line"/>
      <point x="15" y="0" type="line"/>
    </contour>
  </outline>
</glyph>
<glyph name="four" format="2">
  <advance width="330"/>
  <unicode hex="0034"/>
  <outline>
    <contour>
      <point x="30" y="180" type="line"/>
      <point x="200" y="180" type="line"/>
      <point x="200" y="0" type="line"/>
      <point x="290" y="0" type="line"/>
      <point x="290" y="700" type="line"/>
      <point x="200" y="700" type="line"/>
      <point x="200" y="260" type="line"/>
      <point x="120" y="260" type="line"/>
      <point x="130" y="700" type="line"/>
      <point x="44" y="700" type="line"/>
    </contour>
  </outline>
</glyph>
<glyph name="five" format="2">
  <advance width="300"/>
  <unicode hex="0035"/>
  <outline>
    <contour>
      <point x="260" y="620" type="line"/>
      <point x="260" y="700" type="line"/>
      <point x="40" y="700" type="line"/>
      <point x="40" y="344" type="line"/>
      <point x="170" y="331" type="line"/>
      <point x="170" y="80" type="line"/>
      <point x="45" y="80" type="line"/>
      <point x="45" y="0" type="line"/>
      <point x="180" y="0" type="line"/>
      <point x="260" y="80" type="line"/>
      <point x="260" y="405" type="line"/>
      <point x="130" y="418" type="line"/>
      <point x="130" y="620" type="line"/>
    </contour>
  </outline>
</glyph>
<glyph name="six" format="2">
  <advance width="350"/>
  <unicode hex="0036"/>
  <outline>
    <contour>
      <point x="120" y="0" type="line"/>
      <point x="230" y="0" type="line"/>
      <point x="310" y="80" type="line"/>
      <point x="310" y="395" type="line"/>
      <point x="245" y="460" type="line"/>
      <point x="130" y="460" type="line"/>
      <point x="130" y="620" type="line"/>
      <point x="290" y="620" type="line"/>
      <point x="290" y="700" type="line"/>
      <point x="120" y="700" type="line"/>
      <point x="40" y="620" type="line"/>
      <point x="40" y="80" type="line"/>
    </contour>
    <contour>
      <point x="130" y="80" type="line"/>
      <point x="130" y="380" type="line"/>
      <point x="220" y="380" type="line"/>
      <point x="220" y="80" type="line"/>
    </contour>
  </outline>
</glyph>
<glyph name="seven" format="2">
  <advance width="320"/>
  <unicode hex="0037"/>
  <outline>
    <contour>
      <point x="55" y="0" type="line"/>
      <point x="146" y="0" type="line"/>
      <point x="295" y="455" type="line"/>
      <point x="295" y="700" type="line"/>
      <point x="25" y="700" type="line"/>
      <point x="25" y="460" type="line"/>
      <point x="115" y="460" type="line"/>
      <point x="115" y="620" type="line"/>
      <point x="205" y="620" type="line"/>
      <point x="205" y="460" type="line"/>
    </contour>
  </outline>
</glyph>
<glyph name="eight" format="2">
  <advance width="350"/>
  <unicode hex="0038"/>
  <outline>
    <contour>
      <point x="135" y="405" type="line"/>
      <point x="135" y="620" type="line"/>
      <point x="215" y="620" type="line"/>
      <point x="215" y="405" type="line"/>
    </contour>
    <contour>
      <point x="125" y="80" type="line"/>
      <point x="125" y="325" type="line"/>
      <point x="225" y="325" type="line"/>
      <point x="225" y="80" type="line"/>
    </contour>
    <contour>
      <point x="115" y="0" type="line"/>
      <point x="235" y="0" type="line"/>
      <point x="315" y="80" type="line"/>
      <point x="315" y="316" type="line"/>
      <point x="258" y="366" type="line"/>
      <point x="305" y="409" type="line"/>
      <point x="305" y="620" type="line"/>
      <point x="225" y="700" type="line"/>
      <point x="125" y="700" type="line"/>
      <point x="45" y="620" type="line"/>
      <point x="45" y="409" type="line"/>
      <point x="92" y="366" type="line"/>
      <point x="35" y="316" type="line"/>
      <point x="35" y="80" type="line"/>
    </contour>
  </outline>
</glyph>
<glyph name="equal" format="2">
  <advance width="600"/>
  <unicode hex="003D"/>
  <outline>
    <contour>
      <point x="40" y="385" type="line"/>
      <point x="560" y="385" type="line"/>
      <point x="560" y="465" type="line"/>
      <point x="40" y="465" type="line"/>
    </contour>
    <contour>
      <point x="40" y="175" type="line"/>
      <point x="560" y="175" type="line"/>
      <point x="560" y="255" type="line"/>
      <point x="40" y="255" type="line"/>
    </contour>
  </outline>
</glyph>
<glyph name="question" format="2">
  <advance width="260"/>
  <unicode hex="003F"/>
  <outline>
    <contour>
      <point x="50" y="0" type="line"/>
      <point x="140" y="0" type="line"/>
      <point x="140" y="100" type="line"/>
      <point x="50" y="100" type="line"/>
    </contour>
    <contour>
      <point x="140" y="200" type="line"/>
      <point x="140" y="289" type="line"/>
      <point x="245" y="369" type="line"/>
      <point x="245" y="630" type="line"/>
      <point x="175" y="700" type="line"/>
      <point x="15" y="700" type="line"/>
      <point x="15" y="620" type="line"/>
      <point x="155" y="620" type="line"/>
      <point x="155" y="406" type="line"/>
      <point x="50" y="326" type="line"/>
      <point x="50" y="200" type="line"/>
    </contour>
  </outline>
</glyph>
<glyph name="at" format="2">
  <advance width="470"/>
  <unicode hex="0040"/>
  <outline>
    <contour>
      <point x="40" y="-60" type="line"/>
      <point x="120" y="-140" type="line"/>
      <point x="430" y="-140" type="line"/>
      <point x="430" y="-62" type="line"/>
      <point x="126" y="-62" type="line"/>
      <point x="126" y="622" type="line"/>
      <point x="344" y="622" type="line"/>
      <point x="344" y="495" type="line"/>
      <point x="190" y="475" type="line"/>
      <point x="190" y="130" type="line"/>
      <point x="270" y="50" type="line"/>
      <point x="350" y="50" type="line"/>
      <point x="430" y="130" type="line"/>
      <point x="430" y="620" type="line"/>
      <point x="350" y="700" type="line"/>
      <point x="120" y="700" type="line"/>
      <point x="40" y="620" type="line"/>
    </contour>
    <contour>
      <point x="276" y="126" type="line"/>
      <point x="276" y="409" type="line"/>
      <point x="344" y="429" type="line"/>
      <point x="344" y="126" type="line"/>
    </contour>
  </outline>
</glyph>
<glyph name="A" format="2">
  <advance width="340"/>
  <unicode hex="0041"/>
  <anchor x="170" y="0" name="bottom"/>
  <anchor x="278" y="-0" name="ogonek"/>
  <anchor x="170" y="700" name="top"/>
  <outline>
    <contour>
      <point x="10" y="0" type="line"/>
      <point x="99" y="0" type="line"/>
      <point x="116" y="180" type="line"/>
      <point x="224" y="180" type="line"/>
      <point x="241" y="0" type="line"/>
      <point x="330" y="0" type="line"/>
      <point x="257" y="700" type="line"/>
      <point x="83" y="700" type="line"/>
    </contour>
    <contour>
      <point x="123" y="258" type="line"/>
      <point x="157" y="622" type="line"/>
      <point x="183" y="622" type="line"/>
      <point x="217" y="258" type="line"/>
    </contour>
  </outline>
</glyph>
<glyph name="B" format="2">
  <advance width="350"/>
  <unicode hex="0042"/>
  <anchor x="260" y="700" name="top"/>
  <anchor x="260" y="0" name="bottom"/>
  <outline>
    <contour>
      <point x="130" y="405" type="line"/>
      <point x="130" y="620" type="line"/>
      <point x="210" y="620" type="line"/>
      <point x="210" y="405" type="line"/>
    </contour>
    <contour>
      <point x="130" y="80" type="line"/>
      <point x="130" y="325" type="line"/>
      <point x="230" y="325" type="line"/>
      <point x="230" y="80" type="line"/>
    </contour>
    <contour>
      <point x="300" y="620" type="line"/>
      <point x="220" y="700" type="line"/>
      <point x="40" y="700" type="line"/>
      <point x="40" y="0" type="line"/>
      <point x="240" y="0" type="line"/>
      <point x="320" y="80" type="line"/>
      <point x="320" y="316" type="line"/>
      <point x="253" y="376" type="line"/>
      <point x="300" y="419" type="line"/>
    </contour>
  </outline>
</glyph>
<glyph name="C" format="2">
  <advance width="280"/>
  <unicode hex="0043"/>
  <anchor x="160" y="700" name="top"/>
  <anchor x="160" y="0" name="bottom"/>
  <outline>
    <contour>
      <point x="40" y="80" type="line"/>
      <point x="120" y="0" type="line"/>
      <point x="260" y="0" type="line"/>
      <point x="260" y="84" type="line"/>
      <point x="132" y="84" type="line"/>
      <point x="132" y="616" type="line"/>
      <point x="250" y="616" type="line"/>
      <point x="250" y="700" type="line"/>
      <point x="120" y="700" type="line"/>
      <point x="40" y="620" type="line"/>
    </contour>
  </outline>
</glyph>
<glyph name="D" format="2">
  <advance width="360"/>
  <unicode hex="0044"/>
  <anchor x="160" y="0" name="bottom"/>
  <anchor x="160" y="700" name="top"/>
  <outline>
    <contour>
      <point x="130" y="80" type="line"/>
      <point x="130" y="620" type="line"/>
      <point x="230" y="620" type="line"/>
      <point x="230" y="80" type="line"/>
    </contour>
    <contour>
      <point x="40" y="0" type="line"/>
      <point x="240" y="0" type="line"/>
      <point x="320" y="80" type="line"/>
      <point x="320" y="620" type="line"/>
      <point x="240" y="700" type="line"/>
      <point x="40" y="700" type="line"/>
    </contour>
  </outline>
</glyph>
<glyph name="E" format="2">
  <advance width="250"/>
  <unicode hex="0045"/>
  <anchor x="125" y="0" name="bottom"/>
  <anchor x="190" y="0" name="ogonek"/>
  <anchor x="125" y="700" name="top"/>
  <outline>
    <contour>
      <point x="40" y="0" type="line"/>
      <point x="230" y="0" type="line"/>
      <point x="230" y="80" type="line"/>
      <point x="130" y="80" type="line"/>
      <point x="130" y="320" type="line"/>
      <point x="210" y="320" type="line"/>
      <point x="210" y="400" type="line"/>
      <point x="130" y="400" type="line"/>
      <point x="130" y="620" type="line"/>
      <point x="220" y="620" type="line"/>
      <point x="220" y="700" type="line"/>
      <point x="40" y="700" type="line"/>
    </contour>
  </outline>
</glyph>
<glyph name="F" format="2">
  <advance width="250"/>
  <unicode hex="0046"/>
  <anchor x="125" y="0" name="bottom"/>
  <anchor x="125" y="700" name="top"/>
  <outline>
    <contour>
      <point x="40" y="0" type="line"/>
      <point x="130" y="0" type="line"/>
      <point x="130" y="260" type="line"/>
      <point x="225" y="260" type="line"/>
      <point x="225" y="340" type="line"/>
      <point x="130" y="340" type="line"/>
      <point x="130" y="620" type="line"/>
      <point x="230" y="620" type="line"/>
      <point x="230" y="700" type="line"/>
      <point x="40" y="700" type="line"/>
    </contour>
  </outline>
</glyph>
<glyph name="G" format="2">
  <advance width="360"/>
  <unicode hex="0047"/>
  <anchor x="190" y="0" name="bottom"/>
  <anchor x="190" y="700" name="top"/>
  <outline>
    <contour>
      <point x="40" y="80" type="line"/>
      <point x="120" y="0" type="line"/>
      <point x="320" y="0" type="line"/>
      <point x="320" y="460" type="line"/>
      <point x="180" y="460" type="line"/>
      <point x="180" y="380" type="line"/>
      <point x="230" y="380" type="line"/>
      <point x="230" y="80" type="line"/>
      <point x="130" y="80" type="line"/>
      <point x="130" y="620" type="line"/>
      <point x="300" y="620" type="line"/>
      <point x="300" y="700" type="line"/>
      <point x="120" y="700" type="line"/>
      <point x="40" y="620" type="line"/>
    </contour>
  </outline>
</glyph>
<glyph name="H" format="2">
  <advance width="360"/>
  <unicode hex="0048"/>
  <anchor x="180" y="0" name="bottom"/>
  <anchor x="180" y="700" name="top"/>
  <outline>
    <contour>
      <point x="40" y="0" type="line"/>
      <point x="130" y="0" type="line"/>
      <point x="130" y="320" type="line"/>
      <point x="230" y="320" type="line"/>
      <point x="230" y="0" type="line"/>
      <point x="320" y="0" type="line"/>
      <point x="320" y="700" type="line"/>
      <point x="230" y="700" type="line"/>
      <point x="230" y="400" type="line"/>
      <point x="130" y="400" type="line"/>
      <point x="130" y="700" type="line"/>
      <point x="40" y="700" type="line"/>
    </contour>
  </outline>
</glyph>
<glyph name="I" format="2">
  <advance width="250"/>
  <unicode hex="0049"/>
  <anchor x="125" y="0" name="bottom"/>
  <anchor x="125" y="700" name="top"/>
  <outline>
    <contour>
      <point x="25" y="-4" type="line"/>
      <point x="125" y="4" type="line"/>
      <point x="225" y="-4" type="line"/>
      <point x="225" y="73" type="line"/>
      <point x="170" y="78" type="line"/>
      <point x="170" y="622" type="line"/>
      <point x="225" y="627" type="line"/>
      <point x="225" y="704" type="line"/>
      <point x="125" y="696" type="line"/>
      <point x="25" y="704" type="line"/>
      <point x="25" y="627" type="line"/>
      <point x="80" y="622" type="line"/>
      <point x="80" y="78" type="line"/>
      <point x="25" y="73" type="line"/>
    </contour>
  </outline>
</glyph>
<glyph name="J" format="2">
  <advance width="350"/>
  <unicode hex="004A"/>
  <anchor x="175" y="0" name="bottom"/>
  <anchor x="185" y="700" name="top"/>
  <outline>
    <contour>
      <point x="40" y="80" type="line"/>
      <point x="120" y="0" type="line"/>
      <point x="230" y="0" type="line"/>
      <point x="310" y="80" type="line"/>
      <point x="310" y="700" type="line"/>
      <point x="60" y="700" type="line"/>
      <point x="60" y="620" type="line"/>
      <point x="220" y="620" type="line"/>
      <point x="220" y="80" type="line"/>
      <point x="130" y="80" type="line"/>
      <point x="130" y="300" type="line"/>
      <point x="40" y="300" type="line"/>
    </contour>
  </outline>
</glyph>
<glyph name="K" format="2">
  <advance width="360"/>
  <unicode hex="004B"/>
  <anchor x="185" y="0" name="bottom"/>
  <anchor x="185" y="700" name="top"/>
  <outline>
    <contour>
      <point x="40" y="0" type="line"/>
      <point x="130" y="0" type="line"/>
      <point x="130" y="315" type="line"/>
      <point x="175" y="315" type="line"/>
      <point x="256" y="0" type="line"/>
      <point x="349" y="0" type="line"/>
      <point x="250" y="370" type="line"/>
      <point x="334" y="700" type="line"/>
      <point x="242" y="700" type="line"/>
      <point x="167" y="395" type="line"/>
      <point x="130" y="395" type="line"/>
      <point x="130" y="700" type="line"/>
      <point x="40" y="700" type="line"/>
    </contour>
  </outline>
</glyph>
<glyph name="L" format="2">
  <advance width="310"/>
  <unicode hex="004C"/>
  <anchor x="165" y="0" name="bottom"/>
  <anchor x="130" y="700" name="top"/>
  <outline>
    <contour>
      <point x="40" y="0" type="line"/>
      <point x="290" y="0" type="line"/>
      <point x="290" y="280" type="line"/>
      <point x="204" y="280" type="line"/>
      <point x="204" y="80" type="line"/>
      <point x="130" y="80" type="line"/>
      <point x="130" y="700" type="line"/>
      <point x="40" y="700" type="line"/>
    </contour>
  </outline>
</glyph>
<glyph name="M" format="2">
  <advance width="400"/>
  <unicode hex="004D"/>
  <anchor x="200" y="700" name="top"/>
  <anchor x="200" y="0" name="bottom"/>
  <outline>
    <contour>
      <point x="40" y="0" type="line"/>
      <point x="127" y="0" type="line"/>
      <point x="127" y="530" type="line"/>
      <point x="190" y="380" type="line"/>
      <point x="210" y="380" type="line"/>
      <point x="273" y="530" type="line"/>
      <point x="273" y="0" type="line"/>
      <point x="360" y="0" type="line"/>
      <point x="360" y="700" type="line"/>
      <point x="280" y="700" type="line"/>
      <point x="200" y="510" type="line"/>
      <point x="120" y="700" type="line"/>
      <point x="40" y="700" type="line"/>
    </contour>
  </outline>
</glyph>
<glyph name="N" format="2">
  <advance width="380"/>
  <unicode hex="004E"/>
  <anchor x="190" y="700" name="top"/>
  <anchor x="190" y="0" name="bottom"/>
  <outline>
    <contour>
      <point x="40" y="0" type="line"/>
      <point x="125" y="0" type="line"/>
      <point x="125" y="475" type="line"/>
      <point x="262" y="0" type="line"/>
      <point x="340" y="0" type="line"/>
      <point x="340" y="700" type="line"/>
      <point x="255" y="700" type="line"/>
      <point x="255" y="225" type="line"/>
      <point x="118" y="700" type="line"/>
      <point x="40" y="700" type="line"/>
    </contour>
  </outline>
</glyph>
<glyph name="O" format="2">
  <advance width="360"/>
  <unicode hex="004F"/>
  <anchor x="180" y="0" name="bottom"/>
  <anchor x="180" y="700" name="top"/>
  <outline>
    <contour>
      <point x="40" y="80" type="line"/>
      <point x="120" y="0" type="line"/>
      <point x="240" y="0" type="line"/>
      <point x="320" y="80" type="line"/>
      <point x="320" y="620" type="line"/>
      <point x="240" y="700" type="line"/>
      <point x="120" y="700" type="line"/>
      <point x="40" y="620" type="line"/>
    </contour>
    <contour>
      <point x="130" y="620" type="line"/>
      <point x="230" y="620" type="line"/>
      <point x="230" y="80" type="line"/>
      <point x="130" y="80" type="line"/>
    </contour>
  </outline>
</glyph>
<glyph name="P" format="2">
  <advance width="350"/>
  <unicode hex="0050"/>
  <anchor x="260" y="700" name="top"/>
  <anchor x="180" y="0" name="bottom"/>
  <outline>
    <contour>
      <point x="130" y="230" type="line"/>
      <point x="130" y="620" type="line"/>
      <point x="230" y="620" type="line"/>
      <point x="230" y="230" type="line"/>
    </contour>
    <contour>
      <point x="320" y="620" type="line"/>
      <point x="240" y="700" type="line"/>
      <point x="40" y="700" type="line"/>
      <point x="40" y="0" type="line"/>
      <point x="130" y="0" type="line"/>
      <point x="130" y="150" type="line"/>
      <point x="240" y="150" type="line"/>
      <point x="320" y="230" type="line"/>
    </contour>
  </outline>
</glyph>
<glyph name="Q" format="2">
  <advance width="360"/>
  <unicode hex="0051"/>
  <anchor x="180" y="700" name="top"/>
  <anchor x="180" y="0" name="bottom"/>
  <outline>
    <contour>
      <point x="40" y="80" type="line"/>
      <point x="120" y="0" type="line"/>
      <point x="330" y="-81" type="line"/>
      <point x="330" y="7" type="line"/>
      <point x="130" y="83" type="line"/>
      <point x="130" y="620" type="line"/>
      <point x="230" y="620" type="line"/>
      <point x="230" y="-16" type="line"/>
      <point x="320" y="60" type="line"/>
      <point x="320" y="622" type="line"/>
      <point x="240" y="702" type="line"/>
      <point x="120" y="702" type="line"/>
      <point x="40" y="622" type="line"/>
    </contour>
  </outline>
</glyph>
<glyph name="R" format="2">
  <advance width="360"/>
  <unicode hex="0052"/>
  <anchor x="185" y="0" name="bottom"/>
  <anchor x="165" y="700" name="top"/>
  <outline>
    <contour>
      <point x="130" y="320" type="line"/>
      <point x="130" y="620" type="line"/>
      <point x="230" y="620" type="line"/>
      <point x="230" y="320" type="line"/>
    </contour>
    <contour>
      <point x="320" y="620" type="line"/>
      <point x="240" y="700" type="line"/>
      <point x="40" y="700" type="line"/>
      <point x="40" y="0" type="line"/>
      <point x="130" y="0" type="line"/>
      <point x="130" y="240" type="line"/>
      <point x="174" y="240" type="line"/>
      <point x="248" y="0" type="line"/>
      <point x="340" y="0" type="line"/>
      <point x="262" y="252" type="line"/>
      <point x="320" y="310" type="line"/>
    </contour>
  </outline>
</glyph>
<glyph name="S" format="2">
  <advance width="300"/>
  <unicode hex="0053"/>
  <anchor x="160" y="700" name="top"/>
  <anchor x="140" y="0" name="bottom"/>
  <outline>
    <contour>
      <point x="40" y="0" type="line"/>
      <point x="180" y="0" type="line"/>
      <point x="260" y="80" type="line"/>
      <point x="260" y="384" type="line"/>
      <point x="130" y="397" type="line"/>
      <point x="130" y="618" type="line"/>
      <point x="258" y="618" type="line"/>
      <point x="258" y="700" type="line"/>
      <point x="120" y="700" type="line"/>
      <point x="40" y="620" type="line"/>
      <point x="40" y="326" type="line"/>
      <point x="170" y="313" type="line"/>
      <point x="170" y="82" type="line"/>
      <point x="40" y="82" type="line"/>
    </contour>
  </outline>
</glyph>
<glyph name="T" format="2">
  <advance width="280"/>
  <unicode hex="0054"/>
  <anchor x="140" y="0" name="bottom"/>
  <anchor x="140" y="700" name="top"/>
  <outline>
    <contour>
      <point x="95" y="0" type="line"/>
      <point x="185" y="0" type="line"/>
      <point x="185" y="620" type="line"/>
      <point x="260" y="620" type="line"/>
      <point x="260" y="700" type="line"/>
      <point x="20" y="700" type="line"/>
      <point x="20" y="620" type="line"/>
      <point x="95" y="620" type="line"/>
    </contour>
  </outline>
</glyph>
<glyph name="U" format="2">
  <advance width="360"/>
  <unicode hex="0055"/>
  <anchor x="180" y="0" name="bottom"/>
  <anchor x="180" y="700" name="top"/>
  <outline>
    <contour>
      <point x="40" y="80" type="line"/>
      <point x="120" y="0" type="line"/>
      <point x="240" y="0" type="line"/>
      <point x="320" y="80" type="line"/>
      <point x="320" y="700" type="line"/>
      <point x="230" y="700" type="line"/>
      <point x="230" y="80" type="line"/>
      <point x="130" y="80" type="line"/>
      <point x="130" y="700" type="line"/>
      <point x="40" y="700" type="line"/>
    </contour>
  </outline>
</glyph>
<glyph name="V" format="2">
  <advance width="340"/>
  <unicode hex="0056"/>
  <anchor x="170" y="700" name="top"/>
  <anchor x="170" y="0" name="bottom"/>
  <outline>
    <contour>
      <point x="83" y="0" type="line"/>
      <point x="257" y="0" type="line"/>
      <point x="330" y="700" type="line"/>
      <point x="241" y="700" type="line"/>
      <point x="183" y="78" type="line"/>
      <point x="157" y="78" type="line"/>
      <point x="99" y="700" type="line"/>
      <point x="10" y="700" type="line"/>
    </contour>
  </outline>
</glyph>
<glyph name="W" format="2">
  <advance width="520"/>
  <unicode hex="0057"/>
  <anchor x="260" y="0" name="bottom"/>
  <anchor x="260" y="700" name="top"/>
  <outline>
    <contour>
      <point x="67" y="0" type="line"/>
      <point x="224" y="0" type="line"/>
      <point x="255" y="488" type="line"/>
      <point x="296" y="0" type="line"/>
      <point x="453" y="0" type="line"/>
      <point x="495" y="700" type="line"/>
      <point x="406" y="700" type="line"/>
      <point x="379" y="80" type="line"/>
      <point x="355" y="80" type="line"/>
      <point x="317" y="590" type="line"/>
      <point x="203" y="590" type="line"/>
      <point x="165" y="80" type="line"/>
      <point x="141" y="80" type="line"/>
      <point x="114" y="700" type="line"/>
      <point x="25" y="700" type="line"/>
    </contour>
  </outline>
</glyph>
<glyph name="X" format="2">
  <advance width="320"/>
  <unicode hex="0058"/>
  <anchor x="160" y="0" name="bottom"/>
  <anchor x="160" y="700" name="top"/>
  <outline>
    <contour>
      <point x="13" y="0" type="line"/>
      <point x="102" y="0" type="line"/>
      <point x="153" y="320" type="line"/>
      <point x="167" y="320" type="line"/>
      <point x="218" y="0" type="line"/>
      <point x="307" y="0" type="line"/>
      <point x="245" y="368" type="line"/>
      <point x="299" y="700" type="line"/>
      <point x="211" y="700" type="line"/>
      <point x="165" y="400" type="line"/>
      <point x="155" y="400" type="line"/>
      <point x="109" y="700" type="line"/>
      <point x="21" y="700" type="line"/>
      <point x="75" y="368" type="line"/>
    </contour>
  </outline>
</glyph>
<glyph name="Y" format="2">
  <advance width="360"/>
  <unicode hex="0059"/>
  <anchor x="180" y="700" name="top"/>
  <anchor x="180" y="0" name="bottom"/>
  <outline>
    <contour>
      <point x="135" y="0" type="line"/>
      <point x="225" y="0" type="line"/>
      <point x="225" y="210" type="line"/>
      <point x="285" y="210" type="line"/>
      <point x="345" y="700" type="line"/>
      <point x="250" y="700" type="line"/>
      <point x="209" y="288" type="line"/>
      <point x="151" y="288" type="line"/>
      <point x="110" y="700" type="line"/>
      <point x="15" y="700" type="line"/>
      <point x="75" y="210" type="line"/>
      <point x="135" y="210" type="line"/>
    </contour>
  </outline>
</glyph>
<glyph name="Z" format="2">
  <advance width="300"/>
  <unicode hex="005A"/>
  <anchor x="150" y="700" name="top"/>
  <anchor x="150" y="0" name="bottom"/>
  <outline>
    <contour>
      <point x="30" y="0" type="line"/>
      <point x="270" y="0" type="line"/>
      <point x="270" y="80" type="line"/>
      <point x="124" y="80" type="line"/>
      <point x="270" y="630" type="line"/>
      <point x="270" y="700" type="line"/>
      <point x="30" y="700" type="line"/>
      <point x="30" y="620" type="line"/>
      <point x="176" y="620" type="line"/>
      <point x="30" y="70" type="line"/>
    </contour>
  </outline>
</glyph>
<glyph name="asciicircum" format="2">
  <advance width="340"/>
  <unicode hex="005E"/>
  <outline>
    <contour>
      <point x="13" y="350" type="line"/>
      <point x="105" y="350" type="line"/>
      <point x="170" y="590" type="line"/>
      <point x="235" y="350" type="line"/>
      <point x="327" y="350" type="line"/>
      <point x="207" y="700" type="line"/>
      <point x="133" y="700" type="line"/>
    </contour>
  </outline>
</glyph>
<glyph name="a" format="2">
  <advance width="330"/>
  <unicode hex="0061"/>
  <anchor x="155" y="0" name="bottom"/>
  <anchor x="240" y="0" name="ogonek"/>
  <anchor x="155" y="560" name="top"/>
  <outline>
    <contour>
      <point x="30" y="80" type="line"/>
      <point x="110" y="0" type="line"/>
      <point x="290" y="0" type="line"/>
      <point x="290" y="480" type="line"/>
      <point x="210" y="560" type="line"/>
      <point x="40" y="560" type="line"/>
      <point x="40" y="480" type="line"/>
      <point x="200" y="480" type="line"/>
      <point x="200" y="370" type="line"/>
      <point x="30" y="360" type="line"/>
    </contour>
    <contour>
      <point x="120" y="286" type="line"/>
      <point x="200" y="300" type="line"/>
      <point x="200" y="80" type="line"/>
      <point x="120" y="80" type="line"/>
    </contour>
  </outline>
</glyph>
<glyph name="b" format="2">
  <advance width="345"/>
  <unicode hex="0062"/>
  <anchor x="150" y="0" name="bottom"/>
  <anchor x="150" y="700" name="top"/>
  <outline>
    <contour>
      <point x="40" y="0" type="line"/>
      <point x="230" y="0" type="line"/>
      <point x="310" y="80" type="line"/>
      <point x="310" y="480" type="line"/>
      <point x="230" y="560" type="line"/>
      <point x="130" y="560" type="line"/>
      <point x="130" y="700" type="line"/>
      <point x="40" y="700" type="line"/>
    </contour>
    <contour>
      <point x="130" y="80" type="line"/>
      <point x="130" y="480" type="line"/>
      <point x="220" y="480" type="line"/>
      <point x="220" y="80" type="line"/>
    </contour>
  </outline>
</glyph>
<glyph name="c" format="2">
  <advance width="265"/>
  <unicode hex="0063"/>
  <anchor x="155" y="0" name="bottom"/>
  <anchor x="155" y="560" name="top"/>
  <outline>
    <contour>
      <point x="35" y="90" type="line"/>
      <point x="125" y="0" type="line"/>
      <point x="245" y="0" type="line"/>
      <point x="245" y="80" type="line"/>
      <point x="125" y="80" type="line"/>
      <point x="125" y="480" type="line"/>
      <point x="245" y="480" type="line"/>
      <point x="245" y="560" type="line"/>
      <point x="125" y="560" type="line"/>
      <point x="35" y="470" type="line"/>
    </contour>
  </outline>
</glyph>
<glyph name="d" format="2">
  <advance width="345"/>
  <unicode hex="0064"/>
  <anchor x="105" y="700" name="top"/>
  <anchor x="105" y="0" name="bottom"/>
  <outline>
    <contour>
      <point x="305" y="700" type="line"/>
      <point x="215" y="700" type="line"/>
      <point x="215" y="560" type="line"/>
      <point x="115" y="560" type="line"/>
      <point x="35" y="480" type="line"/>
      <point x="35" y="80" type="line"/>
      <point x="115" y="0" type="line"/>
      <point x="305" y="0" type="line"/>
    </contour>
    <contour>
      <point x="125" y="80" type="line"/>
      <point x="125" y="480" type="line"/>
      <point x="215" y="480" type="line"/>
      <point x="215" y="80" type="line"/>
    </contour>
  </outline>
</glyph>
<glyph name="e" format="2">
  <advance width="330"/>
  <unicode hex="0065"/>
  <anchor x="180" y="0" name="bottom"/>
  <anchor x="215" y="-0" name="ogonek"/>
  <anchor x="180" y="560" name="top"/>
  <outline>
    <contour>
      <point x="35" y="80" type="line"/>
      <point x="115" y="0" type="line"/>
      <point x="285" y="0" type="line"/>
      <point x="285" y="80" type="line"/>
      <point x="125" y="80" type="line"/>
      <point x="125" y="210" type="line"/>
      <point x="295" y="210" type="line"/>
      <point x="295" y="560" type="line"/>
      <point x="115" y="560" type="line"/>
      <point x="35" y="480" type="line"/>
    </contour>
    <contour>
      <point x="125" y="280" type="line"/>
      <point x="125" y="480" type="line"/>
      <point x="209" y="480" type="line"/>
      <point x="209" y="286" type="line"/>
    </contour>
  </outline>
</glyph>
<glyph name="f" format="2">
  <advance width="240"/>
  <unicode hex="0066"/>
  <anchor x="200" y="0" name="bottom"/>
  <anchor x="200" y="700" name="top"/>
  <outline>
    <contour>
      <point x="40" y="0" type="line"/>
      <point x="130" y="0" type="line"/>
      <point x="130" y="350" type="line"/>
      <point x="220" y="350" type="line"/>
      <point x="220" y="430" type="line"/>
      <point x="130" y="430" type="line"/>
      <point x="130" y="620" type="line"/>
      <point x="220" y="620" type="line"/>
      <point x="220" y="700" type="line"/>
      <point x="120" y="700" type="line"/>
      <point x="40" y="620" type="line"/>
    </contour>
  </outline>
</glyph>
<glyph name="g" format="2">
  <advance width="345"/>
  <unicode hex="0067"/>
  <anchor x="155" y="-160" name="bottom"/>
  <anchor x="185" y="560" name="top"/>
  <outline>
    <contour>
      <point x="55" y="-140" type="line"/>
      <point x="221" y="-140" type="line"/>
      <point x="305" y="-56" type="line"/>
      <point x="305" y="560" type="line"/>
      <point x="125" y="560" type="line"/>
      <point x="35" y="480" type="line"/>
      <point x="35" y="130" type="line"/>
      <point x="115" y="50" type="line"/>
      <point x="215" y="50" type="line"/>
      <point x="215" y="-60" type="line"/>
      <point x="55" y="-60" type="line"/>
    </contour>
    <contour>
      <point x="125" y="480" type="line"/>
      <point x="215" y="480" type="line"/>
      <point x="215" y="130" type="line"/>
      <point x="125" y="130" type="line"/>
    </contour>
  </outline>
</glyph>
<glyph name="h" format="2">
  <advance width="350"/>
  <unicode hex="0068"/>
  <anchor x="180" y="0" name="bottom"/>
  <anchor x="130" y="700" name="top"/>
  <outline>
    <contour>
      <point x="40" y="0" type="line"/>
      <point x="130" y="0" type="line"/>
      <point x="130" y="480" type="line"/>
      <point x="220" y="480" type="line"/>
      <point x="220" y="0" type="line"/>
      <point x="310" y="0" type="line"/>
      <point x="310" y="480" type="line"/>
      <point x="230" y="560" type="line"/>
      <point x="130" y="560" type="line"/>
      <point x="130" y="700" type="line"/>
      <point x="40" y="700" type="line"/>
    </contour>
  </outline>
</glyph>
<glyph name="i" format="2">
  <advance width="170"/>
  <unicode hex="0069"/>
  <anchor x="85" y="710" name="top"/>
  <anchor x="85" y="0" name="bottom"/>
  <outline>
    <contour>
      <point x="40" y="0" type="line"/>
      <point x="130" y="0" type="line"/>
      <point x="130" y="560" type="line"/>
      <point x="40" y="560" type="line"/>
    </contour>
    <contour>
      <point x="40" y="630" type="line"/>
      <point x="130" y="630" type="line"/>
      <point x="130" y="710" type="line"/>
      <point x="40" y="710" type="line"/>
    </contour>
  </outline>
</glyph>
<glyph name="j" format="2">
  <advance width="170"/>
  <unicode hex="006A"/>
  <anchor x="85" y="-140" name="bottom"/>
  <anchor x="85" y="710" name="top"/>
  <outline>
    <contour>
      <point x="40" y="-140" type="line"/>
      <point x="130" y="-140" type="line"/>
      <point x="130" y="560" type="line"/>
      <point x="40" y="560" type="line"/>
    </contour>
    <contour>
      <point x="40" y="630" type="line"/>
      <point x="130" y="630" type="line"/>
      <point x="130" y="710" type="line"/>
      <point x="40" y="710" type="line"/>
    </contour>
  </outline>
</glyph>
<glyph name="k" format="2">
  <advance width="330"/>
  <unicode hex="006B"/>
  <anchor x="180" y="0" name="bottom"/>
  <anchor x="130" y="700" name="top"/>
  <outline>
    <contour>
      <point x="40" y="0" type="line"/>
      <point x="130" y="0" type="line"/>
      <point x="130" y="251" type="line"/>
      <point x="160" y="251" type="line"/>
      <point x="218" y="0" type="line"/>
      <point x="310" y="0" type="line"/>
      <point x="235" y="302" type="line"/>
      <point x="304" y="560" type="line"/>
      <point x="214" y="560" type="line"/>
      <point x="157" y="331" type="line"/>
      <point x="130" y="331" type="line"/>
      <point x="130" y="700" type="line"/>
      <point x="40" y="700" type="line"/>
    </contour>
  </outline>
</glyph>
<glyph name="l" format="2">
  <advance width="170"/>
  <unicode hex="006C"/>
  <anchor x="85" y="0" name="bottom"/>
  <anchor x="85" y="700" name="top"/>
  <outline>
    <contour>
      <point x="40" y="0" type="line"/>
      <point x="130" y="0" type="line"/>
      <point x="130" y="700" type="line"/>
      <point x="40" y="700" type="line"/>
    </contour>
  </outline>
</glyph>
<glyph name="m" format="2">
  <advance width="520"/>
  <unicode hex="006D"/>
  <anchor x="260" y="0" name="bottom"/>
  <anchor x="260" y="560" name="top"/>
  <outline>
    <contour>
      <point x="40" y="560" type="line"/>
      <point x="40" y="0" type="line"/>
      <point x="130" y="0" type="line"/>
      <point x="130" y="480" type="line"/>
      <point x="215" y="480" type="line"/>
      <point x="215" y="0" type="line"/>
      <point x="305" y="0" type="line"/>
      <point x="305" y="480" type="line"/>
      <point x="390" y="480" type="line"/>
      <point x="390" y="0" type="line"/>
      <point x="480" y="0" type="line"/>
      <point x="480" y="480" type="line"/>
      <point x="400" y="560" type="line"/>
    </contour>
  </outline>
</glyph>
<glyph name="o" format="2">
  <advance width="340"/>
  <unicode hex="006F"/>
  <anchor x="170" y="0" name="bottom"/>
  <anchor x="170" y="560" name="top"/>
  <outline>
    <contour>
      <point x="35" y="80" type="line"/>
      <point x="115" y="0" type="line"/>
      <point x="225" y="0" type="line"/>
      <point x="305" y="80" type="line"/>
      <point x="305" y="480" type="line"/>
      <point x="225" y="560" type="line"/>
      <point x="115" y="560" type="line"/>
      <point x="35" y="480" type="line"/>
    </contour>
    <contour>
      <point x="125" y="80" type="line"/>
      <point x="125" y="480" type="line"/>
      <point x="215" y="480" type="line"/>
      <point x="215" y="80" type="line"/>
    </contour>
  </outline>
</glyph>
<glyph name="r" format="2">
  <advance width="240"/>
  <unicode hex="0072"/>
  <anchor x="90" y="0" name="bottom"/>
  <anchor x="130" y="560" name="top"/>
  <outline>
    <contour>
      <point x="40" y="0" type="line"/>
      <point x="130" y="0" type="line"/>
      <point x="130" y="478" type="line"/>
      <point x="220" y="478" type="line"/>
      <point x="220" y="560" type="line"/>
      <point x="120" y="560" type="line"/>
      <point x="40" y="480" type="line"/>
    </contour>
  </outline>
</glyph>
<glyph name="s" format="2">
  <advance width="280"/>
  <unicode hex="0073"/>
  <anchor x="140" y="0" name="bottom"/>
  <anchor x="140" y="560" name="top"/>
  <outline>
    <contour>
      <point x="35" y="0" type="line"/>
      <point x="168" y="0" type="line"/>
      <point x="245" y="77" type="line"/>
      <point x="245" y="325" type="line"/>
      <point x="125" y="325" type="line"/>
      <point x="125" y="480" type="line"/>
      <point x="245" y="480" type="line"/>
      <point x="245" y="560" type="line"/>
      <point x="115" y="560" type="line"/>
      <point x="35" y="480" type="line"/>
      <point x="35" y="245" type="line"/>
      <point x="155" y="245" type="line"/>
      <point x="155" y="80" type="line"/>
      <point x="35" y="80" type="line"/>
    </contour>
  </outline>
</glyph>
<glyph name="t" format="2">
  <advance width="250"/>
  <unicode hex="0074"/>
  <anchor x="140" y="0" name="bottom"/>
  <anchor x="130" y="700" name="top"/>
  <outline>
    <contour>
      <point x="40" y="650" type="line"/>
      <point x="40" y="80" type="line"/>
      <point x="120" y="0" type="line"/>
      <point x="230" y="0" type="line"/>
      <point x="230" y="80" type="line"/>
      <point x="130" y="80" type="line"/>
      <point x="130" y="460" type="line"/>
      <point x="230" y="460" type="line"/>
      <point x="230" y="540" type="line"/>
      <point x="130" y="540" type="line"/>
      <point x="130" y="700" type="line"/>
    </contour>
  </outline>
</glyph>
<glyph name="u" format="2">
  <advance width="350"/>
  <unicode hex="0075"/>
  <anchor x="175" y="0" name="bottom"/>
  <anchor x="250" y="-0" name="ogonek"/>
  <anchor x="175" y="560" name="top"/>
  <outline>
    <contour>
      <point x="310" y="560" type="line"/>
      <point x="220" y="560" type="line"/>
      <point x="220" y="80" type="line"/>
      <point x="130" y="80" type="line"/>
      <point x="130" y="560" type="line"/>
      <point x="40" y="560" type="line"/>
      <point x="40" y="80" type="line"/>
      <point x="120" y="0" type="line"/>
      <point x="310" y="0" type="line"/>
    </contour>
  </outline>
</glyph>
<glyph name="v" format="2">
  <advance width="350"/>
  <unicode hex="0076"/>
  <anchor x="175" y="0" name="bottom"/>
  <anchor x="175" y="560" name="top"/>
  <outline>
    <contour>
      <point x="92" y="0" type="line"/>
      <point x="258" y="0" type="line"/>
      <point x="330" y="560" type="line"/>
      <point x="240" y="560" type="line"/>
      <point x="192" y="80" type="line"/>
      <point x="158" y="80" type="line"/>
      <point x="110" y="560" type="line"/>
      <point x="20" y="560" type="line"/>
    </contour>
  </outline>
</glyph>
<glyph name="w" format="2">
  <advance width="520"/>
  <unicode hex="0077"/>
  <anchor x="260" y="0" name="bottom"/>
  <anchor x="260" y="560" name="top"/>
  <outline>
    <contour>
      <point x="64" y="0" type="line"/>
      <point x="224" y="0" type="line"/>
      <point x="255" y="348" type="line"/>
      <point x="296" y="0" type="line"/>
      <point x="456" y="0" type="line"/>
      <point x="495" y="560" type="line"/>
      <point x="406" y="560" type="line"/>
      <point x="379" y="80" type="line"/>
      <point x="355" y="80" type="line"/>
      <point x="317" y="450" type="line"/>
      <point x="203" y="450" type="line"/>
      <point x="165" y="80" type="line"/>
      <point x="141" y="80" type="line"/>
      <point x="114" y="560" type="line"/>
      <point x="25" y="560" type="line"/>
    </contour>
  </outline>
</glyph>
<glyph name="x" format="2">
  <advance width="320"/>
  <unicode hex="0078"/>
  <anchor x="160" y="560" name="top"/>
  <anchor x="160" y="0" name="bottom"/>
  <outline>
    <contour>
      <point x="13" y="0" type="line"/>
      <point x="102" y="0" type="line"/>
      <point x="149" y="250" type="line"/>
      <point x="171" y="250" type="line"/>
      <point x="218" y="0" type="line"/>
      <point x="307" y="0" type="line"/>
      <point x="247" y="298" type="line"/>
      <point x="299" y="560" type="line"/>
      <point x="211" y="560" type="line"/>
      <point x="169" y="330" type="line"/>
      <point x="151" y="330" type="line"/>
      <point x="109" y="560" type="line"/>
      <point x="21" y="560" type="line"/>
      <point x="73" y="298" type="line"/>
    </contour>
  </outline>
</glyph>
<glyph name="y" format="2">
  <advance width="350"/>
  <unicode hex="0079"/>
  <anchor x="245" y="-160" name="bottom"/>
  <anchor x="175" y="560" name="top"/>
  <outline>
    <contour>
      <point x="36" y="-160" type="line"/>
      <point x="239" y="-160" type="line"/>
      <point x="330" y="560" type="line"/>
      <point x="239" y="560" type="line"/>
      <point x="195" y="130" type="line"/>
      <point x="155" y="130" type="line"/>
      <point x="111" y="560" type="line"/>
      <point x="20" y="560" type="line"/>
      <point x="83" y="50" type="line"/>
      <point x="185" y="50" type="line"/>
      <point x="166" y="-80" type="line"/>
      <point x="36" y="-80" type="line"/>
    </contour>
  </outline>
</glyph>
<glyph name="z" format="2">
  <advance width="250"/>
  <unicode hex="007A"/>
  <anchor x="125" y="0" name="bottom"/>
  <anchor x="125" y="560" name="top"/>
  <outline>
    <contour>
      <point x="20" y="0" type="line"/>
      <point x="230" y="0" type="line"/>
      <point x="230" y="80" type="line"/>
      <point x="112" y="80" type="line"/>
      <point x="230" y="500" type="line"/>
      <point x="230" y="560" type="line"/>
      <point x="20" y="560" type="line"/>
      <point x="20" y="480" type="line"/>
      <point x="138" y="480" type="line"/>
      <point x="20" y="60" type="line"/>
    </contour>
  </outline>
</glyph>
<glyph name="braceleft" format="2">
  <advance width="230"/>
  <unicode hex="007B"/>
  <outline>
    <contour>
      <point x="70" y="-60" type="line"/>
      <point x="150" y="-140" type="line"/>
      <point x="220" y="-140" type="line"/>
      <point x="220" y="-60" type="line"/>
      <point x="160" y="-60" type="line"/>
      <point x="160" y="245" type="line"/>
      <point x="100" y="305" type="line"/>
      <point x="160" y="365" type="line"/>
      <point x="160" y="670" type="line"/>
      <point x="220" y="670" type="line"/>
      <point x="220" y="750" type="line"/>
      <point x="150" y="750" type="line"/>
      <point x="70" y="670" type="line"/>
      <point x="70" y="345" type="line"/>
      <point x="20" y="345" type="line"/>
      <point x="20" y="265" type="line"/>
      <point x="70" y="265" type="line"/>
    </contour>
  </outline>
</glyph>
<glyph name="asciitilde" format="2">
  <advance width="300"/>
  <unicode hex="007E"/>
  <outline>
    <contour>
      <point x="30" y="242" type="line"/>
      <point x="86" y="315" type="line"/>
      <point x="220" y="240" type="line"/>
      <point x="290" y="323" type="line"/>
      <point x="270" y="408" type="line"/>
      <point x="214" y="335" type="line"/>
      <point x="80" y="410" type="line"/>
      <point x="10" y="327" type="line"/>
    </contour>
  </outline>
</glyph>
<glyph name="cent" format="2">
  <advance width="290"/>
  <unicode hex="00A2"/>
  <outline>
    <contour>
      <point x="35" y="150" type="line"/>
      <point x="115" y="70" type="line"/>
      <point x="139" y="70" type="line"/>
      <point x="139" y="-40" type="line"/>
      <point x="221" y="-40" type="line"/>
      <point x="221" y="70" type="line"/>
      <point x="270" y="70" type="line"/>
      <point x="270" y="150" type="line"/>
      <point x="125" y="150" type="line"/>
      <point x="125" y="550" type="line"/>
      <point x="270" y="550" type="line"/>
      <point x="270" y="630" type="line"/>
      <point x="221" y="630" type="line"/>
      <point x="221" y="740" type="line"/>
      <point x="139" y="740" type="line"/>
      <point x="139" y="630" type="line"/>
      <point x="115" y="630" type="line"/>
      <point x="35" y="550" type="line"/>
    </contour>
  </outline>
</glyph>
<glyph name="sterling" format="2">
  <advance width="350"/>
  <unicode hex="00A3"/>
  <outline>
    <contour>
      <point x="250" y="300" type="line"/>
      <point x="250" y="380" type="line"/>
      <point x="170" y="380" type="line"/>
      <point x="170" y="620" type="line"/>
      <point x="236" y="620" type="line"/>
      <point x="236" y="490" type="line"/>
      <point x="320" y="490" type="line"/>
      <point x="320" y="700" type="line"/>
      <point x="160" y="700" type="line"/>
      <point x="80" y="620" type="line"/>
      <point x="80" y="380" type="line"/>
      <point x="30" y="380" type="line"/>
      <point x="30" y="300" type="line"/>
      <point x="80" y="300" type="line"/>
      <point x="80" y="80" type="line"/>
      <point x="20" y="80" type="line"/>
      <point x="20" y="0" type="line"/>
      <point x="330" y="0" type="line"/>
      <point x="330" y="80" type="line"/>
      <point x="170" y="80" type="line"/>
      <point x="170" y="300" type="line"/>
    </contour>
  </outline>
</glyph>
<glyph name="currency" format="2">
  <advance width="350"/>
  <unicode hex="00A4"/>
  <outline>
    <contour>
      <point x="20" y="240" type="line"/>
      <point x="88" y="172" type="line"/>
      <point x="30" y="0" type="line"/>
      <point x="121" y="0" type="line"/>
      <point x="165" y="160" type="line"/>
      <point x="185" y="160" type="line"/>
      <point x="229" y="0" type="line"/>
      <point x="320" y="0" type="line"/>
      <point x="262" y="172" type="line"/>
      <point x="330" y="240" type="line"/>
      <point x="330" y="460" type="line"/>
      <point x="262" y="528" type="line"/>
      <point x="320" y="700" type="line"/>
      <point x="229" y="700" type="line"/>
      <point x="185" y="540" type="line"/>
      <point x="165" y="540" type="line"/>
      <point x="121" y="700" type="line"/>
      <point x="30" y="700" type="line"/>
      <point x="88" y="528" type="line"/>
      <point x="20" y="460" type="line"/>
    </contour>
    <contour>
      <point x="110" y="230" type="line"/>
      <point x="110" y="470" type="line"/>
      <point x="240" y="470" type="line"/>
      <point x="240" y="230" type="line"/>
    </contour>
  </outline>
</glyph>
<glyph name="yen" format="2">
  <advance width="360"/>
  <unicode hex="00A5"/>
  <outline>
    <contour>
      <point x="135" y="0" type="line"/>
      <point x="225" y="0" type="line"/>
      <point x="225" y="120" type="line"/>
      <point x="350" y="120" type="line"/>
      <point x="350" y="200" type="line"/>
      <point x="225" y="200" type="line"/>
      <point x="225" y="250" type="line"/>
      <point x="350" y="250" type="line"/>
      <point x="350" y="330" type="line"/>
      <point x="286" y="330" type="line"/>
      <point x="345" y="700" type="line"/>
      <point x="250" y="700" type="line"/>
      <point x="199" y="330" type="line"/>
      <point x="161" y="330" type="line"/>
      <point x="110" y="700" type="line"/>
      <point x="15" y="700" type="line"/>
      <point x="74" y="330" type="line"/>
      <point x="10" y="330" type="line"/>
      <point x="10" y="250" type="line"/>
      <point x="135" y="250" type="line"/>
      <point x="135" y="200" type="line"/>
      <point x="10" y="200" type="line"/>
      <point x="10" y="120" type="line"/>
      <point x="135" y="120" type="line"/>
    </contour>
  </outline>
</glyph>
<glyph name="brokenbar" format="2">
  <advance width="210"/>
  <unicode hex="00A6"/>
  <outline>
    <contour>
      <point x="60" y="-200" type="line"/>
      <point x="150" y="-200" type="line"/>
      <point x="150" y="250" type="line"/>
      <point x="60" y="250" type="line"/>
    </contour>
    <contour>
      <point x="60" y="350" type="line"/>
      <point x="150" y="350" type="line"/>
      <point x="150" y="800" type="line"/>
      <point x="60" y="800" type="line"/>
    </contour>
  </outline>
</glyph>
<glyph name="section" format="2">
  <advance width="370"/>
  <unicode hex="00A7"/>
  <outline>
    <contour>
      <point x="60" y="-95" type="line"/>
      <point x="225" y="-95" type="line"/>
      <point x="315" y="-5" type="line"/>
      <point x="315" y="415" type="line"/>
      <point x="245" y="485" type="line"/>
      <point x="145" y="485" type="line"/>
      <point x="145" y="620" type="line"/>
      <point x="305" y="620" type="line"/>
      <point x="305" y="700" type="line"/>
      <point x="145" y="700" type="line"/>
      <point x="55" y="610" type="line"/>
      <point x="55" y="190" type="line"/>
      <point x="125" y="120" type="line"/>
      <point x="225" y="120" type="line"/>
      <point x="225" y="-15" type="line"/>
      <point x="60" y="-15" type="line"/>
    </contour>
    <contour>
      <point x="145" y="200" type="line"/>
      <point x="145" y="405" type="line"/>
      <point x="225" y="405" type="line"/>
      <point x="225" y="200" type="line"/>
    </contour>
  </outline>
</glyph>
<glyph name="dieresis" format="2">
  <advance width="290"/>
  <unicode hex="00A8"/>
  <outline>
    <contour>
      <point x="40" y="630" type="line"/>
      <point x="120" y="630" type="line"/>
      <point x="120" y="710" type="line"/>
      <point x="40" y="710" type="line"/>
    </contour>
    <contour>
      <point x="170" y="630" type="line"/>
      <point x="250" y="630" type="line"/>
      <point x="250" y="710" type="line"/>
      <point x="170" y="710" type="line"/>
    </contour>
  </outline>
</glyph>
<glyph name="copyright" format="2">
  <advance width="600"/>
  <unicode hex="00A9"/>
  <outline>
    <contour>
      <point x="190" y="140" type="line"/>
      <point x="280" y="50" type="line"/>
      <point x="410" y="50" type="line"/>
      <point x="410" y="130" type="line"/>
      <point x="280" y="130" type="line"/>
      <point x="280" y="510" type="line"/>
      <point x="410" y="510" type="line"/>
      <point x="410" y="590" type="line"/>
      <point x="280" y="590" type="line"/>
      <point x="190" y="500" type="line"/>
    </contour>
    <contour>
      <point x="50" y="-20" type="line"/>
      <point x="130" y="-100" type="line"/>
      <point x="470" y="-100" type="line"/>
      <point x="550" y="-20" type="line"/>
      <point x="550" y="660" type="line"/>
      <point x="470" y="740" type="line"/>
      <point x="130" y="740" type="line"/>
      <point x="50" y="660" type="line"/>
    </contour>
    <contour>
      <point x="140" y="660" type="line"/>
      <point x="460" y="660" type="line"/>
      <point x="460" y="-20" type="line"/>
      <point x="140" y="-20" type="line"/>
    </contour>
  </outline>
</glyph>
<glyph name="ordfeminine" format="2">
  <advance width="320"/>
  <unicode hex="00AA"/>
  <outline>
    <contour>
      <point x="30" y="330" type="line"/>
      <point x="110" y="250" type="line"/>
      <point x="280" y="250" type="line"/>
      <point x="280" y="620" type="line"/>
      <point x="200" y="700" type="line"/>
      <point x="50" y="700" type="line"/>
      <point x="50" y="624" type="line"/>
      <point x="194" y="624" type="line"/>
      <point x="194" y="525" type="line"/>
      <point x="30" y="515" type="line"/>
    </contour>
    <contour>
      <point x="116" y="439" type="line"/>
      <point x="194" y="459" type="line"/>
      <point x="194" y="326" type="line"/>
      <point x="116" y="326" type="line"/>
    </contour>
  </outline>
</glyph>
<glyph name="guillemotleft" format="2">
  <advance width="400"/>
  <unicode hex="00AB"/>
  <outline>
    <contour>
      <point x="25" y="265" type="line"/>
      <point x="135" y="0" type="line"/>
      <point x="225" y="0" type="line"/>
      <point x="113" y="280" type="line"/>
      <point x="225" y="560" type="line"/>
      <point x="135" y="560" type="line"/>
      <point x="25" y="295" type="line"/>
    </contour>
    <contour>
      <point x="175" y="265" type="line"/>
      <point x="285" y="0" type="line"/>
      <point x="375" y="0" type="line"/>
      <point x="263" y="280" type="line"/>
      <point x="375" y="560" type="line"/>
      <point x="285" y="560" type="line"/>
      <point x="175" y="295" type="line"/>
    </contour>
  </outline>
</glyph>
<glyph name="registered" format="2">
  <advance width="400"/>
  <unicode hex="00AE"/>
  <outline>
    <contour>
      <point x="200" y="370" type="curve" smooth="yes"/>
      <point x="305" y="370"/>
      <point x="380" y="442"/>
      <point x="380" y="540" type="curve" smooth="yes"/>
      <point x="380" y="638"/>
      <point x="305" y="710"/>
      <point x="200" y="710" type="curve" smooth="yes"/>
      <point x="95" y="710"/>
      <point x="20" y="638"/>
      <point x="20" y="540" type="curve" smooth="yes"/>
      <point x="20" y="442"/>
      <point x="95" y="370"/>
    </contour>
    <contour>
      <point x="62" y="540" type="curve" smooth="yes"/>
      <point x="62" y="620"/>
      <point x="116" y="672"/>
      <point x="200" y="672" type="curve" smooth="yes"/>
      <point x="284" y="672"/>
      <point x="338" y="620"/>
      <point x="338" y="540" type="curve" smooth="yes"/>
      <point x="338" y="460"/>
      <point x="284" y="408"/>
      <point x="200" y="408" type="curve" smooth="yes"/>
      <point x="116" y="408"/>
      <point x="62" y="460"/>
    </contour>
    <contour>
      <point x="130" y="452" type="line"/>
      <point x="172" y="452" type="line"/>
      <point x="172" y="508" type="line"/>
      <point x="205" y="508" type="line"/>
      <point x="236" y="452" type="line"/>
      <point x="289" y="452" type="line"/>
      <point x="244" y="512" type="line"/>
      <point x="264" y="520"/>
      <point x="281" y="540"/>
      <point x="281" y="569" type="curve" smooth="yes"/>
      <point x="281" y="606"/>
      <point x="252" y="630"/>
      <point x="205" y="630" type="curve" smooth="yes"/>
      <point x="130" y="630" type="line"/>
    </contour>
    <contour>
      <point x="172" y="540" type="line"/>
      <point x="172" y="596" type="line"/>
      <point x="205" y="596" type="line" smooth="yes"/>
      <point x="228" y="596"/>
      <point x="238" y="586"/>
      <point x="238" y="567" type="curve" smooth="yes"/>
      <point x="238" y="548"/>
      <point x="228" y="540"/>
      <point x="205" y="540" type="curve" smooth="yes"/>
    </contour>
  </outline>
</glyph>
<glyph name="macron" format="2">
  <advance width="280"/>
  <unicode hex="00AF"/>
  <outline>
    <contour>
      <point x="40" y="654" type="line"/>
      <point x="240" y="654" type="line"/>
      <point x="240" y="730" type="line"/>
      <point x="40" y="730" type="line"/>
    </contour>
  </outline>
</glyph>
<glyph name="twosuperior" format="2">
  <advance width="300"/>
  <unicode hex="00B2"/>
  <outline>
    <contour>
      <point x="260" y="372" type="line"/>
      <point x="124" y="372" type="line"/>
      <point x="124" y="445" type="line"/>
      <point x="260" y="495" type="line"/>
      <point x="260" y="620" type="line"/>
      <point x="180" y="700" type="line"/>
      <point x="44" y="700" type="line"/>
      <point x="44" y="628" type="line"/>
      <point x="176" y="628" type="line"/>
      <point x="176" y="542" type="line"/>
      <point x="40" y="492" type="line"/>
      <point x="40" y="300" type="line"/>
      <point x="260" y="300" type="line"/>
    </contour>
  </outline>
</glyph>
<glyph name="threesuperior" format="2">
  <advance width="280"/>
  <unicode hex="00B3"/>
  <outline>
    <contour>
      <point x="193" y="300" type="line"/>
      <point x="250" y="346" type="line"/>
      <point x="250" y="475" type="line"/>
      <point x="195" y="509" type="line"/>
      <point x="236" y="534" type="line"/>
      <point x="236" y="654" type="line"/>
      <point x="178" y="700" type="line"/>
      <point x="27" y="700" type="line"/>
      <point x="27" y="630" type="line"/>
      <point x="158" y="630" type="line"/>
      <point x="158" y="541" type="line"/>
      <point x="63" y="541" type="line"/>
      <point x="63" y="471" type="line"/>
      <point x="172" y="471" type="line"/>
      <point x="172" y="370" type="line"/>
      <point x="20" y="370" type="line"/>
      <point x="20" y="300" type="line"/>
    </contour>
  </outline>
</glyph>
<glyph name="paragraph" format="2">
  <advance width="460"/>
  <unicode hex="00B6"/>
  <outline>
    <contour>
      <point x="420" y="-140" type="line"/>
      <point x="420" y="700" type="line"/>
      <point x="110" y="700" type="line"/>
      <point x="30" y="620" type="line"/>
      <point x="30" y="230" type="line"/>
      <point x="110" y="150" type="line"/>
      <point x="180" y="150" type="line"/>
      <point x="180" y="-140" type="line"/>
      <point x="270" y="-140" type="line"/>
      <point x="270" y="620" type="line"/>
      <point x="330" y="620" type="line"/>
      <point x="330" y="-140" type="line"/>
    </contour>
  </outline>
</glyph>
<glyph name="onesuperior" format="2">
  <advance width="250"/>
  <unicode hex="00B9"/>
  <outline>
    <contour>
      <point x="25" y="300" type="line"/>
      <point x="128" y="306" type="line"/>
      <point x="225" y="300" type="line"/>
      <point x="225" y="368" type="line"/>
      <point x="171" y="376" type="line"/>
      <point x="171" y="700" type="line"/>
      <point x="25" y="660" type="line"/>
      <point x="25" y="595" type="line"/>
      <point x="89" y="604" type="line"/>
      <point x="89" y="376" type="line"/>
      <point x="25" y="368" type="line"/>
    </contour>
  </outline>
</glyph>
<glyph name="ordmasculine" format="2">
  <advance width="340"/>
  <unicode hex="00BA"/>
  <outline>
    <contour>
      <point x="35" y="330" type="line"/>
      <point x="115" y="250" type="line"/>
      <point x="225" y="250" type="line"/>
      <point x="305" y="330" type="line"/>
      <point x="305" y="620" type="line"/>
      <point x="225" y="700" type="line"/>
      <point x="115" y="700" type="line"/>
      <point x="35" y="620" type="line"/>
    </contour>
    <contour>
      <point x="121" y="326" type="line"/>
      <point x="121" y="624" type="line"/>
      <point x="219" y="624" type="line"/>
      <point x="219" y="326" type="line"/>
    </contour>
  </outline>
</glyph>
<glyph name="AE" format="2">
  <advance width="410"/>
  <unicode hex="00C6"/>
  <anchor x="205" y="0" name="bottom"/>
  <anchor x="229" y="700" name="top"/>
  <outline>
    <contour>
      <point x="10" y="0" type="line"/>
      <point x="99" y="0" type="line"/>
      <point x="118" y="180" type="line"/>
      <point x="200" y="180" type="line"/>
      <point x="200" y="0" type="line"/>
      <point x="390" y="0" type="line"/>
      <point x="390" y="80" type="line"/>
      <point x="290" y="80" type="line"/>
      <point x="290" y="320" type="line"/>
      <point x="360" y="320" type="line"/>
      <point x="360" y="400" type="line"/>
      <point x="290" y="400" type="line"/>
      <point x="290" y="620" type="line"/>
      <point x="380" y="620" type="line"/>
      <point x="380" y="700" type="line"/>
      <point x="92" y="700" type="line"/>
    </contour>
    <contour>
      <point x="127" y="258" type="line"/>
      <point x="166" y="622" type="line"/>
      <point x="200" y="622" type="line"/>
      <point x="200" y="258" type="line"/>
    </contour>
  </outline>
</glyph>
<glyph name="Eth" format="2">
  <advance width="370"/>
  <unicode hex="00D0"/>
  <outline>
    <component base="D" xOffset="10"/>
    <contour>
      <point x="10" y="310" type="line"/>
      <point x="190" y="310" type="line"/>
      <point x="190" y="390" type="line"/>
      <point x="10" y="390" type="line"/>
    </contour>
  </outline>
</glyph>
<glyph name="multiply" format="2">
  <advance width="600"/>
  <unicode hex="00D7"/>
  <outline>
    <contour>
      <point x="60" y="136" type="line"/>
      <point x="116" y="80" type="line"/>
      <point x="300" y="264" type="line"/>
      <point x="484" y="80" type="line"/>
      <point x="540" y="136" type="line"/>
      <point x="356" y="320" type="line"/>
      <point x="540" y="504" type="line"/>
      <point x="484" y="560" type="line"/>
      <point x="300" y="376" type="line"/>
      <point x="116" y="560" type="line"/>
      <point x="60" y="504" type="line"/>
      <point x="244" y="320" type="line"/>
    </contour>
  </outline>
</glyph>
<glyph name="Oslash" format="2">
  <advance width="360"/>
  <unicode hex="00D8"/>
  <anchor x="180" y="0" name="bottom"/>
  <anchor x="180" y="700" name="top"/>
  <outline>
    <contour>
      <point x="40" y="90" type="line"/>
      <point x="130" y="0" type="line"/>
      <point x="240" y="0" type="line"/>
      <point x="320" y="80" type="line"/>
      <point x="320" y="610" type="line"/>
      <point x="230" y="700" type="line"/>
      <point x="120" y="700" type="line"/>
      <point x="40" y="620" type="line"/>
    </contour>
    <contour>
      <point x="128" y="622" type="line"/>
      <point x="232" y="622" type="line"/>
      <point x="232" y="78" type="line"/>
      <point x="128" y="78" type="line"/>
    </contour>
    <contour>
      <point x="45" y="0" type="line"/>
      <point x="90" y="0" type="line"/>
      <point x="315" y="700" type="line"/>
      <point x="270" y="700" type="line"/>
    </contour>
  </outline>
</glyph>
<glyph name="Thorn" format="2">
  <advance width="350"/>
  <unicode hex="00DE"/>
  <outline>
    <contour>
      <point x="40" y="0" type="line"/>
      <point x="130" y="0" type="line"/>
      <point x="130" y="90" type="line"/>
      <point x="240" y="90" type="line"/>
      <point x="320" y="170" type="line"/>
      <point x="320" y="540" type="line"/>
      <point x="240" y="620" type="line"/>
      <point x="130" y="620" type="line"/>
      <point x="130" y="700" type="line"/>
      <point x="40" y="700" type="line"/>
    </contour>
    <contour>
      <point x="130" y="170" type="line"/>
      <point x="130" y="540" type="line"/>
      <point x="230" y="540" type="line"/>
      <point x="230" y="170" type="line"/>
    </contour>
  </outline>
</glyph>
<glyph name="germandbls" format="2">
  <advance width="360"/>
  <unicode hex="00DF"/>
  <outline>
    <contour>
      <point x="305" y="620" type="line"/>
      <point x="225" y="700" type="line"/>
      <point x="120" y="700" type="line"/>
      <point x="40" y="620" type="line"/>
      <point x="40" y="0" type="line"/>
      <point x="130" y="0" type="line"/>
      <point x="130" y="620" type="line"/>
      <point x="215" y="620" type="line"/>
      <point x="215" y="415" type="line"/>
      <point x="180" y="415" type="line"/>
      <point x="180" y="335" type="line"/>
      <point x="240" y="335" type="line"/>
      <point x="240" y="80" type="line"/>
      <point x="180" y="80" type="line"/>
      <point x="180" y="0" type="line"/>
      <point x="250" y="0" type="line"/>
      <point x="330" y="80" type="line"/>
      <point x="330" y="326" type="line"/>
      <point x="253" y="386" type="line"/>
      <point x="305" y="439" type="line"/>
    </contour>
  </outline>
</glyph>
<glyph name="ae" format="2">
  <advance width="495"/>
  <unicode hex="00E6"/>
  <anchor x="247.5" y="0" name="bottom"/>
  <anchor x="247.5" y="560" name="top"/>
  <outline>
    <contour>
      <point x="30" y="80" type="line"/>
      <point x="110" y="0" type="line"/>
      <point x="440" y="0" type="line"/>
      <point x="440" y="80" type="line"/>
      <point x="290" y="80" type="line"/>
      <point x="290" y="210" type="line"/>
      <point x="460" y="210" type="line"/>
      <point x="460" y="560" type="line"/>
      <point x="300" y="560" type="line"/>
      <point x="245" y="505" type="line"/>
      <point x="190" y="560" type="line"/>
      <point x="50" y="560" type="line"/>
      <point x="50" y="480" type="line"/>
      <point x="200" y="480" type="line"/>
      <point x="200" y="370" type="line"/>
      <point x="30" y="360" type="line"/>
    </contour>
    <contour>
      <point x="290" y="280" type="line"/>
      <point x="290" y="480" type="line"/>
      <point x="373" y="480" type="line"/>
      <point x="373" y="286" type="line"/>
    </contour>
    <contour>
      <point x="120" y="286" type="line"/>
      <point x="200" y="300" type="line"/>
      <point x="200" y="80" type="line"/>
      <point x="120" y="80" type="line"/>
    </contour>
  </outline>
</glyph>
<glyph name="eth" format="2">
  <advance width="340"/>
  <unicode hex="00F0"/>
  <outline>
    <contour>
      <point x="115" y="0" type="line"/>
      <point x="35" y="80" type="line"/>
      <point x="35" y="422" type="line"/>
      <point x="196" y="495" type="line"/>
      <point x="55" y="700" type="line"/>
      <point x="153" y="700" type="line"/>
      <point x="305" y="472" type="line"/>
      <point x="305" y="80" type="line"/>
      <point x="225" y="0" type="line"/>
    </contour>
    <contour>
      <point x="215" y="422" type="line"/>
      <point x="125" y="376" type="line"/>
      <point x="125" y="80" type="line"/>
      <point x="215" y="80" type="line"/>
    </contour>
    <contour>
      <point x="55" y="505" type="line"/>
      <point x="55" y="582" type="line"/>
      <point x="295" y="700" type="line"/>
      <point x="295" y="623" type="line"/>
    </contour>
  </outline>
</glyph>
<glyph name="divide" format="2">
  <advance width="600"/>
  <unicode hex="00F7"/>
  <outline>
    <component base="minus"/>
    <contour>
      <point x="255" y="70" type="line"/>
      <point x="345" y="70" type="line"/>
      <point x="345" y="170" type="line"/>
      <point x="255" y="170" type="line"/>
    </contour>
    <contour>
      <point x="255" y="470" type="line"/>
      <point x="345" y="470" type="line"/>
      <point x="345" y="570" type="line"/>
      <point x="255" y="570" type="line"/>
    </contour>
  </outline>
</glyph>
<glyph name="oslash" format="2">
  <advance width="340"/>
  <unicode hex="00F8"/>
  <anchor x="170" y="0" name="bottom"/>
  <anchor x="170" y="560" name="top"/>
  <outline>
    <contour>
      <point x="35" y="80" type="line"/>
      <point x="115" y="0" type="line"/>
      <point x="225" y="0" type="line"/>
      <point x="305" y="80" type="line"/>
      <point x="305" y="480" type="line"/>
      <point x="225" y="560" type="line"/>
      <point x="115" y="560" type="line"/>
      <point x="35" y="480" type="line"/>
    </contour>
    <contour>
      <point x="121" y="78" type="line"/>
      <point x="121" y="482" type="line"/>
      <point x="219" y="482" type="line"/>
      <point x="219" y="78" type="line"/>
    </contour>
    <contour>
      <point x="35" y="0" type="line"/>
      <point x="80" y="0" type="line"/>
      <point x="305" y="560" type="line"/>
      <point x="260" y="560" type="line"/>
    </contour>
  </outline>
</glyph>
<glyph name="thorn" format="2">
  <advance width="345"/>
  <unicode hex="00FE"/>
  <anchor x="150" y="-140" name="bottom"/>
  <anchor x="150" y="700" name="top"/>
  <outline>
    <contour>
      <point x="40" y="-140" type="line"/>
      <point x="130" y="-140" type="line"/>
      <point x="130" y="0" type="line"/>
      <point x="220" y="0" type="line"/>
      <point x="310" y="90" type="line"/>
      <point x="310" y="470" type="line"/>
      <point x="220" y="560" type="line"/>
      <point x="130" y="560" type="line"/>
      <point x="130" y="700" type="line"/>
      <point x="40" y="700" type="line"/>
    </contour>
    <contour>
      <point x="130" y="80" type="line"/>
      <point x="130" y="480" type="line"/>
      <point x="220" y="480" type="line"/>
      <point x="220" y="80" type="line"/>
    </contour>
  </outline>
</glyph>
<glyph name="Dcroat" format="2">
  <advance width="370"/>
  <unicode hex="0110"/>
  <outline>
    <contour>
      <point x="140" y="80" type="line"/>
      <point x="140" y="620" type="line"/>
      <point x="240" y="620" type="line"/>
      <point x="240" y="80" type="line"/>
    </contour>
    <contour>
      <point x="50" y="0" type="line"/>
      <point x="250" y="0" type="line"/>
      <point x="330" y="80" type="line"/>
      <point x="330" y="620" type="line"/>
      <point x="250" y="700" type="line"/>
      <point x="50" y="700" type="line"/>
    </contour>
    <contour>
      <point x="10" y="310" type="line"/>
      <point x="190" y="310" type="line"/>
      <point x="190" y="390" type="line"/>
      <point x="10" y="390" type="line"/>
    </contour>
  </outline>
</glyph>
<glyph name="dcroat" format="2">
  <advance width="345"/>
  <unicode hex="0111"/>
  <anchor x="105" y="0" name="bottom"/>
  <anchor x="105" y="700" name="top"/>
  <outline>
    <contour>
      <point x="305" y="700" type="line"/>
      <point x="215" y="700" type="line"/>
      <point x="215" y="460" type="line"/>
      <point x="115" y="460" type="line"/>
      <point x="35" y="380" type="line"/>
      <point x="35" y="80" type="line"/>
      <point x="115" y="0" type="line"/>
      <point x="305" y="0" type="line"/>
    </contour>
    <contour>
      <point x="125" y="80" type="line"/>
      <point x="125" y="380" type="line"/>
      <point x="215" y="380" type="line"/>
      <point x="215" y="80" type="line"/>
    </contour>
    <contour>
      <point x="100" y="544" type="line"/>
      <point x="340" y="544" type="line"/>
      <point x="340" y="620" type="line"/>
      <point x="100" y="620" type="line"/>
    </contour>
  </outline>
</glyph>
<glyph name="Hbar" format="2">
  <advance width="360"/>
  <unicode hex="0126"/>
  <anchor x="180" y="0" name="bottom"/>
  <anchor x="180" y="700" name="top"/>
  <outline>
    <component base="H"/>
    <contour>
      <point x="5" y="514" type="line"/>
      <point x="355" y="514" type="line"/>
      <point x="355" y="590" type="line"/>
      <point x="5" y="590" type="line"/>
    </contour>
  </outline>
</glyph>
<glyph name="hbar" format="2">
  <advance width="350"/>
  <unicode hex="0127"/>
  <anchor x="180" y="0" name="bottom"/>
  <anchor x="130" y="700" name="top"/>
  <outline>
    <contour>
      <point x="40" y="0" type="line"/>
      <point x="130" y="0" type="line"/>
      <point x="130" y="380" type="line"/>
      <point x="220" y="380" type="line"/>
      <point x="220" y="0" type="line"/>
      <point x="310" y="0" type="line"/>
      <point x="310" y="380" type="line"/>
      <point x="230" y="460" type="line"/>
      <point x="130" y="460" type="line"/>
      <point x="130" y="700" type="line"/>
      <point x="40" y="700" type="line"/>
    </contour>
    <contour>
      <point x="5" y="544" type="line"/>
      <point x="245" y="544" type="line"/>
      <point x="245" y="620" type="line"/>
      <point x="5" y="620" type="line"/>
    </contour>
  </outline>
</glyph>
<glyph name="itilde" format="2">
  <advance width="170"/>
  <unicode hex="0129"/>
  <anchor x="85" y="0" name="bottom"/>
  <anchor x="85" y="730" name="top"/>
  <outline>
    <contour>
      <point x="40" y="0" type="line"/>
      <point x="130" y="0" type="line"/>
      <point x="130" y="560" type="line"/>
      <point x="40" y="560" type="line"/>
    </contour>
    <contour>
      <point x="-25" y="605" type="line"/>
      <point x="41" y="655" type="line"/>
      <point x="125" y="605" type="line"/>
      <point x="195" y="658" type="line"/>
      <point x="195" y="735" type="line"/>
      <point x="129" y="685" type="line"/>
      <point x="45" y="735" type="line"/>
      <point x="-25" y="682" type="line"/>
    </contour>
  </outline>
</glyph>
<glyph name="kgreenlandic" format="2">
  <advance width="330"/>
  <unicode hex="0138"/>
  <anchor x="170" y="0" name="bottom"/>
  <anchor x="170" y="560" name="top"/>
  <outline>
    <contour>
      <point x="40" y="0" type="line"/>
      <point x="130" y="0" type="line"/>
      <point x="130" y="251" type="line"/>
      <point x="160" y="251" type="line"/>
      <point x="218" y="0" type="line"/>
      <point x="310" y="0" type="line"/>
      <point x="235" y="302" type="line"/>
      <point x="304" y="560" type="line"/>
      <point x="214" y="560" type="line"/>
      <point x="157" y="331" type="line"/>
      <point x="130" y="331" type="line"/>
      <point x="130" y="560" type="line"/>
      <point x="40" y="560" type="line"/>
    </contour>
  </outline>
</glyph>
<glyph name="Lslash" format="2">
  <advance width="310"/>
  <unicode hex="0141"/>
  <anchor x="169" y="0" name="bottom"/>
  <anchor x="153" y="700" name="top"/>
  <outline>
    <component base="L"/>
    <contour>
      <point x="105" y="335" type="line"/>
      <point x="255" y="445" type="line"/>
      <point x="255" y="541" type="line"/>
      <point x="105" y="431" type="line"/>
    </contour>
  </outline>
</glyph>
<glyph name="lslash" format="2">
  <advance width="210"/>
  <unicode hex="0142"/>
  <anchor x="105" y="700" name="top"/>
  <anchor x="105" y="0" name="bottom"/>
  <outline>
    <component base="l" xOffset="20"/>
    <contour>
      <point x="5" y="250" type="line"/>
      <point x="205" y="400" type="line"/>
      <point x="205" y="500" type="line"/>
      <point x="5" y="350" type="line"/>
    </contour>
  </outline>
</glyph>
<glyph name="Eng" format="2">
  <advance width="380"/>
  <unicode hex="014A"/>
  <anchor x="190" y="700" name="top"/>
  <anchor x="190" y="-140" name="bottom"/>
  <outline>
    <contour>
      <point x="40" y="0" type="line"/>
      <point x="125" y="0" type="line"/>
      <point x="125" y="475" type="line"/>
      <point x="255" y="24" type="line"/>
      <point x="255" y="-60" type="line"/>
      <point x="150" y="-60" type="line"/>
      <point x="150" y="-140" type="line"/>
      <point x="256" y="-140" type="line"/>
      <point x="340" y="-56" type="line"/>
      <point x="340" y="700" type="line"/>
      <point x="255" y="700" type="line"/>
      <point x="255" y="225" type="line"/>
      <point x="118" y="700" type="line"/>
      <point x="40" y="700" type="line"/>
    </contour>
  </outline>
</glyph>
<glyph name="eng" format="2">
  <advance width="350"/>
  <unicode hex="014B"/>
  <anchor x="175" y="560" name="top"/>
  <anchor x="175" y="-160" name="bottom"/>
  <outline>
    <contour>
      <point x="40" y="0" type="line"/>
      <point x="130" y="0" type="line"/>
      <point x="130" y="480" type="line"/>
      <point x="220" y="480" type="line"/>
      <point x="220" y="-80" type="line"/>
      <point x="120" y="-80" type="line"/>
      <point x="120" y="-160" type="line"/>
      <point x="226" y="-160" type="line"/>
      <point x="310" y="-76" type="line"/>
      <point x="310" y="480" type="line"/>
      <point x="230" y="560" type="line"/>
      <point x="40" y="560" type="line"/>
    </contour>
  </outline>
</glyph>
<glyph name="OE" format="2">
  <advance width="435"/>
  <unicode hex="0152"/>
  <anchor x="217.5" y="0" name="bottom"/>
  <anchor x="217.5" y="700" name="top"/>
  <outline>
    <contour>
      <point x="40" y="80" type="line"/>
      <point x="120" y="0" type="line"/>
      <point x="420" y="0" type="line"/>
      <point x="420" y="80" type="line"/>
      <point x="320" y="80" type="line"/>
      <point x="320" y="320" type="line"/>
      <point x="390" y="320" type="line"/>
      <point x="390" y="400" type="line"/>
      <point x="320" y="400" type="line"/>
      <point x="320" y="620" type="line"/>
      <point x="410" y="620" type="line"/>
      <point x="410" y="700" type="line"/>
      <point x="120" y="700" type="line"/>
      <point x="40" y="620" type="line"/>
    </contour>
    <contour>
      <point x="130" y="620" type="line"/>
      <point x="230" y="620" type="line"/>
      <point x="230" y="80" type="line"/>
      <point x="130" y="80" type="line"/>
    </contour>
  </outline>
</glyph>
<glyph name="oe" format="2">
  <advance width="510"/>
  <unicode hex="0153"/>
  <anchor x="255" y="0" name="bottom"/>
  <anchor x="255" y="560" name="top"/>
  <outline>
    <contour>
      <point x="35" y="80" type="line"/>
      <point x="115" y="0" type="line"/>
      <point x="225" y="0" type="line"/>
      <point x="260" y="35" type="line"/>
      <point x="295" y="0" type="line"/>
      <point x="455" y="0" type="line"/>
      <point x="455" y="80" type="line"/>
      <point x="305" y="80" type="line"/>
      <point x="305" y="210" type="line"/>
      <point x="475" y="210" type="line"/>
      <point x="475" y="560" type="line"/>
      <point x="295" y="560" type="line"/>
      <point x="260" y="525" type="line"/>
      <point x="225" y="560" type="line"/>
      <point x="115" y="560" type="line"/>
      <point x="35" y="480" type="line"/>
    </contour>
    <contour>
      <point x="125" y="80" type="line"/>
      <point x="125" y="480" type="line"/>
      <point x="215" y="480" type="line"/>
      <point x="215" y="80" type="line"/>
    </contour>
    <contour>
      <point x="305" y="280" type="line"/>
      <point x="305" y="480" type="line"/>
      <point x="388" y="480" type="line"/>
      <point x="388" y="286" type="line"/>
    </contour>
  </outline>
</glyph>
<glyph name="tcaron" format="2">
  <advance width="250"/>
  <unicode hex="0165"/>
  <anchor x="140" y="0" name="bottom"/>
  <anchor x="130" y="700" name="top"/>
  <outline>
    <component base="t"/>
    <contour>
      <point x="174" y="570" type="line"/>
      <point x="230" y="570" type="line"/>
      <point x="230" y="700" type="line"/>
      <point x="174" y="700" type="line"/>
    </contour>
  </outline>
</glyph>
<glyph name="Tbar" format="2">
  <advance width="280"/>
  <unicode hex="0166"/>
  <anchor x="140" y="0" name="bottom"/>
  <anchor x="140" y="700" name="top"/>
  <outline>
    <component base="T"/>
    <contour>
      <point x="30" y="304" type="line"/>
      <point x="250" y="304" type="line"/>
      <point x="250" y="380" type="line"/>
      <point x="30" y="380" type="line"/>
    </contour>
  </outline>
</glyph>
<glyph name="tbar" format="2">
  <advance width="250"/>
  <unicode hex="0167"/>
  <anchor x="140" y="0" name="bottom"/>
  <anchor x="130" y="700" name="top"/>
  <outline>
    <contour>
      <point x="40" y="650" type="line"/>
      <point x="40" y="80" type="line"/>
      <point x="120" y="0" type="line"/>
      <point x="230" y="0" type="line"/>
      <point x="230" y="80" type="line"/>
      <point x="130" y="80" type="line"/>
      <point x="130" y="460" type="line"/>
      <point x="230" y="460" type="line"/>
      <point x="230" y="540" type="line"/>
      <point x="130" y="540" type="line"/>
      <point x="130" y="700" type="line"/>
    </contour>
    <contour>
      <point x="15" y="284" type="line"/>
      <point x="230" y="284" type="line"/>
      <point x="230" y="360" type="line"/>
      <point x="15" y="360" type="line"/>
    </contour>
  </outline>
</glyph>
<glyph name="longs" format="2">
  <advance width="240"/>
  <unicode hex="017F"/>
  <anchor x="200" y="0" name="bottom"/>
  <anchor x="200" y="700" name="top"/>
  <outline>
    <contour>
      <point x="40" y="0" type="line"/>
      <point x="130" y="0" type="line"/>
      <point x="130" y="620" type="line"/>
      <point x="220" y="620" type="line"/>
      <point x="220" y="700" type="line"/>
      <point x="120" y="700" type="line"/>
      <point x="40" y="620" type="line"/>
    </contour>
  </outline>
</glyph>
<glyph name="uni0181" format="2">
  <advance width="460"/>
  <unicode hex="0181"/>
  <anchor x="370" y="0" name="bottom"/>
  <anchor x="370" y="700" name="top"/>
  <outline>
    <contour>
      <point x="96" y="620" type="line"/>
      <point x="150" y="620" type="line"/>
      <point x="150" y="0" type="line"/>
      <point x="350" y="0" type="line"/>
      <point x="430" y="80" type="line"/>
      <point x="430" y="316" type="line"/>
      <point x="363" y="376" type="line"/>
      <point x="410" y="419" type="line"/>
      <point x="410" y="620" type="line"/>
      <point x="330" y="700" type="line"/>
      <point x="100" y="700" type="line"/>
      <point x="10" y="610" type="line"/>
      <point x="10" y="450" type="line"/>
      <point x="96" y="450" type="line"/>
    </contour>
    <contour>
      <point x="240" y="405" type="line"/>
      <point x="240" y="620" type="line"/>
      <point x="320" y="620" type="line"/>
      <point x="320" y="405" type="line"/>
    </contour>
    <contour>
      <point x="240" y="80" type="line"/>
      <point x="240" y="325" type="line"/>
      <point x="340" y="325" type="line"/>
      <point x="340" y="80" type="line"/>
    </contour>
  </outline>
</glyph>
<glyph name="uni0189" format="2">
  <advance width="370"/>
  <unicode hex="0189"/>
  <outline>
    <contour>
      <point x="140" y="80" type="line"/>
      <point x="140" y="620" type="line"/>
      <point x="240" y="620" type="line"/>
      <point x="240" y="80" type="line"/>
    </contour>
    <contour>
      <point x="50" y="0" type="line"/>
      <point x="250" y="0" type="line"/>
      <point x="330" y="80" type="line"/>
      <point x="330" y="620" type="line"/>
      <point x="250" y="700" type="line"/>
      <point x="50" y="700" type="line"/>
    </contour>
    <contour>
      <point x="10" y="310" type="line"/>
      <point x="190" y="310" type="line"/>
      <point x="190" y="390" type="line"/>
      <point x="10" y="390" type="line"/>
    </contour>
  </outline>
</glyph>
<glyph name="uni018A" format="2">
  <advance width="470"/>
  <unicode hex="018A"/>
  <anchor x="270" y="0" name="bottom"/>
  <anchor x="270" y="700" name="top"/>
  <outline>
    <contour>
      <point x="96" y="620" type="line"/>
      <point x="150" y="620" type="line"/>
      <point x="150" y="0" type="line"/>
      <point x="350" y="0" type="line"/>
      <point x="430" y="80" type="line"/>
      <point x="430" y="620" type="line"/>
      <point x="350" y="700" type="line"/>
      <point x="100" y="700" type="line"/>
      <point x="10" y="610" type="line"/>
      <point x="10" y="450" type="line"/>
      <point x="96" y="450" type="line"/>
    </contour>
    <contour>
      <point x="240" y="80" type="line"/>
      <point x="240" y="620" type="line"/>
      <point x="340" y="620" type="line"/>
      <point x="340" y="80" type="line"/>
    </contour>
  </outline>
</glyph>
<glyph name="uni018F" format="2">
  <advance width="360"/>
  <unicode hex="018F"/>
  <anchor x="180" y="0" name="bottom"/>
  <anchor x="170" y="700" name="top"/>
  <outline>
    <contour>
      <point x="320" y="620" type="line"/>
      <point x="240" y="700" type="line"/>
      <point x="50" y="700" type="line"/>
      <point x="50" y="620" type="line"/>
      <point x="230" y="620" type="line"/>
      <point x="230" y="410" type="line"/>
      <point x="40" y="410" type="line"/>
      <point x="40" y="80" type="line"/>
      <point x="120" y="0" type="line"/>
      <point x="240" y="0" type="line"/>
      <point x="320" y="80" type="line"/>
    </contour>
    <contour>
      <point x="230" y="340" type="line"/>
      <point x="230" y="80" type="line"/>
      <point x="130" y="80" type="line"/>
      <point x="130" y="334" type="line"/>
    </contour>
  </outline>
</glyph>
<glyph name="uni0190" format="2">
  <advance width="275"/>
  <unicode hex="0190"/>
  <anchor x="165" y="0" name="bottom"/>
  <anchor x="165" y="700" name="top"/>
  <outline>
    <contour>
      <point x="110" y="0" type="line"/>
      <point x="30" y="80" type="line"/>
      <point x="30" y="306" type="line"/>
      <point x="103" y="366" type="line"/>
      <point x="45" y="419" type="line"/>
      <point x="45" y="620" type="line"/>
      <point x="125" y="700" type="line"/>
      <point x="250" y="700" type="line"/>
      <point x="250" y="620" type="line"/>
      <point x="135" y="620" type="line"/>
      <point x="135" y="400" type="line"/>
      <point x="240" y="400" type="line"/>
      <point x="240" y="320" type="line"/>
      <point x="120" y="320" type="line"/>
      <point x="120" y="80" type="line"/>
      <point x="260" y="80" type="line"/>
      <point x="260" y="0" type="line"/>
    </contour>
  </outline>
</glyph>
<glyph name="uni0191" format="2">
  <advance width="245"/>
  <unicode hex="0191"/>
  <outline>
    <contour>
      <point x="-10" y="0" type="line"/>
      <point x="50" y="0" type="line"/>
      <point x="130" y="80" type="line"/>
      <point x="130" y="260" type="line"/>
      <point x="225" y="260" type="line"/>
      <point x="225" y="340" type="line"/>
      <point x="130" y="340" type="line"/>
      <point x="130" y="620" type="line"/>
      <point x="230" y="620" type="line"/>
      <point x="230" y="700" type="line"/>
      <point x="40" y="700" type="line"/>
      <point x="40" y="80" type="line"/>
      <point x="-10" y="80" type="line"/>
    </contour>
  </outline>
</glyph>
<glyph name="florin" format="2">
  <advance width="240"/>
  <unicode hex="0192"/>
  <outline>
    <contour>
      <point x="-30" y="-140" type="line"/>
      <point x="40" y="-140" type="line"/>
      <point x="130" y="-50" type="line"/>
      <point x="130" y="310" type="line"/>
      <point x="220" y="310" type="line"/>
      <point x="220" y="390" type="line"/>
      <point x="130" y="390" type="line"/>
      <point x="130" y="620" type="line"/>
      <point x="220" y="620" type="line"/>
      <point x="220" y="700" type="line"/>
      <point x="130" y="700" type="line"/>
      <point x="40" y="610" type="line"/>
      <point x="40" y="-60" type="line"/>
      <point x="-30" y="-60" type="line"/>
    </contour>
  </outline>
</glyph>
<glyph name="uni0193" format="2">
  <advance width="360"/>
  <unicode hex="0193"/>
  <outline>
    <contour>
      <point x="120" y="0" type="line"/>
      <point x="320" y="0" type="line"/>
      <point x="320" y="460" type="line"/>
      <point x="180" y="460" type="line"/>
      <point x="180" y="380" type="line"/>
      <point x="230" y="380" type="line"/>
      <point x="230" y="80" type="line"/>
      <point x="130" y="80" type="line"/>
      <point x="130" y="620" type="line"/>
      <point x="300" y="620" type="line"/>
      <point x="300" y="750" type="line"/>
      <point x="370" y="750" type="line"/>
      <point x="370" y="830" type="line"/>
      <point x="300" y="830" type="line"/>
      <point x="220" y="750" type="line"/>
      <point x="220" y="700" type="line"/>
      <point x="120" y="700" type="line"/>
      <point x="40" y="620" type="line"/>
      <point x="40" y="80" type="line"/>
    </contour>
  </outline>
</glyph>
<glyph name="uni0194" format="2">
  <advance width="320"/>
  <unicode hex="0194"/>
  <anchor x="160" y="0" name="bottom"/>
  <anchor x="160" y="700" name="top"/>
  <outline>
    <contour>
      <point x="95" y="0" type="line"/>
      <point x="225" y="0" type="line"/>
      <point x="295" y="70" type="line"/>
      <point x="295" y="200" type="line"/>
      <point x="220" y="338" type="line"/>
      <point x="315" y="700" type="line"/>
      <point x="218" y="700" type="line"/>
      <point x="163" y="429" type="line"/>
      <point x="157" y="429" type="line"/>
      <point x="102" y="700" type="line"/>
      <point x="5" y="700" type="line"/>
      <point x="100" y="338" type="line"/>
      <point x="25" y="200" type="line"/>
      <point x="25" y="70" type="line"/>
    </contour>
    <contour>
      <point x="115" y="80" type="line"/>
      <point x="115" y="196" type="line"/>
      <point x="160" y="287" type="line"/>
      <point x="205" y="196" type="line"/>
      <point x="205" y="80" type="line"/>
    </contour>
  </outline>
</glyph>
<glyph name="uni0197" format="2">
  <advance width="250"/>
  <unicode hex="0197"/>
  <anchor x="125" y="700" name="top"/>
  <anchor x="125" y="0" name="bottom"/>
  <outline>
    <contour>
      <point x="25" y="-4" type="line"/>
      <point x="125" y="4" type="line"/>
      <point x="225" y="-4" type="line"/>
      <point x="225" y="73" type="line"/>
      <point x="170" y="78" type="line"/>
      <point x="170" y="622" type="line"/>
      <point x="225" y="627" type="line"/>
      <point x="225" y="704" type="line"/>
      <point x="125" y="696" type="line"/>
      <point x="25" y="704" type="line"/>
      <point x="25" y="627" type="line"/>
      <point x="80" y="622" type="line"/>
      <point x="80" y="78" type="line"/>
      <point x="25" y="73" type="line"/>
    </contour>
    <contour>
      <point x="30" y="311" type="line"/>
      <point x="230" y="311" type="line"/>
      <point x="230" y="389" type="line"/>
      <point x="30" y="389" type="line"/>
    </contour>
  </outline>
</glyph>
<glyph name="uni0198" format="2">
  <advance width="371"/>
  <unicode hex="0198"/>
  <outline>
    <contour>
      <point x="40" y="0" type="line"/>
      <point x="130" y="0" type="line"/>
      <point x="130" y="315" type="line"/>
      <point x="175" y="315" type="line"/>
      <point x="256" y="0" type="line"/>
      <point x="349" y="0" type="line"/>
      <point x="250" y="370" type="line"/>
      <point x="302" y="620" type="line"/>
      <point x="360" y="620" type="line"/>
      <point x="360" y="700" type="line"/>
      <point x="285" y="700" type="line"/>
      <point x="215" y="630" type="line"/>
      <point x="167" y="395" type="line"/>
      <point x="130" y="395" type="line"/>
      <point x="130" y="700" type="line"/>
      <point x="40" y="700" type="line"/>
    </contour>
  </outline>
</glyph>
<glyph name="uni0199" format="2">
  <advance width="330"/>
  <unicode hex="0199"/>
  <outline>
    <contour>
      <point x="40" y="0" type="line"/>
      <point x="130" y="0" type="line"/>
      <point x="130" y="251" type="line"/>
      <point x="160" y="251" type="line"/>
      <point x="218" y="0" type="line"/>
      <point x="310" y="0" type="line"/>
      <point x="235" y="302" type="line"/>
      <point x="304" y="560" type="line"/>
      <point x="214" y="560" type="line"/>
      <point x="157" y="331" type="line"/>
      <point x="130" y="331" type="line"/>
      <point x="130" y="620" type="line"/>
      <point x="220" y="620" type="line"/>
      <point x="220" y="700" type="line"/>
      <point x="120" y="700" type="line"/>
      <point x="40" y="620" type="line"/>
    </contour>
  </outline>
</glyph>
<glyph name="uni019D" format="2">
  <advance width="380"/>
  <unicode hex="019D"/>
  <outline>
    <contour>
      <point x="-10" y="0" type="line"/>
      <point x="50" y="0" type="line"/>
      <point x="130" y="80" type="line"/>
      <point x="125" y="475" type="line"/>
      <point x="262" y="0" type="line"/>
      <point x="340" y="0" type="line"/>
      <point x="340" y="700" type="line"/>
      <point x="255" y="700" type="line"/>
      <point x="255" y="225" type="line"/>
      <point x="118" y="700" type="line"/>
      <point x="40" y="700" type="line"/>
      <point x="40" y="80" type="line"/>
      <point x="-10" y="80" type="line"/>
    </contour>
  </outline>
</glyph>
<glyph name="Ohorn" format="2">
  <advance width="360"/>
  <unicode hex="01A0"/>
  <anchor x="180" y="0" name="bottom"/>
  <anchor x="180" y="700" name="top"/>
  <outline>
    <contour>
      <point x="40" y="80" type="line"/>
      <point x="120" y="0" type="line"/>
      <point x="240" y="0" type="line"/>
      <point x="320" y="80" type="line"/>
      <point x="320" y="635" type="line"/>
      <point x="385" y="700" type="line"/>
      <point x="385" y="780" type="line"/>
      <point x="300" y="780" type="line"/>
      <point x="300" y="700" type="line"/>
      <point x="120" y="700" type="line"/>
      <point x="40" y="620" type="line"/>
    </contour>
    <contour>
      <point x="130" y="620" type="line"/>
      <point x="230" y="620" type="line"/>
      <point x="230" y="80" type="line"/>
      <point x="130" y="80" type="line"/>
    </contour>
  </outline>
</glyph>
<glyph name="ohorn" format="2">
  <advance width="345"/>
  <unicode hex="01A1"/>
  <anchor x="160" y="560" name="top"/>
  <anchor x="170" y="0" name="bottom"/>
  <outline>
    <contour>
      <point x="35" y="80" type="line"/>
      <point x="115" y="0" type="line"/>
      <point x="225" y="0" type="line"/>
      <point x="305" y="80" type="line"/>
      <point x="305" y="495" type="line"/>
      <point x="365" y="560" type="line"/>
      <point x="365" y="640" type="line"/>
      <point x="285" y="640" type="line"/>
      <point x="285" y="560" type="line"/>
      <point x="115" y="560" type="line"/>
      <point x="35" y="480" type="line"/>
    </contour>
    <contour>
      <point x="125" y="80" type="line"/>
      <point x="125" y="480" type="line"/>
      <point x="215" y="480" type="line"/>
      <point x="215" y="80" type="line"/>
    </contour>
  </outline>
</glyph>
<glyph name="Uhorn" format="2">
  <advance width="360"/>
  <unicode hex="01AF"/>
  <anchor x="180" y="700" name="top"/>
  <anchor x="180" y="0" name="bottom"/>
  <outline>
    <contour>
      <point x="40" y="80" type="line"/>
      <point x="120" y="0" type="line"/>
      <point x="240" y="0" type="line"/>
      <point x="320" y="80" type="line"/>
      <point x="320" y="635" type="line"/>
      <point x="385" y="700" type="line"/>
      <point x="385" y="780" type="line"/>
      <point x="300" y="780" type="line"/>
      <point x="300" y="700" type="line"/>
      <point x="230" y="700" type="line"/>
      <point x="230" y="80" type="line"/>
      <point x="130" y="80" type="line"/>
      <point x="130" y="700" type="line"/>
      <point x="40" y="700" type="line"/>
    </contour>
  </outline>
</glyph>
<glyph name="uhorn" format="2">
  <advance width="360"/>
  <unicode hex="01B0"/>
  <anchor x="180" y="560" name="top"/>
  <anchor x="180" y="0" name="bottom"/>
  <anchor x="260" y="0" name="ogonek"/>
  <outline>
    <contour>
      <point x="40" y="80" type="line"/>
      <point x="120" y="0" type="line"/>
      <point x="310" y="0" type="line"/>
      <point x="310" y="490" type="line"/>
      <point x="376" y="560" type="line"/>
      <point x="376" y="640" type="line"/>
      <point x="296" y="640" type="line"/>
      <point x="296" y="560" type="line"/>
      <point x="220" y="560" type="line"/>
      <point x="220" y="80" type="line"/>
      <point x="130" y="80" type="line"/>
      <point x="130" y="560" type="line"/>
      <point x="40" y="560" type="line"/>
    </contour>
  </outline>
</glyph>
<glyph name="uni01B2" format="2">
  <advance width="360"/>
  <unicode hex="01B2"/>
  <anchor x="180" y="700" name="top"/>
  <anchor x="180" y="0" name="bottom"/>
  <outline>
    <contour>
      <point x="120" y="0" type="line"/>
      <point x="240" y="0" type="line"/>
      <point x="320" y="80" type="line"/>
      <point x="320" y="630" type="line"/>
      <point x="250" y="700" type="line"/>
      <point x="170" y="700" type="line"/>
      <point x="170" y="620" type="line"/>
      <point x="230" y="620" type="line"/>
      <point x="230" y="80" type="line"/>
      <point x="130" y="80" type="line"/>
      <point x="130" y="700" type="line"/>
      <point x="40" y="700" type="line"/>
      <point x="40" y="80" type="line"/>
    </contour>
  </outline>
</glyph>
<glyph name="uni01B3" format="2">
  <advance width="400"/>
  <unicode hex="01B3"/>
  <outline>
    <contour>
      <point x="135" y="0" type="line"/>
      <point x="225" y="0" type="line"/>
      <point x="225" y="210" type="line"/>
      <point x="283" y="210" type="line"/>
      <point x="321" y="620" type="line"/>
      <point x="395" y="620" type="line"/>
      <point x="395" y="700" type="line"/>
      <point x="296" y="700" type="line"/>
      <point x="236" y="640" type="line"/>
      <point x="210" y="288" type="line"/>
      <point x="151" y="288" type="line"/>
      <point x="110" y="700" type="line"/>
      <point x="15" y="700" type="line"/>
      <point x="75" y="210" type="line"/>
      <point x="135" y="210" type="line"/>
    </contour>
  </outline>
</glyph>
<glyph name="uni01B4" format="2">
  <advance width="350"/>
  <unicode hex="01B4"/>
  <outline>
    <contour>
      <point x="36" y="-140" type="line"/>
      <point x="244" y="-140" type="line"/>
      <point x="330" y="620" type="line"/>
      <point x="370" y="620" type="line"/>
      <point x="370" y="700" type="line"/>
      <point x="315" y="700" type="line"/>
      <point x="245" y="630" type="line"/>
      <point x="194" y="130" type="line"/>
      <point x="155" y="130" type="line"/>
      <point x="111" y="560" type="line"/>
      <point x="20" y="560" type="line"/>
      <point x="83" y="50" type="line"/>
      <point x="186" y="50" type="line"/>
      <point x="170" y="-60" type="line"/>
      <point x="36" y="-60" type="line"/>
    </contour>
  </outline>
</glyph>
<glyph name="uni01B7" format="2">
  <advance width="290"/>
  <unicode hex="01B7"/>
  <outline>
    <contour>
      <point x="185" y="0" type="line"/>
      <point x="265" y="80" type="line"/>
      <point x="265" y="340" type="line"/>
      <point x="205" y="400" type="line"/>
      <point x="136" y="400" type="line"/>
      <point x="245" y="630" type="line"/>
      <point x="245" y="700" type="line"/>
      <point x="20" y="700" type="line"/>
      <point x="20" y="620" type="line"/>
      <point x="153" y="620" type="line"/>
      <point x="50" y="400" type="line"/>
      <point x="50" y="326" type="line"/>
      <point x="175" y="326" type="line"/>
      <point x="175" y="80" type="line"/>
      <point x="20" y="80" type="line"/>
      <point x="20" y="0" type="line"/>
    </contour>
  </outline>
</glyph>
<glyph name="uni01C0" format="2">
  <advance width="180"/>
  <unicode hex="01C0"/>
  <outline>
    <contour>
      <point x="50" y="-30" type="line"/>
      <point x="130" y="-30" type="line"/>
      <point x="130" y="730" type="line"/>
      <point x="50" y="730" type="line"/>
    </contour>
  </outline>
</glyph>
<glyph name="uni01C3" format="2">
  <advance width="170"/>
  <unicode hex="01C3"/>
  <outline>
    <contour>
      <point x="40" y="0" type="line"/>
      <point x="130" y="0" type="line"/>
      <point x="130" y="100" type="line"/>
      <point x="40" y="100" type="line"/>
    </contour>
    <contour>
      <point x="50" y="200" type="line"/>
      <point x="120" y="200" type="line"/>
      <point x="136" y="700" type="line"/>
      <point x="34" y="700" type="line"/>
    </contour>
  </outline>
</glyph>
<glyph name="uni01C4" format="2">
  <advance width="660"/>
  <unicode hex="01C4"/>
  <anchor x="510" y="-0" name="bottom"/>
  <anchor x="510" y="700" name="top"/>
  <outline>
    <component base="D"/>
    <contour>
      <point x="390" y="0" type="line"/>
      <point x="630" y="0" type="line"/>
      <point x="630" y="80" type="line"/>
      <point x="484" y="80" type="line"/>
      <point x="630" y="630" type="line"/>
      <point x="630" y="700" type="line"/>
      <point x="390" y="700" type="line"/>
      <point x="390" y="620" type="line"/>
      <point x="536" y="620" type="line"/>
      <point x="390" y="70" type="line"/>
    </contour>
    <contour>
      <point x="610" y="880" type="line"/>
      <point x="510" y="820" type="line"/>
      <point x="410" y="880" type="line"/>
      <point x="410" y="800" type="line"/>
      <point x="510" y="740" type="line"/>
      <point x="610" y="800" type="line"/>
    </contour>
  </outline>
</glyph>
<glyph name="uni01C5" format="2">
  <advance width="610"/>
  <unicode hex="01C5"/>
  <anchor x="485" y="-0" name="bottom"/>
  <anchor x="485" y="560" name="top"/>
  <outline>
    <component base="D"/>
    <contour>
      <point x="380" y="0" type="line"/>
      <point x="590" y="0" type="line"/>
      <point x="590" y="80" type="line"/>
      <point x="472" y="80" type="line"/>
      <point x="590" y="500" type="line"/>
      <point x="590" y="560" type="line"/>
      <point x="380" y="560" type="line"/>
      <point x="380" y="480" type="line"/>
      <point x="498" y="480" type="line"/>
      <point x="380" y="60" type="line"/>
    </contour>
    <contour>
      <point x="585" y="740" type="line"/>
      <point x="485" y="680" type="line"/>
      <point x="385" y="740" type="line"/>
      <point x="385" y="660" type="line"/>
      <point x="485" y="600" type="line"/>
      <point x="585" y="660" type="line"/>
    </contour>
  </outline>
</glyph>
<glyph name="uni01C6" format="2">
  <advance width="595"/>
  <unicode hex="01C6"/>
  <anchor x="470" y="-0" name="bottom"/>
  <anchor x="470" y="560" name="top"/>
  <outline>
    <component base="d"/>
    <contour>
      <point x="365" y="0" type="line"/>
      <point x="575" y="0" type="line"/>
      <point x="575" y="80" type="line"/>
      <point x="457" y="80" type="line"/>
      <point x="575" y="500" type="line"/>
      <point x="575" y="560" type="line"/>
      <point x="365" y="560" type="line"/>
      <point x="365" y="480" type="line"/>
      <point x="483" y="480" type="line"/>
      <point x="365" y="60" type="line"/>
    </contour>
    <contour>
      <point x="570" y="740" type="line"/>
      <point x="470" y="680" type="line"/>
      <point x="370" y="740" type="line"/>
      <point x="370" y="660" type="line"/>
      <point x="470" y="600" type="line"/>
      <point x="570" y="660" type="line"/>
    </contour>
  </outline>
</glyph>
<glyph name="uni01E4" format="2">
  <advance width="360"/>
  <unicode hex="01E4"/>
  <anchor x="190" y="0" name="bottom"/>
  <anchor x="190" y="700" name="top"/>
  <outline>
    <contour>
      <point x="40" y="80" type="line"/>
      <point x="120" y="0" type="line"/>
      <point x="320" y="0" type="line"/>
      <point x="320" y="460" type="line"/>
      <point x="180" y="460" type="line"/>
      <point x="180" y="380" type="line"/>
      <point x="230" y="380" type="line"/>
      <point x="230" y="80" type="line"/>
      <point x="130" y="80" type="line"/>
      <point x="130" y="620" type="line"/>
      <point x="300" y="620" type="line"/>
      <point x="300" y="700" type="line"/>
      <point x="120" y="700" type="line"/>
      <point x="40" y="620" type="line"/>
    </contour>
    <contour>
      <point x="180" y="194" type="line"/>
      <point x="355" y="194" type="line"/>
      <point x="355" y="270" type="line"/>
      <point x="180" y="270" type="line"/>
    </contour>
  </outline>
</glyph>
<glyph name="uni01E5" format="2">
  <advance width="345"/>
  <unicode hex="01E5"/>
  <anchor x="185" y="560" name="top"/>
  <anchor x="155" y="-160" name="bottom"/>
  <outline>
    <contour>
      <point x="55" y="-140" type="line"/>
      <point x="221" y="-140" type="line"/>
      <point x="305" y="-56" type="line"/>
      <point x="305" y="560" type="line"/>
      <point x="125" y="560" type="line"/>
      <point x="35" y="480" type="line"/>
      <point x="35" y="180" type="line"/>
      <point x="85" y="130" type="line"/>
      <point x="215" y="130" type="line"/>
      <point x="215" y="-60" type="line"/>
      <point x="55" y="-60" type="line"/>
    </contour>
    <contour>
      <point x="125" y="480" type="line"/>
      <point x="215" y="480" type="line"/>
      <point x="215" y="210" type="line"/>
      <point x="125" y="210" type="line"/>
    </contour>
    <contour>
      <point x="85" y="0" type="line"/>
      <point x="335" y="0" type="line"/>
      <point x="335" y="76" type="line"/>
      <point x="85" y="76" type="line"/>
    </contour>
  </outline>
</glyph>
<glyph name="uni0237" format="2">
  <advance width="170"/>
  <unicode hex="0237"/>
  <anchor x="85" y="560" name="top"/>
  <outline>
    <contour>
      <point x="40" y="-160" type="line"/>
      <point x="130" y="-160" type="line"/>
      <point x="130" y="560" type="line"/>
      <point x="40" y="560" type="line"/>
    </contour>
  </outline>
</glyph>
<glyph name="uni0244" format="2">
  <advance width="360"/>
  <unicode hex="0244"/>
  <anchor x="180" y="700" name="top"/>
  <anchor x="180" y="0" name="bottom"/>
  <outline>
    <component base="U"/>
    <contour>
      <point x="10" y="322" type="line"/>
      <point x="350" y="322" type="line"/>
      <point x="350" y="400" type="line"/>
      <point x="10" y="400" type="line"/>
    </contour>
  </outline>
</glyph>
<glyph name="uni0253" format="2">
  <advance width="345"/>
  <unicode hex="0253"/>
  <outline>
    <contour>
      <point x="130" y="80" type="line"/>
      <point x="130" y="480" type="line"/>
      <point x="220" y="480" type="line"/>
      <point x="220" y="80" type="line"/>
    </contour>
    <contour>
      <point x="40" y="0" type="line"/>
      <point x="230" y="0" type="line"/>
      <point x="310" y="80" type="line"/>
      <point x="310" y="480" type="line"/>
      <point x="230" y="560" type="line"/>
      <point x="130" y="560" type="line"/>
      <point x="130" y="620" type="line"/>
      <point x="220" y="620" type="line"/>
      <point x="220" y="700" type="line"/>
      <point x="120" y="700" type="line"/>
      <point x="40" y="620" type="line"/>
    </contour>
  </outline>
</glyph>
<glyph name="uni0256" format="2">
  <advance width="345"/>
  <unicode hex="0256"/>
  <outline>
    <contour>
      <point x="305" y="-60" type="line"/>
      <point x="305" y="700" type="line"/>
      <point x="215" y="700" type="line"/>
      <point x="215" y="560" type="line"/>
      <point x="115" y="560" type="line"/>
      <point x="35" y="480" type="line"/>
      <point x="35" y="80" type="line"/>
      <point x="115" y="0" type="line"/>
      <point x="215" y="0" type="line"/>
      <point x="215" y="-60" type="line"/>
      <point x="295" y="-140" type="line"/>
      <point x="365" y="-140" type="line"/>
      <point x="365" y="-60" type="line"/>
    </contour>
    <contour>
      <point x="125" y="480" type="line"/>
      <point x="215" y="480" type="line"/>
      <point x="215" y="80" type="line"/>
      <point x="125" y="80" type="line"/>
    </contour>
  </outline>
</glyph>
<glyph name="uni0257" format="2">
  <advance width="345"/>
  <unicode hex="0257"/>
  <outline>
    <contour>
      <point x="125" y="80" type="line"/>
      <point x="125" y="480" type="line"/>
      <point x="215" y="480" type="line"/>
      <point x="215" y="80" type="line"/>
    </contour>
    <contour>
      <point x="35" y="80" type="line"/>
      <point x="115" y="0" type="line"/>
      <point x="305" y="0" type="line"/>
      <point x="305" y="620" type="line"/>
      <point x="365" y="620" type="line"/>
      <point x="365" y="700" type="line"/>
      <point x="295" y="700" type="line"/>
      <point x="215" y="620" type="line"/>
      <point x="215" y="560" type="line"/>
      <point x="115" y="560" type="line"/>
      <point x="35" y="480" type="line"/>
    </contour>
  </outline>
</glyph>
<glyph name="uni0259" format="2">
  <advance width="330"/>
  <unicode hex="0259"/>
  <anchor x="160" y="0" name="bottom"/>
  <anchor x="160" y="560" name="top"/>
  <outline>
    <contour>
      <point x="295" y="480" type="line"/>
      <point x="215" y="560" type="line"/>
      <point x="45" y="560" type="line"/>
      <point x="45" y="480" type="line"/>
      <point x="205" y="480" type="line"/>
      <point x="205" y="350" type="line"/>
      <point x="35" y="350" type="line"/>
      <point x="35" y="80" type="line"/>
      <point x="115" y="0" type="line"/>
      <point x="215" y="0" type="line"/>
      <point x="295" y="80" type="line"/>
    </contour>
    <contour>
      <point x="205" y="280" type="line"/>
      <point x="205" y="80" type="line"/>
      <point x="122" y="80" type="line"/>
      <point x="122" y="274" type="line"/>
    </contour>
  </outline>
</glyph>
<glyph name="uni0260" format="2">
  <advance width="345"/>
  <unicode hex="0260"/>
  <outline>
    <contour>
      <point x="125" y="130" type="line"/>
      <point x="125" y="480" type="line"/>
      <point x="215" y="480" type="line"/>
      <point x="215" y="130" type="line"/>
    </contour>
    <contour>
      <point x="55" y="-140" type="line"/>
      <point x="221" y="-140" type="line"/>
      <point x="305" y="-56" type="line"/>
      <point x="305" y="620" type="line"/>
      <point x="395" y="620" type="line"/>
      <point x="395" y="700" type="line"/>
      <point x="295" y="700" type="line"/>
      <point x="215" y="620" type="line"/>
      <point x="215" y="560" type="line"/>
      <point x="125" y="560" type="line"/>
      <point x="35" y="480" type="line"/>
      <point x="35" y="130" type="line"/>
      <point x="115" y="50" type="line"/>
      <point x="215" y="50" type="line"/>
      <point x="215" y="-60" type="line"/>
      <point x="55" y="-60" type="line"/>
    </contour>
  </outline>
</glyph>
<glyph name="uni0263" format="2">
  <advance width="320"/>
  <unicode hex="0263"/>
  <anchor x="160" y="-140" name="bottom"/>
  <anchor x="160" y="560" name="top"/>
  <outline>
    <contour>
      <point x="100" y="-140" type="line"/>
      <point x="220" y="-140" type="line"/>
      <point x="290" y="-70" type="line"/>
      <point x="290" y="60" type="line"/>
      <point x="216" y="233" type="line"/>
      <point x="320" y="560" type="line"/>
      <point x="223" y="560" type="line"/>
      <point x="163" y="319" type="line"/>
      <point x="157" y="319" type="line"/>
      <point x="97" y="560" type="line"/>
      <point x="0" y="560" type="line"/>
      <point x="104" y="233" type="line"/>
      <point x="30" y="60" type="line"/>
      <point x="30" y="-70" type="line"/>
    </contour>
    <contour>
      <point x="120" y="-60" type="line"/>
      <point x="120" y="59" type="line"/>
      <point x="160" y="179" type="line"/>
      <point x="200" y="59" type="line"/>
      <point x="200" y="-60" type="line"/>
    </contour>
  </outline>
</glyph>
<glyph name="uni0268" format="2">
  <advance width="170"/>
  <unicode hex="0268"/>
  <outline>
    <component base="i"/>
    <contour>
      <point x="5" y="274" type="line"/>
      <point x="165" y="274" type="line"/>
      <point x="165" y="350" type="line"/>
      <point x="5" y="350" type="line"/>
    </contour>
  </outline>
</glyph>
<glyph name="uni0272" format="2">
  <advance width="350"/>
  <unicode hex="0272"/>
  <outline>
    <contour>
      <point x="-30" y="-140" type="line"/>
      <point x="40" y="-140" type="line"/>
      <point x="130" y="-50" type="line"/>
      <point x="130" y="480" type="line"/>
      <point x="220" y="480" type="line"/>
      <point x="220" y="0" type="line"/>
      <point x="310" y="0" type="line"/>
      <point x="310" y="480" type="line"/>
      <point x="230" y="560" type="line"/>
      <point x="40" y="560" type="line"/>
      <point x="40" y="-60" type="line"/>
      <point x="-30" y="-60" type="line"/>
    </contour>
  </outline>
</glyph>
<glyph name="uni0289" format="2">
  <advance width="350"/>
  <unicode hex="0289"/>
  <anchor x="175" y="0" name="bottom"/>
  <anchor x="260" y="0" name="ogonek"/>
  <anchor x="175" y="560" name="top"/>
  <outline>
    <component base="u"/>
    <contour>
      <point x="5" y="274" type="line"/>
      <point x="345" y="274" type="line"/>
      <point x="345" y="350" type="line"/>
      <point x="5" y="350" type="line"/>
    </contour>
  </outline>
</glyph>
<glyph name="uni028B" format="2">
  <advance width="350"/>
  <unicode hex="028B"/>
  <outline>
    <contour>
      <point x="120" y="0" type="line"/>
      <point x="230" y="0" type="line"/>
      <point x="310" y="80" type="line"/>
      <point x="310" y="490" type="line"/>
      <point x="240" y="560" type="line"/>
      <point x="170" y="560" type="line"/>
      <point x="170" y="480" type="line"/>
      <point x="220" y="480" type="line"/>
      <point x="220" y="80" type="line"/>
      <point x="130" y="80" type="line"/>
      <point x="130" y="560" type="line"/>
      <point x="40" y="560" type="line"/>
      <point x="40" y="80" type="line"/>
    </contour>
  </outline>
</glyph>
<glyph name="uni0292" format="2">
  <advance width="290"/>
  <unicode hex="0292"/>
  <outline>
    <contour>
      <point x="185" y="-140" type="line"/>
      <point x="265" y="-60" type="line"/>
      <point x="265" y="190" type="line"/>
      <point x="205" y="250" type="line"/>
      <point x="136" y="250" type="line"/>
      <point x="250" y="490" type="line"/>
      <point x="250" y="560" type="line"/>
      <point x="20" y="560" type="line"/>
      <point x="20" y="480" type="line"/>
      <point x="158" y="480" type="line"/>
      <point x="50" y="250" type="line"/>
      <point x="50" y="176" type="line"/>
      <point x="175" y="176" type="line"/>
      <point x="175" y="-60" type="line"/>
      <point x="20" y="-60" type="line"/>
      <point x="20" y="-140" type="line"/>
    </contour>
  </outline>
</glyph>
<glyph name="uni02BA" format="2">
  <advance width="320"/>
  <unicode hex="02BA"/>
  <outline>
    <contour>
      <point x="45" y="460" type="line"/>
      <point x="105" y="460" type="line"/>
      <point x="145" y="700" type="line"/>
      <point x="45" y="700" type="line"/>
    </contour>
    <contour>
      <point x="185" y="460" type="line"/>
      <point x="245" y="460" type="line"/>
      <point x="285" y="700" type="line"/>
      <point x="185" y="700" type="line"/>
    </contour>
  </outline>
</glyph>
<glyph name="ogonek" format="2">
  <advance width="194"/>
  <unicode hex="02DB"/>
  <outline>
    <contour>
      <point x="154" y="-60" type="line"/>
      <point x="83" y="-60" type="line"/>
      <point x="40" y="-200" type="line"/>
      <point x="131" y="-200" type="line"/>
    </contour>
  </outline>
</glyph>
<glyph name="tilde" format="2">
  <advance width="340"/>
  <unicode hex="02DC"/>
  <outline>
    <contour>
      <point x="55" y="620" type="line"/>
      <point x="126" y="675" type="line"/>
      <point x="210" y="615" type="line"/>
      <point x="300" y="685" type="line"/>
      <point x="285" y="750" type="line"/>
      <point x="214" y="695" type="line"/>
      <point x="130" y="755" type="line"/>
      <point x="40" y="685" type="line"/>
    </contour>
  </outline>
</glyph>
<glyph name="hungarumlaut" format="2">
  <advance width="311"/>
  <unicode hex="02DD"/>
  <outline>
    <contour>
      <point x="40" y="600" type="line"/>
      <point x="107" y="600" type="line"/>
      <point x="158" y="720" type="line"/>
      <point x="80" y="720" type="line"/>
    </contour>
    <contour>
      <point x="137" y="600" type="line"/>
      <point x="205" y="600" type="line"/>
      <point x="271" y="720" type="line"/>
      <point x="193" y="720" type="line"/>
    </contour>
  </outline>
</glyph>
<glyph name="gravecomb" format="2">
  <unicode hex="0300"/>
  <anchor x="0" y="560" name="_top"/>
  <outline>
    <contour>
      <point x="90" y="640" type="line"/>
      <point x="90" y="700" type="line"/>
      <point x="-110" y="725" type="line"/>
      <point x="-110" y="640" type="line"/>
    </contour>
  </outline>
</glyph>
<glyph name="uni0302" format="2">
  <unicode hex="0302"/>
  <anchor x="0" y="560" name="_top"/>
  <outline>
    <contour>
      <point x="-100" y="620" type="line"/>
      <point x="0" y="670" type="line"/>
      <point x="100" y="620" type="line"/>
      <point x="100" y="700" type="line"/>
      <point x="0" y="750" type="line"/>
      <point x="-100" y="700" type="line"/>
    </contour>
  </outline>
</glyph>
<glyph name="tildecomb" format="2">
  <unicode hex="0303"/>
  <anchor x="0" y="560" name="_top"/>
  <outline>
    <contour>
      <point x="-120" y="620" type="line"/>
      <point x="-44" y="675" type="line"/>
      <point x="40" y="615" type="line"/>
      <point x="140" y="685" type="line"/>
      <point x="120" y="750" type="line"/>
      <point x="44" y="695" type="line"/>
      <point x="-40" y="755" type="line"/>
      <point x="-140" y="685" type="line"/>
    </contour>
  </outline>
</glyph>
<glyph name="uni0306" format="2">
  <unicode hex="0306"/>
  <anchor x="0" y="560" name="_top"/>
  <outline>
    <contour>
      <point x="50" y="730" type="line"/>
      <point x="27" y="670" type="line"/>
      <point x="-27" y="670" type="line"/>
      <point x="-50" y="730" type="line"/>
      <point x="-130" y="730" type="line"/>
      <point x="-80" y="610" type="line"/>
      <point x="80" y="610" type="line"/>
      <point x="130" y="730" type="line"/>
    </contour>
  </outline>
</glyph>
<glyph name="uni0308" format="2">
  <unicode hex="0308"/>
  <anchor x="0" y="560" name="_top"/>
  <outline>
    <contour>
      <point x="-115" y="630" type="line"/>
      <point x="-25" y="630" type="line"/>
      <point x="-25" y="720" type="line"/>
      <point x="-115" y="720" type="line"/>
    </contour>
    <contour>
      <point x="25" y="630" type="line"/>
      <point x="115" y="630" type="line"/>
      <point x="115" y="720" type="line"/>
      <point x="25" y="720" type="line"/>
    </contour>
  </outline>
</glyph>
<glyph name="hookabovecomb" format="2">
  <unicode hex="0309"/>
  <anchor x="0" y="560" name="_top"/>
  <outline>
    <contour>
      <point x="-60" y="670" type="line"/>
      <point x="5" y="670" type="line"/>
      <point x="-55" y="590" type="line"/>
      <point x="20" y="590" type="line"/>
      <point x="75" y="670" type="line"/>
      <point x="75" y="730" type="line"/>
      <point x="-60" y="730" type="line"/>
    </contour>
  </outline>
</glyph>
<glyph name="uni030A" format="2">
  <unicode hex="030A"/>
  <anchor x="0" y="560" name="_top"/>
  <outline>
    <contour>
      <point x="-103" y="641" type="line"/>
      <point x="-42" y="580" type="line"/>
      <point x="42" y="580" type="line"/>
      <point x="103" y="641" type="line"/>
      <point x="103" y="719" type="line"/>
      <point x="42" y="780" type="line"/>
      <point x="-42" y="780" type="line"/>
      <point x="-103" y="719" type="line"/>
    </contour>
    <contour>
      <point x="-35" y="644" type="line"/>
      <point x="-35" y="716" type="line"/>
      <point x="35" y="716" type="line"/>
      <point x="35" y="644" type="line"/>
    </contour>
  </outline>
</glyph>
<glyph name="uni030B" format="2">
  <unicode hex="030B"/>
  <anchor x="0" y="560" name="_top"/>
  <outline>
    <contour>
      <point x="-90" y="600" type="line"/>
      <point x="-23" y="600" type="line"/>
      <point x="28" y="720" type="line"/>
      <point x="-50" y="720" type="line"/>
    </contour>
    <contour>
      <point x="7" y="600" type="line"/>
      <point x="75" y="600" type="line"/>
      <point x="141" y="720" type="line"/>
      <point x="63" y="720" type="line"/>
    </contour>
  </outline>
</glyph>
<glyph name="uni030C" format="2">
  <unicode hex="030C"/>
  <anchor x="0" y="560" name="_top"/>
  <outline>
    <contour>
      <point x="100" y="740" type="line"/>
      <point x="0" y="690" type="line"/>
      <point x="-100" y="740" type="line"/>
      <point x="-100" y="660" type="line"/>
      <point x="0" y="610" type="line"/>
      <point x="100" y="660" type="line"/>
    </contour>
  </outline>
</glyph>
<glyph name="uni030F" format="2">
  <unicode hex="030F"/>
  <anchor x="0" y="560" name="_top"/>
  <outline>
    <contour>
      <point x="50" y="720" type="line"/>
      <point x="-28" y="720" type="line"/>
      <point x="23" y="600" type="line"/>
      <point x="90" y="600" type="line"/>
    </contour>
    <contour>
      <point x="-63" y="720" type="line"/>
      <point x="-141" y="720" type="line"/>
      <point x="-75" y="600" type="line"/>
      <point x="-7" y="600" type="line"/>
    </contour>
  </outline>
</glyph>
<glyph name="uni0312" format="2">
  <unicode hex="0312"/>
  <anchor x="0" y="560" name="_top"/>
  <outline>
    <contour>
      <point x="65" y="740" type="line"/>
      <point x="-4" y="740" type="line"/>
      <point x="-61" y="600" type="line"/>
      <point x="34" y="600" type="line"/>
    </contour>
  </outline>
</glyph>
<glyph name="uni0315" format="2">
  <advance width="56"/>
  <unicode hex="0315"/>
  <outline>
    <contour>
      <point x="0" y="480" type="line"/>
      <point x="56" y="480" type="line"/>
      <point x="56" y="700" type="line"/>
      <point x="0" y="700" type="line"/>
    </contour>
  </outline>
</glyph>
<glyph name="uni031B" format="2">
  <unicode hex="031B"/>
  <outline>
    <contour>
      <point x="-50" y="700" type="line"/>
      <point x="-125" y="700" type="line"/>
      <point x="-125" y="620" type="line"/>
      <point x="-40" y="620" type="line"/>
      <point x="40" y="700" type="line"/>
      <point x="40" y="780" type="line"/>
      <point x="-50" y="780" type="line"/>
    </contour>
  </outline>
</glyph>
<glyph name="dotbelowcomb" format="2">
  <unicode hex="0323"/>
  <anchor x="0" y="0" name="_bottom"/>
  <outline>
    <contour>
      <point x="-45" y="-160" type="line"/>
      <point x="45" y="-160" type="line"/>
      <point x="45" y="-80" type="line"/>
      <point x="-45" y="-80" type="line"/>
    </contour>
  </outline>
</glyph>
<glyph name="uni0326" format="2">
  <unicode hex="0326"/>
  <anchor x="0" y="0" name="_bottom"/>
  <outline>
    <contour>
      <point x="-82" y="-250" type="line"/>
      <point x="-9" y="-250" type="line"/>
      <point x="65" y="-70" type="line"/>
      <point x="-32" y="-70" type="line"/>
    </contour>
  </outline>
</glyph>
<glyph name="uni0327" format="2">
  <unicode hex="0327"/>
  <anchor x="0" y="0" name="_bottom"/>
  <outline>
    <contour>
      <point x="-82" y="-250" type="line"/>
      <point x="-9" y="-250" type="line"/>
      <point x="65" y="-70" type="line"/>
      <point x="-32" y="-70" type="line"/>
    </contour>
  </outline>
</glyph>
<glyph name="uni0328" format="2">
  <unicode hex="0328"/>
  <anchor x="0" y="0" name="_ogonek"/>
  <anchor x="0" y="0" name="_bottom"/>
  <outline>
    <contour>
      <point x="45" y="-60" type="line"/>
      <point x="-26" y="-60" type="line"/>
      <point x="-69" y="-200" type="line"/>
      <point x="22" y="-200" type="line"/>
    </contour>
  </outline>
</glyph>
<glyph name="uni0375" format="2">
  <advance width="180"/>
  <unicode hex="0375"/>
  <outline>
    <contour>
      <point x="135" y="100" type="line"/>
      <point x="75" y="100" type="line"/>
      <point x="35" y="-140" type="line"/>
      <point x="135" y="-140" type="line"/>
    </contour>
  </outline>
</glyph>
<glyph name="uni037E" format="2">
  <advance width="150"/>
  <unicode hex="037E"/>
  <outline>
    <contour>
      <point x="30" y="0" type="line"/>
      <point x="53" y="0" type="line"/>
      <point x="4" y="-140" type="line"/>
      <point x="75" y="-140" type="line"/>
      <point x="120" y="0" type="line"/>
      <point x="120" y="100" type="line"/>
      <point x="30" y="100" type="line"/>
    </contour>
    <contour>
      <point x="20" y="360" type="line"/>
      <point x="110" y="360" type="line"/>
      <point x="110" y="460" type="line"/>
      <point x="20" y="460" type="line"/>
    </contour>
  </outline>
</glyph>
<glyph name="iotadieresistonos" format="2">
  <advance width="180"/>
  <unicode hex="0390"/>
  <anchor x="110" y="0" name="bottom"/>
  <anchor x="86" y="710" name="top"/>
  <outline>
    <component base="tonoscomb" xOffset="86" yOffset="150"/>
    <contour>
      <point x="40" y="560" type="line"/>
      <point x="40" y="70" type="line"/>
      <point x="110" y="0" type="line"/>
      <point x="170" y="0" type="line"/>
      <point x="170" y="82" type="line"/>
      <point x="130" y="82" type="line"/>
      <point x="130" y="560" type="line"/>
    </contour>
    <contour>
      <point x="-19" y="630" type="line"/>
      <point x="61" y="630" type="line"/>
      <point x="61" y="710" type="line"/>
      <point x="-19" y="710" type="line"/>
    </contour>
    <contour>
      <point x="111" y="630" type="line"/>
      <point x="191" y="630" type="line"/>
      <point x="191" y="710" type="line"/>
      <point x="111" y="710" type="line"/>
    </contour>
  </outline>
</glyph>
<glyph name="Gamma" format="2">
  <advance width="250"/>
  <unicode hex="0393"/>
  <anchor x="125" y="0" name="bottom"/>
  <anchor x="125" y="700" name="top"/>
  <outline>
    <contour>
      <point x="40" y="0" type="line"/>
      <point x="130" y="0" type="line"/>
      <point x="130" y="620" type="line"/>
      <point x="240" y="620" type="line"/>
      <point x="240" y="700" type="line"/>
      <point x="40" y="700" type="line"/>
    </contour>
  </outline>
</glyph>
<glyph name="uni0394" format="2">
  <advance width="360"/>
  <unicode hex="0394"/>
  <outline>
    <contour>
      <point x="263" y="700" type="line"/>
      <point x="97" y="700" type="line"/>
      <point x="15" y="0" type="line"/>
      <point x="106" y="0" type="line"/>
      <point x="165" y="620" type="line"/>
      <point x="195" y="620" type="line"/>
      <point x="254" y="0" type="line"/>
      <point x="345" y="0" type="line"/>
    </contour>
    <contour>
      <point x="40" y="0" type="line"/>
      <point x="310" y="0" type="line"/>
      <point x="310" y="80" type="line"/>
      <point x="40" y="80" type="line"/>
    </contour>
  </outline>
</glyph>
<glyph name="Theta" format="2">
  <advance width="360"/>
  <unicode hex="0398"/>
  <anchor x="180" y="700" name="top"/>
  <anchor x="180" y="0" name="bottom"/>
  <outline>
    <contour>
      <point x="40" y="80" type="line"/>
      <point x="120" y="0" type="line"/>
      <point x="240" y="0" type="line"/>
      <point x="320" y="80" type="line"/>
      <point x="320" y="620" type="line"/>
      <point x="240" y="700" type="line"/>
      <point x="120" y="700" type="line"/>
      <point x="40" y="620" type="line"/>
    </contour>
    <contour>
      <point x="130" y="620" type="line"/>
      <point x="230" y="620" type="line"/>
      <point x="230" y="390" type="line"/>
      <point x="130" y="390" type="line"/>
    </contour>
    <contour>
      <point x="130" y="80" type="line"/>
      <point x="130" y="310" type="line"/>
      <point x="230" y="310" type="line"/>
      <point x="230" y="80" type="line"/>
    </contour>
  </outline>
</glyph>
<glyph name="Xi" format="2">
  <advance width="320"/>
  <unicode hex="039E"/>
  <anchor x="160" y="700" name="top"/>
  <anchor x="160" y="0" name="bottom"/>
  <outline>
    <contour>
      <point x="15" y="0" type="line"/>
      <point x="305" y="0" type="line"/>
      <point x="305" y="80" type="line"/>
      <point x="205" y="80" type="line"/>
      <point x="205" y="320" type="line"/>
      <point x="285" y="320" type="line"/>
      <point x="285" y="400" type="line"/>
      <point x="205" y="400" type="line"/>
      <point x="205" y="620" type="line"/>
      <point x="295" y="620" type="line"/>
      <point x="295" y="700" type="line"/>
      <point x="25" y="700" type="line"/>
      <point x="25" y="620" type="line"/>
      <point x="115" y="620" type="line"/>
      <point x="115" y="400" type="line"/>
      <point x="35" y="400" type="line"/>
      <point x="35" y="320" type="line"/>
      <point x="115" y="320" type="line"/>
      <point x="115" y="80" type="line"/>
      <point x="15" y="80" type="line"/>
    </contour>
  </outline>
</glyph>
<glyph name="Phi" format="2">
  <advance width="510"/>
  <unicode hex="03A6"/>
  <anchor x="255" y="700" name="top"/>
  <anchor x="255" y="0" name="bottom"/>
  <outline>
    <contour>
      <point x="40" y="140" type="line"/>
      <point x="120" y="60" type="line"/>
      <point x="390" y="60" type="line"/>
      <point x="470" y="140" type="line"/>
      <point x="470" y="560" type="line"/>
      <point x="390" y="640" type="line"/>
      <point x="120" y="640" type="line"/>
      <point x="40" y="560" type="line"/>
    </contour>
    <contour>
      <point x="130" y="560" type="line"/>
      <point x="380" y="560" type="line"/>
      <point x="380" y="140" type="line"/>
      <point x="130" y="140" type="line"/>
    </contour>
    <contour>
      <point x="300" y="0" type="line"/>
      <point x="300" y="700" type="line"/>
      <point x="210" y="700" type="line"/>
      <point x="210" y="0" type="line"/>
    </contour>
  </outline>
</glyph>
<glyph name="Psi" format="2">
  <advance width="510"/>
  <unicode hex="03A8"/>
  <anchor x="255" y="0" name="bottom"/>
  <anchor x="255" y="700" name="top"/>
  <outline>
    <contour>
      <point x="120" y="180" type="line"/>
      <point x="210" y="180" type="line"/>
      <point x="210" y="0" type="line"/>
      <point x="300" y="0" type="line"/>
      <point x="300" y="180" type="line"/>
      <point x="390" y="180" type="line"/>
      <point x="470" y="260" type="line"/>
      <point x="470" y="700" type="line"/>
      <point x="380" y="700" type="line"/>
      <point x="380" y="260" type="line"/>
      <point x="300" y="260" type="line"/>
      <point x="300" y="700" type="line"/>
      <point x="210" y="700" type="line"/>
      <point x="210" y="260" type="line"/>
      <point x="130" y="260" type="line"/>
      <point x="130" y="700" type="line"/>
      <point x="40" y="700" type="line"/>
      <point x="40" y="260" type="line"/>
    </contour>
  </outline>
</glyph>
<glyph name="upsilondieresistonos" format="2">
  <advance width="350"/>
  <unicode hex="03B0"/>
  <anchor x="175" y="0" name="bottom"/>
  <anchor x="175" y="710" name="top"/>
  <outline>
    <component base="tonoscomb" xOffset="175" yOffset="150"/>
    <contour>
      <point x="310" y="560" type="line"/>
      <point x="220" y="560" type="line"/>
      <point x="220" y="80" type="line"/>
      <point x="130" y="80" type="line"/>
      <point x="130" y="560" type="line"/>
      <point x="40" y="560" type="line"/>
      <point x="40" y="80" type="line"/>
      <point x="120" y="0" type="line"/>
      <point x="230" y="0" type="line"/>
      <point x="310" y="80" type="line"/>
    </contour>
    <contour>
      <point x="70" y="630" type="line"/>
      <point x="150" y="630" type="line"/>
      <point x="150" y="710" type="line"/>
      <point x="70" y="710" type="line"/>
    </contour>
    <contour>
      <point x="200" y="630" type="line"/>
      <point x="280" y="630" type="line"/>
      <point x="280" y="710" type="line"/>
      <point x="200" y="710" type="line"/>
    </contour>
  </outline>
</glyph>
<glyph name="alpha" format="2">
  <advance width="350"/>
  <unicode hex="03B1"/>
  <anchor x="175" y="560" name="top"/>
  <anchor x="175" y="0" name="bottom"/>
  <outline>
    <contour>
      <point x="120" y="0" type="line"/>
      <point x="185" y="0" type="line"/>
      <point x="222" y="53" type="line"/>
      <point x="229" y="0" type="line"/>
      <point x="319" y="0" type="line"/>
      <point x="295" y="280" type="line"/>
      <point x="319" y="560" type="line"/>
      <point x="229" y="560" type="line"/>
      <point x="222" y="507" type="line"/>
      <point x="185" y="560" type="line"/>
      <point x="120" y="560" type="line"/>
      <point x="40" y="480" type="line"/>
      <point x="40" y="80" type="line"/>
    </contour>
    <contour>
      <point x="130" y="80" type="line"/>
      <point x="130" y="480" type="line"/>
      <point x="222" y="480" type="line"/>
      <point x="222" y="80" type="line"/>
    </contour>
  </outline>
</glyph>
<glyph name="beta" format="2">
  <advance width="360"/>
  <unicode hex="03B2"/>
  <outline>
    <contour>
      <point x="305" y="620" type="line"/>
      <point x="225" y="700" type="line"/>
      <point x="120" y="700" type="line"/>
      <point x="40" y="620" type="line"/>
      <point x="40" y="-100" type="line"/>
      <point x="130" y="-100" type="line"/>
      <point x="130" y="620" type="line"/>
      <point x="215" y="620" type="line"/>
      <point x="215" y="415" type="line"/>
      <point x="170" y="415" type="line"/>
      <point x="170" y="335" type="line"/>
      <point x="240" y="335" type="line"/>
      <point x="240" y="80" type="line"/>
      <point x="110" y="80" type="line"/>
      <point x="110" y="0" type="line"/>
      <point x="250" y="0" type="line"/>
      <point x="330" y="80" type="line"/>
      <point x="330" y="326" type="line"/>
      <point x="253" y="386" type="line"/>
      <point x="305" y="439" type="line"/>
    </contour>
  </outline>
</glyph>
<glyph name="gamma" format="2">
  <advance width="330"/>
  <unicode hex="03B3"/>
  <anchor x="165" y="560" name="top"/>
  <anchor x="165" y="-140" name="bottom"/>
  <outline>
    <contour>
      <point x="120" y="-20" type="line"/>
      <point x="120" y="-140" type="line"/>
      <point x="210" y="-140" type="line"/>
      <point x="210" y="-20" type="line"/>
      <point x="310" y="560" type="line"/>
      <point x="220" y="560" type="line"/>
      <point x="171" y="160" type="line"/>
      <point x="159" y="160" type="line"/>
      <point x="110" y="560" type="line"/>
      <point x="20" y="560" type="line"/>
    </contour>
  </outline>
</glyph>
<glyph name="delta" format="2">
  <advance width="350"/>
  <unicode hex="03B4"/>
  <anchor x="175" y="0" name="bottom"/>
  <anchor x="175" y="700" name="top"/>
  <outline>
    <contour>
      <point x="120" y="0" type="line"/>
      <point x="230" y="0" type="line"/>
      <point x="310" y="80" type="line"/>
      <point x="310" y="500" type="line"/>
      <point x="155" y="626" type="line"/>
      <point x="305" y="626" type="line"/>
      <point x="305" y="700" type="line"/>
      <point x="65" y="700" type="line"/>
      <point x="65" y="620" type="line"/>
      <point x="220" y="480" type="line"/>
      <point x="220" y="80" type="line"/>
      <point x="130" y="80" type="line"/>
      <point x="130" y="473" type="line"/>
      <point x="204" y="538" type="line"/>
      <point x="161" y="579" type="line"/>
      <point x="40" y="500" type="line"/>
      <point x="40" y="80" type="line"/>
    </contour>
  </outline>
</glyph>
<glyph name="epsilon" format="2">
  <advance width="265"/>
  <unicode hex="03B5"/>
  <anchor x="155" y="560" name="top"/>
  <anchor x="155" y="0" name="bottom"/>
  <outline>
    <contour>
      <point x="100" y="0" type="line"/>
      <point x="250" y="0" type="line"/>
      <point x="250" y="82" type="line"/>
      <point x="120" y="82" type="line"/>
      <point x="120" y="246" type="line"/>
      <point x="240" y="246" type="line"/>
      <point x="240" y="326" type="line"/>
      <point x="130" y="326" type="line"/>
      <point x="130" y="478" type="line"/>
      <point x="245" y="478" type="line"/>
      <point x="245" y="560" type="line"/>
      <point x="110" y="560" type="line"/>
      <point x="40" y="490" type="line"/>
      <point x="40" y="332" type="line"/>
      <point x="87" y="292" type="line"/>
      <point x="30" y="237" type="line"/>
      <point x="30" y="70" type="line"/>
    </contour>
  </outline>
</glyph>
<glyph name="zeta" format="2">
  <advance width="270"/>
  <unicode hex="03B6"/>
  <anchor x="135" y="-120" name="bottom"/>
  <anchor x="135" y="700" name="top"/>
  <outline>
    <contour>
      <point x="115" y="0" type="line"/>
      <point x="175" y="0" type="line"/>
      <point x="175" y="-160" type="line"/>
      <point x="255" y="-160" type="line"/>
      <point x="255" y="78" type="line"/>
      <point x="125" y="78" type="line"/>
      <point x="125" y="399" type="line"/>
      <point x="245" y="620" type="line"/>
      <point x="245" y="700" type="line"/>
      <point x="35" y="700" type="line"/>
      <point x="35" y="624" type="line"/>
      <point x="160" y="624" type="line"/>
      <point x="35" y="396" type="line"/>
      <point x="35" y="80" type="line"/>
    </contour>
  </outline>
</glyph>
<glyph name="theta" format="2">
  <advance width="350"/>
  <unicode hex="03B8"/>
  <anchor x="175" y="0" name="bottom"/>
  <anchor x="175" y="700" name="top"/>
  <outline>
    <contour>
      <point x="40" y="80" type="line"/>
      <point x="120" y="0" type="line"/>
      <point x="230" y="0" type="line"/>
      <point x="310" y="80" type="line"/>
      <point x="310" y="620" type="line"/>
      <point x="230" y="700" type="line"/>
      <point x="120" y="700" type="line"/>
      <point x="40" y="620" type="line"/>
    </contour>
    <contour>
      <point x="130" y="620" type="line"/>
      <point x="220" y="620" type="line"/>
      <point x="220" y="390" type="line"/>
      <point x="130" y="390" type="line"/>
    </contour>
    <contour>
      <point x="130" y="80" type="line"/>
      <point x="130" y="310" type="line"/>
      <point x="220" y="310" type="line"/>
      <point x="220" y="80" type="line"/>
    </contour>
  </outline>
</glyph>
<glyph name="iota" format="2">
  <advance width="180"/>
  <unicode hex="03B9"/>
  <anchor x="110" y="0" name="bottom"/>
  <anchor x="86" y="560" name="top"/>
  <outline>
    <contour>
      <point x="40" y="560" type="line"/>
      <point x="40" y="70" type="line"/>
      <point x="110" y="0" type="line"/>
      <point x="170" y="0" type="line"/>
      <point x="170" y="82" type="line"/>
      <point x="130" y="82" type="line"/>
      <point x="130" y="560" type="line"/>
    </contour>
  </outline>
</glyph>
<glyph name="lambda" format="2">
  <advance width="350"/>
  <unicode hex="03BB"/>
  <anchor x="175" y="700" name="top"/>
  <anchor x="175" y="0" name="bottom"/>
  <outline>
    <contour>
      <point x="75" y="700" type="line"/>
      <point x="75" y="620" type="line"/>
      <point x="167" y="620" type="line"/>
      <point x="184" y="510" type="line"/>
      <point x="83" y="510" type="line"/>
      <point x="20" y="0" type="line"/>
      <point x="111" y="0" type="line"/>
      <point x="155" y="430" type="line"/>
      <point x="194" y="430" type="line"/>
      <point x="239" y="0" type="line"/>
      <point x="330" y="0" type="line"/>
      <point x="239" y="700" type="line"/>
    </contour>
  </outline>
</glyph>
<glyph name="uni03BC" format="2">
  <advance width="350"/>
  <unicode hex="03BC"/>
  <outline>
    <contour>
      <point x="310" y="560" type="line"/>
      <point x="220" y="560" type="line"/>
      <point x="220" y="80" type="line"/>
      <point x="130" y="80" type="line"/>
      <point x="130" y="560" type="line"/>
      <point x="40" y="560" type="line"/>
      <point x="40" y="-160" type="line"/>
      <point x="130" y="-160" type="line"/>
      <point x="130" y="0" type="line"/>
      <point x="310" y="0" type="line"/>
    </contour>
  </outline>
</glyph>
<glyph name="nu" format="2">
  <advance width="330"/>
  <unicode hex="03BD"/>
  <anchor x="165" y="0" name="bottom"/>
  <anchor x="165" y="560" name="top"/>
  <outline>
    <contour>
      <point x="87" y="0" type="line"/>
      <point x="243" y="0" type="line"/>
      <point x="310" y="560" type="line"/>
      <point x="219" y="560" type="line"/>
      <point x="175" y="80" type="line"/>
      <point x="155" y="80" type="line"/>
      <point x="111" y="560" type="line"/>
      <point x="20" y="560" type="line"/>
    </contour>
  </outline>
</glyph>
<glyph name="xi" format="2">
  <advance width="265"/>
  <unicode hex="03BE"/>
  <outline>
    <contour>
      <point x="100" y="0" type="line"/>
      <point x="170" y="0" type="line"/>
      <point x="170" y="-160" type="line"/>
      <point x="250" y="-160" type="line"/>
      <point x="250" y="82" type="line"/>
      <point x="120" y="82" type="line"/>
      <point x="120" y="326" type="line"/>
      <point x="245" y="326" type="line"/>
      <point x="245" y="406" type="line"/>
      <point x="130" y="406" type="line"/>
      <point x="130" y="618" type="line"/>
      <point x="250" y="618" type="line"/>
      <point x="250" y="700" type="line"/>
      <point x="110" y="700" type="line"/>
      <point x="40" y="630" type="line"/>
      <point x="40" y="412" type="line"/>
      <point x="87" y="372" type="line"/>
      <point x="30" y="317" type="line"/>
      <point x="30" y="70" type="line"/>
    </contour>
  </outline>
</glyph>
<glyph name="omicron" format="2">
  <advance width="350"/>
  <unicode hex="03BF"/>
  <anchor x="175" y="0" name="bottom"/>
  <anchor x="175" y="560" name="top"/>
  <outline>
    <contour>
      <point x="40" y="80" type="line"/>
      <point x="120" y="0" type="line"/>
      <point x="230" y="0" type="line"/>
      <point x="310" y="80" type="line"/>
      <point x="310" y="480" type="line"/>
      <point x="230" y="560" type="line"/>
      <point x="120" y="560" type="line"/>
      <point x="40" y="480" type="line"/>
    </contour>
    <contour>
      <point x="130" y="80" type="line"/>
      <point x="130" y="480" type="line"/>
      <point x="220" y="480" type="line"/>
      <point x="220" y="80" type="line"/>
    </contour>
  </outline>
</glyph>
<glyph name="pi" format="2">
  <advance width="350"/>
  <unicode hex="03C0"/>
  <anchor x="175" y="560" name="top"/>
  <anchor x="175" y="0" name="bottom"/>
  <outline>
    <contour>
      <point x="40" y="0" type="line"/>
      <point x="130" y="0" type="line"/>
      <point x="130" y="484" type="line"/>
      <point x="220" y="484" type="line"/>
      <point x="220" y="0" type="line"/>
      <point x="310" y="0" type="line"/>
      <point x="310" y="560" type="line"/>
      <point x="40" y="560" type="line"/>
    </contour>
  </outline>
</glyph>
<glyph name="rho" format="2">
  <advance width="350"/>
  <unicode hex="03C1"/>
  <anchor x="130" y="-140" name="bottom"/>
  <anchor x="177" y="560" name="top"/>
  <outline>
    <contour>
      <point x="40" y="-140" type="line"/>
      <point x="130" y="-140" type="line"/>
      <point x="130" y="0" type="line"/>
      <point x="230" y="0" type="line"/>
      <point x="310" y="80" type="line"/>
      <point x="310" y="480" type="line"/>
      <point x="230" y="560" type="line"/>
      <point x="120" y="560" type="line"/>
      <point x="40" y="480" type="line"/>
    </contour>
    <contour>
      <point x="220" y="480" type="line"/>
      <point x="220" y="80" type="line"/>
      <point x="130" y="80" type="line"/>
      <point x="130" y="480" type="line"/>
    </contour>
  </outline>
</glyph>
<glyph name="uni03C2" format="2">
  <advance width="270"/>
  <unicode hex="03C2"/>
  <anchor x="160" y="-160" name="bottom"/>
  <anchor x="160" y="560" name="top"/>
  <outline>
    <contour>
      <point x="115" y="0" type="line"/>
      <point x="170" y="0" type="line"/>
      <point x="170" y="-160" type="line"/>
      <point x="250" y="-160" type="line"/>
      <point x="250" y="80" type="line"/>
      <point x="130" y="80" type="line"/>
      <point x="130" y="480" type="line"/>
      <point x="250" y="480" type="line"/>
      <point x="250" y="560" type="line"/>
      <point x="130" y="560" type="line"/>
      <point x="40" y="470" type="line"/>
      <point x="40" y="75" type="line"/>
    </contour>
  </outline>
</glyph>
<glyph name="sigma" format="2">
  <advance width="355"/>
  <unicode hex="03C3"/>
  <anchor x="177.5" y="560" name="top"/>
  <anchor x="177.5" y="0" name="bottom"/>
  <outline>
    <contour>
      <point x="40" y="80" type="line"/>
      <point x="120" y="0" type="line"/>
      <point x="230" y="0" type="line"/>
      <point x="310" y="80" type="line"/>
      <point x="310" y="430" type="line"/>
      <point x="256" y="484" type="line"/>
      <point x="340" y="484" type="line"/>
      <point x="340" y="560" type="line"/>
      <point x="120" y="560" type="line"/>
      <point x="40" y="480" type="line"/>
    </contour>
    <contour>
      <point x="130" y="80" type="line"/>
      <point x="130" y="480" type="line"/>
      <point x="220" y="480" type="line"/>
      <point x="220" y="80" type="line"/>
    </contour>
  </outline>
</glyph>
<glyph name="tau" format="2">
  <advance width="260"/>
  <unicode hex="03C4"/>
  <anchor x="120" y="0" name="bottom"/>
  <anchor x="130" y="560" name="top"/>
  <outline>
    <contour>
      <point x="80" y="70" type="line"/>
      <point x="150" y="0" type="line"/>
      <point x="240" y="0" type="line"/>
      <point x="240" y="80" type="line"/>
      <point x="170" y="80" type="line"/>
      <point x="170" y="480" type="line"/>
      <point x="240" y="480" type="line"/>
      <point x="240" y="560" type="line"/>
      <point x="40" y="560" type="line"/>
      <point x="20" y="540" type="line"/>
      <point x="20" y="480" type="line"/>
      <point x="80" y="480" type="line"/>
    </contour>
  </outline>
</glyph>
<glyph name="upsilon" format="2">
  <advance width="350"/>
  <unicode hex="03C5"/>
  <anchor x="175" y="0" name="bottom"/>
  <anchor x="175" y="560" name="top"/>
  <outline>
    <contour>
      <point x="310" y="560" type="line"/>
      <point x="220" y="560" type="line"/>
      <point x="220" y="80" type="line"/>
      <point x="130" y="80" type="line"/>
      <point x="130" y="560" type="line"/>
      <point x="40" y="560" type="line"/>
      <point x="40" y="80" type="line"/>
      <point x="120" y="0" type="line"/>
      <point x="230" y="0" type="line"/>
      <point x="310" y="80" type="line"/>
    </contour>
  </outline>
</glyph>
<glyph name="phi" format="2">
  <advance width="510"/>
  <unicode hex="03C6"/>
  <outline>
    <contour>
      <point x="40" y="80" type="line"/>
      <point x="120" y="0" type="line"/>
      <point x="390" y="0" type="line"/>
      <point x="470" y="80" type="line"/>
      <point x="470" y="500" type="line"/>
      <point x="390" y="580" type="line"/>
      <point x="120" y="580" type="line"/>
      <point x="40" y="500" type="line"/>
    </contour>
    <contour>
      <point x="130" y="504" type="line"/>
      <point x="380" y="504" type="line"/>
      <point x="380" y="76" type="line"/>
      <point x="130" y="76" type="line"/>
    </contour>
    <contour>
      <point x="298" y="-140" type="line"/>
      <point x="298" y="700" type="line"/>
      <point x="212" y="700" type="line"/>
      <point x="212" y="-140" type="line"/>
    </contour>
  </outline>
</glyph>
<glyph name="psi" format="2">
  <advance width="510"/>
  <unicode hex="03C8"/>
  <anchor x="255" y="620" name="top"/>
  <anchor x="255" y="-140" name="bottom"/>
  <outline>
    <contour>
      <point x="120" y="0" type="line"/>
      <point x="210" y="0" type="line"/>
      <point x="210" y="-140" type="line"/>
      <point x="300" y="-140" type="line"/>
      <point x="300" y="0" type="line"/>
      <point x="390" y="0" type="line"/>
      <point x="470" y="80" type="line"/>
      <point x="470" y="560" type="line"/>
      <point x="380" y="560" type="line"/>
      <point x="380" y="80" type="line"/>
      <point x="300" y="80" type="line"/>
      <point x="300" y="620" type="line"/>
      <point x="210" y="620" type="line"/>
      <point x="210" y="80" type="line"/>
      <point x="130" y="80" type="line"/>
      <point x="130" y="560" type="line"/>
      <point x="40" y="560" type="line"/>
      <point x="40" y="80" type="line"/>
    </contour>
  </outline>
</glyph>
<glyph name="omega" format="2">
  <advance width="530"/>
  <unicode hex="03C9"/>
  <anchor x="265" y="0" name="bottom"/>
  <anchor x="265" y="560" name="top"/>
  <outline>
    <contour>
      <point x="310" y="460" type="line"/>
      <point x="220" y="460" type="line"/>
      <point x="220" y="80" type="line"/>
      <point x="130" y="80" type="line"/>
      <point x="130" y="560" type="line"/>
      <point x="40" y="560" type="line"/>
      <point x="40" y="90" type="line"/>
      <point x="130" y="0" type="line"/>
      <point x="220" y="0" type="line"/>
      <point x="265" y="78" type="line"/>
      <point x="310" y="0" type="line"/>
      <point x="400" y="0" type="line"/>
      <point x="490" y="90" type="line"/>
      <point x="490" y="560" type="line"/>
      <point x="400" y="560" type="line"/>
      <point x="400" y="80" type="line"/>
      <point x="310" y="80" type="line"/>
    </contour>
  </outline>
</glyph>
<glyph name="uni0402" format="2">
  <advance width="400"/>
  <unicode hex="0402"/>
  <anchor x="200" y="700" name="top"/>
  <anchor x="200" y="0" name="bottom"/>
  <outline>
    <contour>
      <point x="95" y="0" type="line"/>
      <point x="185" y="0" type="line"/>
      <point x="185" y="370" type="line"/>
      <point x="275" y="370" type="line"/>
      <point x="275" y="80" type="line"/>
      <point x="225" y="80" type="line"/>
      <point x="225" y="0" type="line"/>
      <point x="295" y="0" type="line"/>
      <point x="365" y="70" type="line"/>
      <point x="365" y="380" type="line"/>
      <point x="295" y="450" type="line"/>
      <point x="185" y="450" type="line"/>
      <point x="185" y="620" type="line"/>
      <point x="330" y="620" type="line"/>
      <point x="330" y="700" type="line"/>
      <point x="20" y="700" type="line"/>
      <point x="20" y="620" type="line"/>
      <point x="95" y="620" type="line"/>
    </contour>
  </outline>
</glyph>
<glyph name="uni0404" format="2">
  <advance width="290"/>
  <unicode hex="0404"/>
  <anchor x="170" y="0" name="bottom"/>
  <anchor x="170" y="700" name="top"/>
  <outline>
    <contour>
      <point x="40" y="80" type="line"/>
      <point x="120" y="0" type="line"/>
      <point x="260" y="0" type="line"/>
      <point x="260" y="82" type="line"/>
      <point x="130" y="82" type="line"/>
      <point x="130" y="618" type="line"/>
      <point x="260" y="618" type="line"/>
      <point x="260" y="700" type="line"/>
      <point x="120" y="700" type="line"/>
      <point x="40" y="620" type="line"/>
    </contour>
    <contour>
      <point x="50" y="310" type="line"/>
      <point x="240" y="310" type="line"/>
      <point x="240" y="390" type="line"/>
      <point x="50" y="390" type="line"/>
    </contour>
  </outline>
</glyph>
<glyph name="uni0409" format="2">
  <advance width="520"/>
  <unicode hex="0409"/>
  <anchor x="260" y="0" name="bottom"/>
  <anchor x="260" y="700" name="top"/>
  <outline>
    <contour>
      <point x="310" y="700" type="line"/>
      <point x="85" y="700" type="line"/>
      <point x="10" y="0" type="line"/>
      <point x="96" y="0" type="line"/>
      <point x="161" y="622" type="line"/>
      <point x="220" y="622" type="line"/>
      <point x="220" y="0" type="line"/>
      <point x="410" y="0" type="line"/>
      <point x="490" y="80" type="line"/>
      <point x="490" y="470" type="line"/>
      <point x="410" y="550" type="line"/>
      <point x="310" y="550" type="line"/>
    </contour>
    <contour>
      <point x="400" y="470" type="line"/>
      <point x="400" y="80" type="line"/>
      <point x="310" y="80" type="line"/>
      <point x="310" y="470" type="line"/>
    </contour>
  </outline>
</glyph>
<glyph name="uni040A" format="2">
  <advance width="530"/>
  <unicode hex="040A"/>
  <anchor x="265" y="700" name="top"/>
  <anchor x="265" y="0" name="bottom"/>
  <outline>
    <contour>
      <point x="40" y="0" type="line"/>
      <point x="130" y="0" type="line"/>
      <point x="130" y="320" type="line"/>
      <point x="230" y="320" type="line"/>
      <point x="230" y="0" type="line"/>
      <point x="420" y="0" type="line"/>
      <point x="500" y="80" type="line"/>
      <point x="500" y="470" type="line"/>
      <point x="420" y="550" type="line"/>
      <point x="320" y="550" type="line"/>
      <point x="320" y="700" type="line"/>
      <point x="230" y="700" type="line"/>
      <point x="230" y="400" type="line"/>
      <point x="130" y="400" type="line"/>
      <point x="130" y="700" type="line"/>
      <point x="40" y="700" type="line"/>
    </contour>
    <contour>
      <point x="410" y="470" type="line"/>
      <point x="410" y="80" type="line"/>
      <point x="320" y="80" type="line"/>
      <point x="320" y="470" type="line"/>
    </contour>
  </outline>
</glyph>
<glyph name="uni040B" format="2">
  <advance width="405"/>
  <unicode hex="040B"/>
  <anchor x="203" y="0" name="bottom"/>
  <anchor x="203" y="700" name="top"/>
  <outline>
    <contour>
      <point x="95" y="0" type="line"/>
      <point x="185" y="0" type="line"/>
      <point x="185" y="370" type="line"/>
      <point x="275" y="370" type="line"/>
      <point x="275" y="0" type="line"/>
      <point x="365" y="0" type="line"/>
      <point x="365" y="370" type="line"/>
      <point x="285" y="450" type="line"/>
      <point x="185" y="450" type="line"/>
      <point x="185" y="620" type="line"/>
      <point x="330" y="620" type="line"/>
      <point x="330" y="700" type="line"/>
      <point x="20" y="700" type="line"/>
      <point x="20" y="620" type="line"/>
      <point x="95" y="620" type="line"/>
    </contour>
  </outline>
</glyph>
<glyph name="uni040F" format="2">
  <advance width="360"/>
  <unicode hex="040F"/>
  <anchor x="180" y="700" name="bottom"/>
  <anchor x="180" y="0" name="top"/>
  <outline>
    <contour>
      <point x="320" y="700" type="line"/>
      <point x="230" y="700" type="line"/>
      <point x="230" y="80" type="line"/>
      <point x="130" y="80" type="line"/>
      <point x="130" y="700" type="line"/>
      <point x="40" y="700" type="line"/>
      <point x="40" y="0" type="line"/>
      <point x="140" y="0" type="line"/>
      <point x="140" y="-140" type="line"/>
      <point x="220" y="-140" type="line"/>
      <point x="220" y="0" type="line"/>
      <point x="320" y="0" type="line"/>
    </contour>
  </outline>
</glyph>
<glyph name="uni0411" format="2">
  <advance width="350"/>
  <unicode hex="0411"/>
  <outline>
    <contour>
      <point x="40" y="0" type="line"/>
      <point x="240" y="0" type="line"/>
      <point x="320" y="80" type="line"/>
      <point x="320" y="370" type="line"/>
      <point x="240" y="450" type="line"/>
      <point x="130" y="450" type="line"/>
      <point x="130" y="620" type="line"/>
      <point x="300" y="620" type="line"/>
      <point x="300" y="700" type="line"/>
      <point x="40" y="700" type="line"/>
    </contour>
    <contour>
      <point x="130" y="80" type="line"/>
      <point x="130" y="370" type="line"/>
      <point x="230" y="370" type="line"/>
      <point x="230" y="80" type="line"/>
    </contour>
  </outline>
</glyph>
<glyph name="uni0414" format="2">
  <advance width="380"/>
  <unicode hex="0414"/>
  <outline>
    <contour>
      <point x="15" y="-140" type="line"/>
      <point x="105" y="-140" type="line"/>
      <point x="105" y="0" type="line"/>
      <point x="275" y="0" type="line"/>
      <point x="275" y="-140" type="line"/>
      <point x="365" y="-140" type="line"/>
      <point x="365" y="80" type="line"/>
      <point x="336" y="80" type="line"/>
      <point x="336" y="700" type="line"/>
      <point x="107" y="700" type="line"/>
      <point x="44" y="80" type="line"/>
      <point x="15" y="80" type="line"/>
    </contour>
    <contour>
      <point x="134" y="80" type="line"/>
      <point x="186" y="620" type="line"/>
      <point x="246" y="620" type="line"/>
      <point x="246" y="80" type="line"/>
    </contour>
  </outline>
</glyph>
<glyph name="uni0416" format="2">
  <advance width="520"/>
  <unicode hex="0416"/>
  <anchor x="260" y="0" name="bottom"/>
  <anchor x="260" y="700" name="top"/>
  <outline>
    <contour>
      <point x="304" y="0" type="line"/>
      <point x="304" y="315" type="line"/>
      <point x="350" y="315" type="line"/>
      <point x="416" y="0" type="line"/>
      <point x="509" y="0" type="line"/>
      <point x="418" y="370" type="line"/>
      <point x="494" y="700" type="line"/>
      <point x="402" y="700" type="line"/>
      <point x="342" y="395" type="line"/>
      <point x="304" y="395" type="line"/>
      <point x="304" y="700" type="line"/>
      <point x="216" y="700" type="line"/>
      <point x="216" y="395" type="line"/>
      <point x="178" y="395" type="line"/>
      <point x="118" y="700" type="line"/>
      <point x="26" y="700" type="line"/>
      <point x="102" y="370" type="line"/>
      <point x="11" y="0" type="line"/>
      <point x="104" y="0" type="line"/>
      <point x="170" y="315" type="line"/>
      <point x="216" y="315" type="line"/>
      <point x="216" y="0" type="line"/>
    </contour>
  </outline>
</glyph>
<glyph name="uni0417" format="2">
  <advance width="295"/>
  <unicode hex="0417"/>
  <anchor x="125" y="0" name="bottom"/>
  <anchor x="125" y="700" name="top"/>
  <outline>
    <contour>
      <point x="185" y="0" type="line"/>
      <point x="265" y="80" type="line"/>
      <point x="265" y="306" type="line"/>
      <point x="192" y="366" type="line"/>
      <point x="250" y="419" type="line"/>
      <point x="250" y="620" type="line"/>
      <point x="170" y="700" type="line"/>
      <point x="23" y="700" type="line"/>
      <point x="23" y="620" type="line"/>
      <point x="160" y="620" type="line"/>
      <point x="160" y="400" type="line"/>
      <point x="40" y="400" type="line"/>
      <point x="40" y="320" type="line"/>
      <point x="175" y="320" type="line"/>
      <point x="175" y="80" type="line"/>
      <point x="15" y="80" type="line"/>
      <point x="15" y="0" type="line"/>
    </contour>
  </outline>
</glyph>
<glyph name="uni0418" format="2">
  <advance width="380"/>
  <unicode hex="0418"/>
  <anchor x="190" y="0" name="bottom"/>
  <anchor x="190" y="700" name="top"/>
  <outline>
    <contour>
      <point x="340" y="0" type="line"/>
      <point x="340" y="700" type="line"/>
      <point x="250" y="700" type="line"/>
      <point x="126" y="202" type="line"/>
      <point x="126" y="700" type="line"/>
      <point x="40" y="700" type="line"/>
      <point x="40" y="0" type="line"/>
      <point x="130" y="0" type="line"/>
      <point x="254" y="498" type="line"/>
      <point x="254" y="0" type="line"/>
    </contour>
  </outline>
</glyph>
<glyph name="uni041B" format="2">
  <advance width="350"/>
  <unicode hex="041B"/>
  <anchor x="175" y="700" name="top"/>
  <anchor x="175" y="0" name="bottom"/>
  <outline>
    <contour>
      <point x="310" y="700" type="line"/>
      <point x="85" y="700" type="line"/>
      <point x="10" y="0" type="line"/>
      <point x="96" y="0" type="line"/>
      <point x="161" y="622" type="line"/>
      <point x="220" y="622" type="line"/>
      <point x="220" y="0" type="line"/>
      <point x="310" y="0" type="line"/>
    </contour>
  </outline>
</glyph>
<glyph name="uni0426" format="2">
  <advance width="375"/>
  <unicode hex="0426"/>
  <anchor x="187.5" y="0" name="top"/>
  <anchor x="187.5" y="700" name="bottom"/>
  <outline>
    <contour>
      <point x="320" y="700" type="line"/>
      <point x="230" y="700" type="line"/>
      <point x="230" y="80" type="line"/>
      <point x="130" y="80" type="line"/>
      <point x="130" y="700" type="line"/>
      <point x="40" y="700" type="line"/>
      <point x="40" y="0" type="line"/>
      <point x="285" y="0" type="line"/>
      <point x="285" y="-140" type="line"/>
      <point x="365" y="-140" type="line"/>
      <point x="365" y="80" type="line"/>
      <point x="320" y="80" type="line"/>
    </contour>
  </outline>
</glyph>
<glyph name="uni0427" format="2">
  <advance width="360"/>
  <unicode hex="0427"/>
  <anchor x="230" y="0" name="bottom"/>
  <anchor x="180" y="700" name="top"/>
  <outline>
    <contour>
      <point x="320" y="700" type="line"/>
      <point x="230" y="700" type="line"/>
      <point x="230" y="220" type="line"/>
      <point x="130" y="220" type="line"/>
      <point x="130" y="700" type="line"/>
      <point x="40" y="700" type="line"/>
      <point x="40" y="220" type="line"/>
      <point x="120" y="140" type="line"/>
      <point x="230" y="140" type="line"/>
      <point x="230" y="0" type="line"/>
      <point x="320" y="0" type="line"/>
    </contour>
  </outline>
</glyph>
<glyph name="uni0428" format="2">
  <advance width="550"/>
  <unicode hex="0428"/>
  <outline>
    <contour>
      <point x="320" y="700" type="line"/>
      <point x="230" y="700" type="line"/>
      <point x="230" y="80" type="line"/>
      <point x="130" y="80" type="line"/>
      <point x="130" y="700" type="line"/>
      <point x="40" y="700" type="line"/>
      <point x="40" y="0" type="line"/>
      <point x="510" y="0" type="line"/>
      <point x="510" y="700" type="line"/>
      <point x="420" y="700" type="line"/>
      <point x="420" y="80" type="line"/>
      <point x="320" y="80" type="line"/>
    </contour>
  </outline>
</glyph>
<glyph name="uni0429" format="2">
  <advance width="565"/>
  <unicode hex="0429"/>
  <outline>
    <contour>
      <point x="320" y="700" type="line"/>
      <point x="230" y="700" type="line"/>
      <point x="230" y="80" type="line"/>
      <point x="130" y="80" type="line"/>
      <point x="130" y="700" type="line"/>
      <point x="40" y="700" type="line"/>
      <point x="40" y="0" type="line"/>
      <point x="475" y="0" type="line"/>
      <point x="475" y="-140" type="line"/>
      <point x="555" y="-140" type="line"/>
      <point x="555" y="80" type="line"/>
      <point x="510" y="80" type="line"/>
      <point x="510" y="700" type="line"/>
      <point x="420" y="700" type="line"/>
      <point x="420" y="80" type="line"/>
      <point x="320" y="80" type="line"/>
    </contour>
  </outline>
</glyph>
<glyph name="uni042A" format="2">
  <advance width="400"/>
  <unicode hex="042A"/>
  <anchor x="210" y="700" name="top"/>
  <anchor x="200" y="0" name="bottom"/>
  <outline>
    <contour>
      <point x="280" y="470" type="line"/>
      <point x="280" y="80" type="line"/>
      <point x="180" y="80" type="line"/>
      <point x="180" y="470" type="line"/>
    </contour>
    <contour>
      <point x="370" y="470" type="line"/>
      <point x="290" y="550" type="line"/>
      <point x="180" y="550" type="line"/>
      <point x="180" y="700" type="line"/>
      <point x="20" y="700" type="line"/>
      <point x="20" y="620" type="line"/>
      <point x="110" y="620" type="line"/>
      <point x="90" y="600" type="line"/>
      <point x="90" y="0" type="line"/>
      <point x="290" y="0" type="line"/>
      <point x="370" y="80" type="line"/>
    </contour>
  </outline>
</glyph>
<glyph name="uni042B" format="2">
  <advance width="520"/>
  <unicode hex="042B"/>
  <anchor x="260" y="700" name="top"/>
  <anchor x="260" y="0" name="bottom"/>
  <outline>
    <contour>
      <point x="230" y="470" type="line"/>
      <point x="230" y="80" type="line"/>
      <point x="130" y="80" type="line"/>
      <point x="130" y="470" type="line"/>
    </contour>
    <contour>
      <point x="320" y="470" type="line"/>
      <point x="240" y="550" type="line"/>
      <point x="130" y="550" type="line"/>
      <point x="130" y="700" type="line"/>
      <point x="40" y="700" type="line"/>
      <point x="40" y="0" type="line"/>
      <point x="240" y="0" type="line"/>
      <point x="320" y="80" type="line"/>
    </contour>
    <contour>
      <point x="390" y="0" type="line"/>
      <point x="480" y="0" type="line"/>
      <point x="480" y="700" type="line"/>
      <point x="390" y="700" type="line"/>
    </contour>
  </outline>
</glyph>
<glyph name="uni042C" format="2">
  <advance width="350"/>
  <unicode hex="042C"/>
  <anchor x="175" y="0" name="bottom"/>
  <anchor x="160" y="700" name="top"/>
  <outline>
    <contour>
      <point x="230" y="470" type="line"/>
      <point x="230" y="80" type="line"/>
      <point x="130" y="80" type="line"/>
      <point x="130" y="470" type="line"/>
    </contour>
    <contour>
      <point x="320" y="470" type="line"/>
      <point x="240" y="550" type="line"/>
      <point x="130" y="550" type="line"/>
      <point x="130" y="700" type="line"/>
      <point x="40" y="700" type="line"/>
      <point x="40" y="0" type="line"/>
      <point x="240" y="0" type="line"/>
      <point x="320" y="80" type="line"/>
    </contour>
  </outline>
</glyph>
<glyph name="uni042E" format="2">
  <advance width="550"/>
  <unicode hex="042E"/>
  <anchor x="275" y="0" name="bottom"/>
  <anchor x="275" y="700" name="top"/>
  <outline>
    <contour>
      <point x="40" y="0" type="line"/>
      <point x="130" y="0" type="line"/>
      <point x="130" y="310" type="line"/>
      <point x="230" y="310" type="line"/>
      <point x="230" y="80" type="line"/>
      <point x="310" y="0" type="line"/>
      <point x="430" y="0" type="line"/>
      <point x="510" y="80" type="line"/>
      <point x="510" y="620" type="line"/>
      <point x="430" y="700" type="line"/>
      <point x="310" y="700" type="line"/>
      <point x="230" y="620" type="line"/>
      <point x="230" y="390" type="line"/>
      <point x="130" y="390" type="line"/>
      <point x="130" y="700" type="line"/>
      <point x="40" y="700" type="line"/>
    </contour>
    <contour>
      <point x="320" y="620" type="line"/>
      <point x="420" y="620" type="line"/>
      <point x="420" y="80" type="line"/>
      <point x="320" y="80" type="line"/>
    </contour>
  </outline>
</glyph>
<glyph name="uni0432" format="2">
  <advance width="344"/>
  <unicode hex="0432"/>
  <anchor x="172" y="0" name="bottom"/>
  <anchor x="172" y="560" name="top"/>
  <outline>
    <contour>
      <point x="40" y="560" type="line"/>
      <point x="234" y="560" type="line"/>
      <point x="304" y="490" type="line"/>
      <point x="304" y="332" type="line"/>
      <point x="257" y="292" type="line"/>
      <point x="314" y="237" type="line"/>
      <point x="314" y="70" type="line"/>
      <point x="244" y="0" type="line"/>
      <point x="40" y="0" type="line"/>
    </contour>
    <contour>
      <point x="130" y="326" type="line"/>
      <point x="214" y="326" type="line"/>
      <point x="214" y="480" type="line"/>
      <point x="130" y="480" type="line"/>
    </contour>
    <contour>
      <point x="130" y="80" type="line"/>
      <point x="224" y="80" type="line"/>
      <point x="224" y="246" type="line"/>
      <point x="130" y="246" type="line"/>
    </contour>
  </outline>
</glyph>
<glyph name="uni0433" format="2">
  <advance width="230"/>
  <unicode hex="0433"/>
  <anchor x="90" y="0" name="bottom"/>
  <anchor x="130" y="560" name="top"/>
  <outline>
    <contour>
      <point x="40" y="0" type="line"/>
      <point x="130" y="0" type="line"/>
      <point x="130" y="478" type="line"/>
      <point x="220" y="478" type="line"/>
      <point x="220" y="560" type="line"/>
      <point x="40" y="560" type="line"/>
    </contour>
  </outline>
</glyph>
<glyph name="uni0437" format="2">
  <advance width="265"/>
  <unicode hex="0437"/>
  <anchor x="110" y="-0" name="bottom"/>
  <anchor x="110" y="560" name="top"/>
  <outline>
    <contour>
      <point x="235" y="70" type="line"/>
      <point x="235" y="237" type="line"/>
      <point x="178" y="292" type="line"/>
      <point x="225" y="332" type="line"/>
      <point x="225" y="490" type="line"/>
      <point x="155" y="560" type="line"/>
      <point x="20" y="560" type="line"/>
      <point x="20" y="478" type="line"/>
      <point x="135" y="478" type="line"/>
      <point x="135" y="326" type="line"/>
      <point x="25" y="326" type="line"/>
      <point x="25" y="246" type="line"/>
      <point x="145" y="246" type="line"/>
      <point x="145" y="82" type="line"/>
      <point x="15" y="82" type="line"/>
      <point x="15" y="0" type="line"/>
      <point x="165" y="0" type="line"/>
    </contour>
  </outline>
</glyph>
<glyph name="uni0438" format="2">
  <advance width="360"/>
  <unicode hex="0438"/>
  <anchor x="180" y="560" name="top"/>
  <anchor x="180" y="0" name="bottom"/>
  <outline>
    <contour>
      <point x="320" y="0" type="line"/>
      <point x="320" y="560" type="line"/>
      <point x="230" y="560" type="line"/>
      <point x="124" y="172" type="line"/>
      <point x="124" y="560" type="line"/>
      <point x="40" y="560" type="line"/>
      <point x="40" y="0" type="line"/>
      <point x="130" y="0" type="line"/>
      <point x="236" y="388" type="line"/>
      <point x="236" y="0" type="line"/>
    </contour>
  </outline>
</glyph>
<glyph name="uni043B" format="2">
  <advance width="340"/>
  <unicode hex="043B"/>
  <anchor x="170" y="0" name="bottom"/>
  <anchor x="170" y="560" name="top"/>
  <outline>
    <contour>
      <point x="300" y="560" type="line"/>
      <point x="35" y="560" type="line"/>
      <point x="35" y="482" type="line"/>
      <point x="66" y="482" type="line"/>
      <point x="47" y="82" type="line"/>
      <point x="10" y="82" type="line"/>
      <point x="10" y="0" type="line"/>
      <point x="128" y="0" type="line"/>
      <point x="151" y="482" type="line"/>
      <point x="212" y="482" type="line"/>
      <point x="212" y="0" type="line"/>
      <point x="300" y="0" type="line"/>
    </contour>
  </outline>
</glyph>
<glyph name="uni043C" format="2">
  <advance width="400"/>
  <unicode hex="043C"/>
  <anchor x="200" y="560" name="top"/>
  <anchor x="200" y="0" name="bottom"/>
  <outline>
    <contour>
      <point x="40" y="0" type="line"/>
      <point x="127" y="0" type="line"/>
      <point x="127" y="360" type="line"/>
      <point x="190" y="210" type="line"/>
      <point x="210" y="210" type="line"/>
      <point x="273" y="360" type="line"/>
      <point x="273" y="0" type="line"/>
      <point x="360" y="0" type="line"/>
      <point x="360" y="560" type="line"/>
      <point x="290" y="560" type="line"/>
      <point x="200" y="320" type="line"/>
      <point x="110" y="560" type="line"/>
      <point x="40" y="560" type="line"/>
    </contour>
  </outline>
</glyph>
<glyph name="uni043D" format="2">
  <advance width="350"/>
  <unicode hex="043D"/>
  <anchor x="175" y="560" name="top"/>
  <anchor x="175" y="0" name="bottom"/>
  <outline>
    <contour>
      <point x="40" y="0" type="line"/>
      <point x="130" y="0" type="line"/>
      <point x="130" y="250" type="line"/>
      <point x="220" y="250" type="line"/>
      <point x="220" y="0" type="line"/>
      <point x="310" y="0" type="line"/>
      <point x="310" y="560" type="line"/>
      <point x="220" y="560" type="line"/>
      <point x="220" y="330" type="line"/>
      <point x="130" y="330" type="line"/>
      <point x="130" y="560" type="line"/>
      <point x="40" y="560" type="line"/>
    </contour>
  </outline>
</glyph>
<glyph name="uni0442" format="2">
  <advance width="260"/>
  <unicode hex="0442"/>
  <anchor x="130" y="0" name="bottom"/>
  <anchor x="130" y="560" name="top"/>
  <outline>
    <contour>
      <point x="175" y="0" type="line"/>
      <point x="85" y="0" type="line"/>
      <point x="85" y="478" type="line"/>
      <point x="10" y="478" type="line"/>
      <point x="10" y="560" type="line"/>
      <point x="250" y="560" type="line"/>
      <point x="250" y="478" type="line"/>
      <point x="175" y="478" type="line"/>
    </contour>
  </outline>
</glyph>
<glyph name="uni0447" format="2">
  <advance width="345"/>
  <unicode hex="0447"/>
  <anchor x="215" y="0" name="bottom"/>
  <anchor x="165" y="560" name="top"/>
  <outline>
    <contour>
      <point x="305" y="560" type="line"/>
      <point x="215" y="560" type="line"/>
      <point x="215" y="220" type="line"/>
      <point x="125" y="220" type="line"/>
      <point x="125" y="560" type="line"/>
      <point x="35" y="560" type="line"/>
      <point x="35" y="220" type="line"/>
      <point x="115" y="140" type="line"/>
      <point x="215" y="140" type="line"/>
      <point x="215" y="0" type="line"/>
      <point x="305" y="0" type="line"/>
    </contour>
  </outline>
</glyph>
<glyph name="uni0448" format="2">
  <advance width="530"/>
  <unicode hex="0448"/>
  <outline>
    <contour>
      <point x="310" y="560" type="line"/>
      <point x="220" y="560" type="line"/>
      <point x="220" y="80" type="line"/>
      <point x="130" y="80" type="line"/>
      <point x="130" y="560" type="line"/>
      <point x="40" y="560" type="line"/>
      <point x="40" y="0" type="line"/>
      <point x="490" y="0" type="line"/>
      <point x="490" y="560" type="line"/>
      <point x="400" y="560" type="line"/>
      <point x="400" y="80" type="line"/>
      <point x="310" y="80" type="line"/>
    </contour>
  </outline>
</glyph>
<glyph name="uni044A" format="2">
  <advance width="395"/>
  <unicode hex="044A"/>
  <anchor x="210" y="0" name="bottom"/>
  <anchor x="210" y="560" name="top"/>
  <outline>
    <contour>
      <point x="90" y="0" type="line"/>
      <point x="280" y="0" type="line"/>
      <point x="360" y="80" type="line"/>
      <point x="360" y="340" type="line"/>
      <point x="280" y="420" type="line"/>
      <point x="180" y="420" type="line"/>
      <point x="180" y="560" type="line"/>
      <point x="10" y="560" type="line"/>
      <point x="10" y="480" type="line"/>
      <point x="130" y="480" type="line"/>
      <point x="90" y="440" type="line"/>
    </contour>
    <contour>
      <point x="180" y="80" type="line"/>
      <point x="180" y="340" type="line"/>
      <point x="270" y="340" type="line"/>
      <point x="270" y="80" type="line"/>
    </contour>
  </outline>
</glyph>
<glyph name="uni044B" format="2">
  <advance width="515"/>
  <unicode hex="044B"/>
  <anchor x="258" y="0" name="bottom"/>
  <anchor x="258" y="560" name="top"/>
  <outline>
    <contour>
      <point x="40" y="0" type="line"/>
      <point x="230" y="0" type="line"/>
      <point x="310" y="80" type="line"/>
      <point x="310" y="340" type="line"/>
      <point x="230" y="420" type="line"/>
      <point x="130" y="420" type="line"/>
      <point x="130" y="560" type="line"/>
      <point x="40" y="560" type="line"/>
    </contour>
    <contour>
      <point x="130" y="80" type="line"/>
      <point x="130" y="340" type="line"/>
      <point x="220" y="340" type="line"/>
      <point x="220" y="80" type="line"/>
    </contour>
    <contour>
      <point x="385" y="0" type="line"/>
      <point x="475" y="0" type="line"/>
      <point x="475" y="560" type="line"/>
      <point x="385" y="560" type="line"/>
    </contour>
  </outline>
</glyph>
<glyph name="uni044C" format="2">
  <advance width="335"/>
  <unicode hex="044C"/>
  <anchor x="160" y="0" name="bottom"/>
  <anchor x="160" y="560" name="top"/>
  <outline>
    <contour>
      <point x="40" y="0" type="line"/>
      <point x="230" y="0" type="line"/>
      <point x="310" y="80" type="line"/>
      <point x="310" y="340" type="line"/>
      <point x="230" y="420" type="line"/>
      <point x="130" y="420" type="line"/>
      <point x="130" y="560" type="line"/>
      <point x="40" y="560" type="line"/>
    </contour>
    <contour>
      <point x="130" y="80" type="line"/>
      <point x="130" y="340" type="line"/>
      <point x="220" y="340" type="line"/>
      <point x="220" y="80" type="line"/>
    </contour>
  </outline>
</glyph>
<glyph name="uni044D" format="2">
  <advance width="290"/>
  <unicode hex="044D"/>
  <anchor x="110" y="-0" name="bottom"/>
  <anchor x="57" y="-0" name="ogonek"/>
  <anchor x="110" y="560" name="top"/>
  <outline>
    <contour>
      <point x="175" y="0" type="line"/>
      <point x="15" y="0" type="line"/>
      <point x="15" y="80" type="line"/>
      <point x="165" y="80" type="line"/>
      <point x="165" y="250" type="line"/>
      <point x="35" y="250" type="line"/>
      <point x="35" y="330" type="line"/>
      <point x="165" y="330" type="line"/>
      <point x="165" y="480" type="line"/>
      <point x="15" y="480" type="line"/>
      <point x="15" y="560" type="line"/>
      <point x="175" y="560" type="line"/>
      <point x="255" y="480" type="line"/>
      <point x="255" y="80" type="line"/>
    </contour>
  </outline>
</glyph>
<glyph name="uni044E" format="2">
  <advance width="510"/>
  <unicode hex="044E"/>
  <anchor x="255" y="0" name="bottom"/>
  <anchor x="255" y="560" name="top"/>
  <outline>
    <contour>
      <point x="40" y="0" type="line"/>
      <point x="130" y="0" type="line"/>
      <point x="130" y="240" type="line"/>
      <point x="205" y="240" type="line"/>
      <point x="205" y="80" type="line"/>
      <point x="285" y="0" type="line"/>
      <point x="395" y="0" type="line"/>
      <point x="475" y="80" type="line"/>
      <point x="475" y="480" type="line"/>
      <point x="395" y="560" type="line"/>
      <point x="285" y="560" type="line"/>
      <point x="205" y="480" type="line"/>
      <point x="205" y="320" type="line"/>
      <point x="130" y="320" type="line"/>
      <point x="130" y="560" type="line"/>
      <point x="40" y="560" type="line"/>
    </contour>
    <contour>
      <point x="295" y="80" type="line"/>
      <point x="295" y="480" type="line"/>
      <point x="385" y="480" type="line"/>
      <point x="385" y="80" type="line"/>
    </contour>
  </outline>
</glyph>
<glyph name="uni044F" format="2">
  <advance width="360"/>
  <unicode hex="044F"/>
  <anchor x="175" y="0" name="bottom"/>
  <anchor x="195" y="560" name="top"/>
  <outline>
    <contour>
      <point x="130" y="280" type="line"/>
      <point x="130" y="480" type="line"/>
      <point x="230" y="480" type="line"/>
      <point x="230" y="280" type="line"/>
    </contour>
    <contour>
      <point x="40" y="260" type="line"/>
      <point x="93" y="207" type="line"/>
      <point x="20" y="0" type="line"/>
      <point x="112" y="0" type="line"/>
      <point x="175" y="200" type="line"/>
      <point x="230" y="200" type="line"/>
      <point x="230" y="0" type="line"/>
      <point x="320" y="0" type="line"/>
      <point x="320" y="560" type="line"/>
      <point x="120" y="560" type="line"/>
      <point x="40" y="480" type="line"/>
    </contour>
  </outline>
</glyph>
<glyph name="uni0452" format="2">
  <advance width="350"/>
  <unicode hex="0452"/>
  <anchor x="175" y="-160" name="bottom"/>
  <anchor x="175" y="700" name="top"/>
  <outline>
    <contour>
      <point x="40" y="0" type="line"/>
      <point x="130" y="0" type="line"/>
      <point x="130" y="420" type="line"/>
      <point x="220" y="420" type="line"/>
      <point x="220" y="-80" type="line"/>
      <point x="120" y="-80" type="line"/>
      <point x="120" y="-160" type="line"/>
      <point x="226" y="-160" type="line"/>
      <point x="310" y="-76" type="line"/>
      <point x="310" y="420" type="line"/>
      <point x="230" y="500" type="line"/>
      <point x="130" y="500" type="line"/>
      <point x="130" y="562" type="line"/>
      <point x="245" y="562" type="line"/>
      <point x="245" y="630" type="line"/>
      <point x="130" y="630" type="line"/>
      <point x="130" y="700" type="line"/>
      <point x="40" y="700" type="line"/>
    </contour>
  </outline>
</glyph>
<glyph name="uni0459" format="2">
  <advance width="515"/>
  <unicode hex="0459"/>
  <anchor x="258" y="0" name="bottom"/>
  <anchor x="258" y="560" name="top"/>
  <outline>
    <contour>
      <point x="10" y="0" type="line"/>
      <point x="128" y="0" type="line"/>
      <point x="151" y="482" type="line"/>
      <point x="212" y="482" type="line"/>
      <point x="212" y="0" type="line"/>
      <point x="400" y="0" type="line"/>
      <point x="480" y="80" type="line"/>
      <point x="480" y="340" type="line"/>
      <point x="400" y="420" type="line"/>
      <point x="300" y="420" type="line"/>
      <point x="300" y="560" type="line"/>
      <point x="35" y="560" type="line"/>
      <point x="35" y="482" type="line"/>
      <point x="66" y="482" type="line"/>
      <point x="47" y="82" type="line"/>
      <point x="10" y="82" type="line"/>
    </contour>
    <contour>
      <point x="300" y="80" type="line"/>
      <point x="300" y="340" type="line"/>
      <point x="390" y="340" type="line"/>
      <point x="390" y="80" type="line"/>
    </contour>
  </outline>
</glyph>
<glyph name="uni045A" format="2">
  <advance width="515"/>
  <unicode hex="045A"/>
  <anchor x="258" y="-0" name="bottom"/>
  <anchor x="258" y="560" name="top"/>
  <outline>
    <contour>
      <point x="220" y="0" type="line"/>
      <point x="410" y="0" type="line"/>
      <point x="490" y="80" type="line"/>
      <point x="490" y="340" type="line"/>
      <point x="410" y="420" type="line"/>
      <point x="310" y="420" type="line"/>
      <point x="310" y="560" type="line"/>
      <point x="220" y="560" type="line"/>
      <point x="220" y="330" type="line"/>
      <point x="130" y="330" type="line"/>
      <point x="130" y="560" type="line"/>
      <point x="40" y="560" type="line"/>
      <point x="40" y="0" type="line"/>
      <point x="130" y="0" type="line"/>
      <point x="130" y="250" type="line"/>
      <point x="220" y="250" type="line"/>
    </contour>
    <contour>
      <point x="310" y="80" type="line"/>
      <point x="310" y="340" type="line"/>
      <point x="400" y="340" type="line"/>
      <point x="400" y="80" type="line"/>
    </contour>
  </outline>
</glyph>
<glyph name="uni0462" format="2">
  <advance width="355"/>
  <unicode hex="0462"/>
  <anchor x="130" y="700" name="top"/>
  <anchor x="180" y="0" name="bottom"/>
  <outline>
    <contour>
      <point x="40" y="0" type="line"/>
      <point x="230" y="0" type="line"/>
      <point x="320" y="80" type="line"/>
      <point x="320" y="420" type="line"/>
      <point x="240" y="500" type="line"/>
      <point x="130" y="500" type="line"/>
      <point x="130" y="572" type="line"/>
      <point x="255" y="572" type="line"/>
      <point x="255" y="640" type="line"/>
      <point x="130" y="640" type="line"/>
      <point x="130" y="700" type="line"/>
      <point x="40" y="700" type="line"/>
    </contour>
    <contour>
      <point x="130" y="80" type="line"/>
      <point x="130" y="420" type="line"/>
      <point x="230" y="420" type="line"/>
      <point x="230" y="80" type="line"/>
    </contour>
  </outline>
</glyph>
<glyph name="uni0463" format="2">
  <advance width="345"/>
  <unicode hex="0463"/>
  <anchor x="130" y="700" name="top"/>
  <anchor x="180" y="0" name="bottom"/>
  <outline>
    <contour>
      <point x="40" y="0" type="line"/>
      <point x="220" y="0" type="line"/>
      <point x="310" y="80" type="line"/>
      <point x="310" y="410" type="line"/>
      <point x="230" y="490" type="line"/>
      <point x="130" y="490" type="line"/>
      <point x="130" y="562" type="line"/>
      <point x="245" y="562" type="line"/>
      <point x="245" y="630" type="line"/>
      <point x="130" y="630" type="line"/>
      <point x="130" y="700" type="line"/>
      <point x="40" y="700" type="line"/>
    </contour>
    <contour>
      <point x="130" y="80" type="line"/>
      <point x="130" y="410" type="line"/>
      <point x="220" y="410" type="line"/>
      <point x="220" y="80" type="line"/>
    </contour>
  </outline>
</glyph>
<glyph name="uni046A" format="2">
  <advance width="520"/>
  <unicode hex="046A"/>
  <anchor x="260" y="700" name="top"/>
  <anchor x="260" y="0" name="bottom"/>
  <outline>
    <contour>
      <point x="304" y="0" type="line"/>
      <point x="304" y="315" type="line"/>
      <point x="330" y="315" type="line"/>
      <point x="416" y="0" type="line"/>
      <point x="509" y="0" type="line"/>
      <point x="398" y="370" type="line"/>
      <point x="494" y="700" type="line"/>
      <point x="26" y="700" type="line"/>
      <point x="122" y="370" type="line"/>
      <point x="11" y="0" type="line"/>
      <point x="104" y="0" type="line"/>
      <point x="190" y="315" type="line"/>
      <point x="216" y="315" type="line"/>
      <point x="216" y="0" type="line"/>
    </contour>
    <contour>
      <point x="198" y="395" type="line"/>
      <point x="134" y="622" type="line"/>
      <point x="386" y="622" type="line"/>
      <point x="322" y="395" type="line"/>
    </contour>
  </outline>
</glyph>
<glyph name="uni046B" format="2">
  <advance width="480"/>
  <unicode hex="046B"/>
  <anchor x="240" y="560" name="top"/>
  <anchor x="240" y="0" name="bottom"/>
  <outline>
    <contour>
      <point x="285" y="0" type="line"/>
      <point x="285" y="221" type="line"/>
      <point x="315" y="221" type="line"/>
      <point x="368" y="0" type="line"/>
      <point x="460" y="0" type="line"/>
      <point x="385" y="272" type="line"/>
      <point x="454" y="560" type="line"/>
      <point x="26" y="560" type="line"/>
      <point x="95" y="272" type="line"/>
      <point x="20" y="0" type="line"/>
      <point x="112" y="0" type="line"/>
      <point x="165" y="221" type="line"/>
      <point x="195" y="221" type="line"/>
      <point x="195" y="0" type="line"/>
    </contour>
    <contour>
      <point x="168" y="301" type="line"/>
      <point x="132" y="480" type="line"/>
      <point x="348" y="480" type="line"/>
      <point x="312" y="301" type="line"/>
    </contour>
  </outline>
</glyph>
<glyph name="uni0474" format="2">
  <advance width="370"/>
  <unicode hex="0474"/>
  <anchor x="185" y="700" name="top"/>
  <anchor x="185" y="0" name="bottom"/>
  <outline>
    <contour>
      <point x="83" y="0" type="line"/>
      <point x="257" y="0" type="line"/>
      <point x="320" y="622" type="line"/>
      <point x="360" y="622" type="line"/>
      <point x="360" y="700" type="line"/>
      <point x="241" y="700" type="line"/>
      <point x="183" y="78" type="line"/>
      <point x="157" y="78" type="line"/>
      <point x="99" y="700" type="line"/>
      <point x="10" y="700" type="line"/>
    </contour>
  </outline>
</glyph>
<glyph name="uni0475" format="2">
  <advance width="390"/>
  <unicode hex="0475"/>
  <anchor x="195" y="0" name="bottom"/>
  <anchor x="195" y="560" name="top"/>
  <outline>
    <contour>
      <point x="92" y="0" type="line"/>
      <point x="258" y="0" type="line"/>
      <point x="320" y="482" type="line"/>
      <point x="380" y="482" type="line"/>
      <point x="380" y="560" type="line"/>
      <point x="240" y="560" type="line"/>
      <point x="192" y="80" type="line"/>
      <point x="158" y="80" type="line"/>
      <point x="110" y="560" type="line"/>
      <point x="20" y="560" type="line"/>
    </contour>
  </outline>
</glyph>
<glyph name="uni0490" format="2">
  <advance width="250"/>
  <unicode hex="0490"/>
  <anchor x="125" y="0" name="bottom"/>
  <anchor x="125" y="780" name="top"/>
  <outline>
    <contour>
      <point x="160" y="700" type="line"/>
      <point x="40" y="700" type="line"/>
      <point x="40" y="0" type="line"/>
      <point x="130" y="0" type="line"/>
      <point x="130" y="620" type="line"/>
      <point x="240" y="620" type="line"/>
      <point x="240" y="800" type="line"/>
      <point x="160" y="800" type="line"/>
    </contour>
  </outline>
</glyph>
<glyph name="uni0491" format="2">
  <advance width="240"/>
  <unicode hex="0491"/>
  <anchor x="90" y="0" name="bottom"/>
  <anchor x="179" y="640" name="top"/>
  <outline>
    <contour>
      <point x="40" y="0" type="line"/>
      <point x="130" y="0" type="line"/>
      <point x="130" y="478" type="line"/>
      <point x="220" y="478" type="line"/>
      <point x="220" y="680" type="line"/>
      <point x="140" y="680" type="line"/>
      <point x="140" y="560" type="line"/>
      <point x="40" y="560" type="line"/>
    </contour>
  </outline>
</glyph>
<glyph name="uni0492" format="2">
  <advance width="250"/>
  <unicode hex="0492"/>
  <anchor x="125" y="0" name="bottom"/>
  <anchor x="125" y="700" name="top"/>
  <outline>
    <component base="Gamma"/>
    <contour>
      <point x="80" y="304" type="line"/>
      <point x="200" y="304" type="line"/>
      <point x="200" y="380" type="line"/>
      <point x="80" y="380" type="line"/>
    </contour>
  </outline>
</glyph>
<glyph name="uni0493" format="2">
  <advance width="240"/>
  <unicode hex="0493"/>
  <outline>
    <component base="uni0433"/>
    <contour>
      <point x="10" y="224" type="line"/>
      <point x="190" y="224" type="line"/>
      <point x="190" y="300" type="line"/>
      <point x="10" y="300" type="line"/>
    </contour>
  </outline>
</glyph>
<glyph name="uni0494" format="2">
  <advance width="355"/>
  <unicode hex="0494"/>
  <anchor x="177.5" y="700" name="top"/>
  <anchor x="177.5" y="0" name="bottom"/>
  <outline>
    <contour>
      <point x="40" y="0" type="line"/>
      <point x="130" y="0" type="line"/>
      <point x="130" y="340" type="line"/>
      <point x="230" y="340" type="line"/>
      <point x="230" y="-60" type="line"/>
      <point x="150" y="-60" type="line"/>
      <point x="150" y="-140" type="line"/>
      <point x="260" y="-140" type="line"/>
      <point x="320" y="-80" type="line"/>
      <point x="320" y="360" type="line"/>
      <point x="260" y="420" type="line"/>
      <point x="130" y="420" type="line"/>
      <point x="130" y="620" type="line"/>
      <point x="315" y="620" type="line"/>
      <point x="315" y="700" type="line"/>
      <point x="40" y="700" type="line"/>
    </contour>
  </outline>
</glyph>
